{"glyphs":{"0":{"ha":897,"x_min":69,"x_max":828,"o":"m 69 151 l 69 1211 l 94 1213 l 94 1236 l 169 1236 l 171 1213 l 196 1213 l 196 1363 l 221 1364 l 221 1389 l 296 1389 l 297 1364 l 347 1364 l 347 1389 l 422 1389 l 424 1364 l 474 1364 l 474 1389 l 549 1389 l 550 1364 l 600 1364 l 600 1389 l 675 1389 l 676 1364 l 701 1363 l 701 1213 l 726 1213 l 726 1236 l 803 1236 l 803 1213 l 828 1211 l 828 151 l 701 151 l 701 0 l 196 0 l 196 151 l 69 151 m 322 151 l 347 151 l 347 176 l 422 176 l 424 151 l 474 151 l 474 176 l 549 176 l 550 151 l 575 151 l 575 606 l 449 606 l 449 303 l 322 303 l 322 151 m 322 758 l 347 758 l 347 782 l 422 782 l 424 758 l 449 758 l 449 1060 l 474 1061 l 474 1085 l 549 1085 l 550 1061 l 575 1061 l 575 1211 l 322 1211 l 322 758 z "},"1":{"ha":771,"x_min":69,"x_max":701,"o":"m 221 151 l 221 176 l 296 176 l 297 151 l 322 151 l 322 908 l 69 910 l 69 1060 l 94 1061 l 94 1085 l 169 1085 l 171 1061 l 196 1061 l 196 1211 l 221 1213 l 221 1236 l 296 1236 l 297 1213 l 322 1213 l 322 1363 l 347 1364 l 347 1389 l 422 1389 l 424 1364 l 474 1364 l 474 1389 l 549 1389 l 550 1364 l 575 1363 l 575 151 l 600 151 l 600 176 l 676 176 l 676 151 l 701 151 l 701 0 l 196 0 l 196 151 l 221 151 z "},"2":{"ha":897,"x_min":69,"x_max":828,"o":"m 94 303 l 94 328 l 169 328 l 171 303 l 196 303 l 196 454 l 221 454 l 221 479 l 296 479 l 297 454 l 322 454 l 322 606 l 347 606 l 347 631 l 422 631 l 424 606 l 449 606 l 449 757 l 474 758 l 474 782 l 549 782 l 550 758 l 575 758 l 575 1211 l 322 1211 l 322 910 l 69 910 l 69 1211 l 94 1213 l 94 1236 l 169 1236 l 171 1213 l 196 1213 l 196 1363 l 221 1364 l 221 1389 l 296 1389 l 297 1364 l 347 1364 l 347 1389 l 422 1389 l 424 1364 l 474 1364 l 474 1389 l 549 1389 l 550 1364 l 600 1364 l 600 1389 l 675 1389 l 676 1364 l 701 1363 l 701 1213 l 726 1213 l 726 1236 l 803 1236 l 803 1213 l 828 1211 l 828 758 l 701 757 l 701 606 l 575 606 l 575 454 l 449 454 l 449 303 l 322 303 l 322 151 l 347 151 l 347 176 l 422 176 l 424 151 l 474 151 l 474 176 l 549 176 l 550 151 l 600 151 l 600 176 l 675 176 l 676 151 l 726 151 l 726 176 l 803 176 l 803 151 l 828 151 l 828 0 l 69 0 l 69 303 l 94 303 z "},"3":{"ha":897,"x_min":69,"x_max":828,"o":"m 69 151 l 69 454 l 94 454 l 94 479 l 169 479 l 171 454 l 221 454 l 221 479 l 296 479 l 297 454 l 322 454 l 322 151 l 347 151 l 347 176 l 422 176 l 424 151 l 474 151 l 474 176 l 549 176 l 550 151 l 575 151 l 575 606 l 322 606 l 322 757 l 347 758 l 347 782 l 422 782 l 424 758 l 474 758 l 474 782 l 549 782 l 550 758 l 575 758 l 575 1211 l 322 1211 l 322 910 l 69 910 l 69 1211 l 94 1213 l 94 1236 l 169 1236 l 171 1213 l 196 1213 l 196 1363 l 221 1364 l 221 1389 l 296 1389 l 297 1364 l 347 1364 l 347 1389 l 422 1389 l 424 1364 l 474 1364 l 474 1389 l 549 1389 l 550 1364 l 600 1364 l 600 1389 l 675 1389 l 676 1364 l 701 1363 l 701 1213 l 726 1213 l 726 1236 l 803 1236 l 803 1213 l 828 1211 l 828 758 l 701 757 l 701 606 l 726 606 l 726 631 l 803 631 l 803 606 l 828 606 l 828 151 l 701 151 l 701 0 l 196 0 l 196 151 l 69 151 z "},"4":{"ha":897,"x_min":69,"x_max":828,"o":"m 69 454 l 69 1363 l 94 1364 l 94 1389 l 169 1389 l 171 1364 l 221 1364 l 221 1389 l 296 1389 l 297 1364 l 322 1363 l 322 606 l 347 606 l 347 631 l 422 631 l 424 606 l 474 606 l 474 631 l 549 631 l 550 606 l 575 606 l 575 1211 l 600 1213 l 600 1236 l 675 1236 l 676 1213 l 726 1213 l 726 1236 l 803 1236 l 803 1213 l 828 1211 l 828 0 l 575 0 l 575 454 l 69 454 z "},"5":{"ha":897,"x_min":69,"x_max":828,"o":"m 94 151 l 94 176 l 169 176 l 171 151 l 221 151 l 221 176 l 296 176 l 297 151 l 347 151 l 347 176 l 422 176 l 424 151 l 449 151 l 449 303 l 474 303 l 474 328 l 549 328 l 550 303 l 575 303 l 575 606 l 69 606 l 69 1363 l 94 1364 l 94 1389 l 169 1389 l 171 1364 l 221 1364 l 221 1389 l 296 1389 l 297 1364 l 347 1364 l 347 1389 l 422 1389 l 424 1364 l 474 1364 l 474 1389 l 549 1389 l 550 1364 l 600 1364 l 600 1389 l 675 1389 l 676 1364 l 726 1364 l 726 1389 l 803 1389 l 803 1364 l 828 1363 l 828 1213 l 322 1211 l 322 758 l 347 758 l 347 782 l 422 782 l 424 758 l 474 758 l 474 782 l 549 782 l 550 758 l 600 758 l 600 782 l 675 782 l 676 758 l 701 757 l 701 606 l 726 606 l 726 631 l 803 631 l 803 606 l 828 606 l 828 303 l 701 303 l 701 151 l 575 151 l 575 0 l 69 0 l 69 151 l 94 151 z "},"6":{"ha":897,"x_min":69,"x_max":828,"o":"m 69 151 l 69 908 l 94 910 l 94 933 l 169 933 l 171 910 l 196 910 l 196 1060 l 221 1061 l 221 1085 l 296 1085 l 297 1061 l 322 1061 l 322 1211 l 347 1213 l 347 1236 l 422 1236 l 424 1213 l 449 1213 l 449 1363 l 474 1364 l 474 1389 l 549 1389 l 550 1364 l 600 1364 l 600 1389 l 675 1389 l 676 1364 l 701 1363 l 701 1213 l 575 1211 l 575 1061 l 449 1060 l 449 910 l 322 908 l 322 758 l 347 758 l 347 782 l 422 782 l 424 758 l 474 758 l 474 782 l 549 782 l 550 758 l 600 758 l 600 782 l 675 782 l 676 758 l 701 757 l 701 606 l 726 606 l 726 631 l 803 631 l 803 606 l 828 606 l 828 151 l 701 151 l 701 0 l 196 0 l 196 151 l 69 151 m 322 151 l 347 151 l 347 176 l 422 176 l 424 151 l 474 151 l 474 176 l 549 176 l 550 151 l 575 151 l 575 606 l 322 606 l 322 151 z "},"7":{"ha":897,"x_min":69,"x_max":828,"o":"m 221 454 l 221 479 l 296 479 l 297 454 l 322 454 l 322 757 l 347 758 l 347 782 l 422 782 l 424 758 l 449 758 l 449 1060 l 474 1061 l 474 1085 l 549 1085 l 550 1061 l 575 1061 l 575 1211 l 69 1213 l 69 1363 l 94 1364 l 94 1389 l 169 1389 l 171 1364 l 221 1364 l 221 1389 l 296 1389 l 297 1364 l 347 1364 l 347 1389 l 422 1389 l 424 1364 l 474 1364 l 474 1389 l 549 1389 l 550 1364 l 600 1364 l 600 1389 l 675 1389 l 676 1364 l 726 1364 l 726 1389 l 803 1389 l 803 1364 l 828 1363 l 828 1061 l 701 1060 l 701 758 l 575 757 l 575 454 l 449 454 l 449 0 l 196 0 l 196 454 l 221 454 z "},"8":{"ha":897,"x_min":69,"x_max":828,"o":"m 69 151 l 69 606 l 94 606 l 94 631 l 169 631 l 171 606 l 196 606 l 196 757 l 69 758 l 69 1211 l 94 1213 l 94 1236 l 169 1236 l 171 1213 l 196 1213 l 196 1363 l 221 1364 l 221 1389 l 296 1389 l 297 1364 l 347 1364 l 347 1389 l 422 1389 l 424 1364 l 474 1364 l 474 1389 l 549 1389 l 550 1364 l 600 1364 l 600 1389 l 675 1389 l 676 1364 l 701 1363 l 701 1213 l 726 1213 l 726 1236 l 803 1236 l 803 1213 l 828 1211 l 828 758 l 701 757 l 701 606 l 726 606 l 726 631 l 803 631 l 803 606 l 828 606 l 828 151 l 701 151 l 701 0 l 196 0 l 196 151 l 69 151 m 322 151 l 347 151 l 347 176 l 422 176 l 424 151 l 474 151 l 474 176 l 549 176 l 550 151 l 575 151 l 575 454 l 449 454 l 449 606 l 322 606 l 322 151 m 449 758 l 474 758 l 474 782 l 549 782 l 550 758 l 575 758 l 575 1211 l 322 1211 l 322 910 l 347 910 l 347 933 l 422 933 l 424 910 l 449 908 l 449 758 z "},"9":{"ha":897,"x_min":69,"x_max":828,"o":"m 196 606 l 196 757 l 69 758 l 69 1211 l 94 1213 l 94 1236 l 169 1236 l 171 1213 l 196 1213 l 196 1363 l 221 1364 l 221 1389 l 296 1389 l 297 1364 l 347 1364 l 347 1389 l 422 1389 l 424 1364 l 474 1364 l 474 1389 l 549 1389 l 550 1364 l 600 1364 l 600 1389 l 675 1389 l 676 1364 l 701 1363 l 701 1213 l 726 1213 l 726 1236 l 803 1236 l 803 1213 l 828 1211 l 828 0 l 575 0 l 575 606 l 196 606 m 322 758 l 347 758 l 347 782 l 422 782 l 424 758 l 474 758 l 474 782 l 549 782 l 550 758 l 575 758 l 575 1211 l 322 1211 l 322 758 z "},"©":{"ha":2097,"x_min":42,"x_max":2056,"o":"m 1846 339 q 1842 337 1844 339 q 1839 332 1839 335 q 1806 287 1821 304 q 1754 269 1790 269 q 1730 269 1742 269 q 1707 276 1718 269 q 1720 277 1711 276 q 1739 279 1729 278 q 1758 282 1749 281 q 1769 285 1767 283 q 1810 313 1800 292 q 1832 361 1821 335 l 1829 364 l 1826 367 q 1817 371 1824 368 q 1801 378 1810 374 q 1786 385 1793 382 q 1778 389 1779 388 q 1760 396 1774 390 q 1742 410 1747 401 q 1747 410 1743 410 q 1753 411 1750 411 q 1755 410 1754 411 q 1758 410 1756 410 l 1763 410 q 1784 403 1767 410 q 1806 396 1801 396 l 1807 396 l 1813 396 q 1808 399 1810 396 q 1806 403 1807 401 q 1794 410 1803 404 q 1777 424 1786 417 q 1759 436 1768 431 q 1749 443 1750 442 q 1740 452 1747 444 q 1722 469 1732 460 q 1702 487 1713 478 q 1686 500 1692 496 q 1676 508 1683 503 q 1669 522 1669 514 l 1679 522 q 1689 513 1682 519 q 1703 500 1696 507 q 1718 487 1711 493 q 1728 479 1725 481 q 1739 471 1729 478 q 1761 455 1749 464 q 1786 437 1774 446 q 1806 424 1799 428 q 1817 415 1808 421 q 1826 410 1825 410 q 1837 415 1829 410 q 1846 424 1844 421 q 1847 445 1846 429 q 1847 465 1847 461 q 1840 526 1847 499 q 1818 583 1833 554 q 1815 591 1818 585 q 1808 604 1811 597 q 1801 617 1804 611 q 1797 625 1799 624 l 1797 633 q 1816 619 1810 633 q 1826 599 1822 606 q 1832 585 1828 594 q 1841 565 1836 575 q 1849 546 1846 554 q 1854 535 1853 538 q 1866 481 1865 507 q 1868 424 1867 456 l 1874 417 q 1880 435 1875 422 q 1889 462 1885 447 q 1897 489 1893 476 q 1903 507 1901 501 q 1903 515 1903 508 q 1906 528 1904 521 q 1908 541 1907 535 q 1908 549 1908 547 q 1913 553 1910 551 q 1915 556 1915 554 l 1915 542 q 1903 471 1915 503 q 1890 404 1890 439 q 1926 408 1907 404 q 1963 422 1946 413 q 1992 446 1979 432 q 2007 479 2004 460 q 2008 472 2007 478 q 2008 465 2008 467 q 1998 432 2008 444 q 1973 412 1988 419 q 1940 399 1958 404 q 1908 389 1922 394 q 1906 385 1908 388 q 1903 382 1903 383 q 1953 354 1926 368 q 2000 319 1981 340 q 2038 279 2019 297 q 2056 232 2056 261 l 2056 222 q 2038 254 2050 238 q 2012 287 2026 271 q 1981 317 1997 303 q 1950 339 1964 331 l 1947 340 l 1944 339 q 1942 321 1944 332 q 1935 300 1940 310 q 1924 283 1931 290 q 1906 276 1917 276 q 1881 286 1894 276 q 1860 306 1867 296 l 1860 299 q 1876 203 1860 249 q 1922 118 1893 157 l 1921 115 q 1917 117 1918 115 q 1915 118 1915 117 q 1880 160 1894 132 q 1857 220 1865 188 q 1846 285 1849 253 q 1846 339 1843 318 m 401 410 q 385 435 392 421 q 376 465 378 449 q 388 469 382 467 q 399 479 399 475 l 399 632 l 357 681 l 357 688 q 370 688 360 688 q 385 689 381 689 q 397 690 388 689 q 416 692 406 690 q 435 694 426 693 q 447 694 444 694 q 469 695 453 694 q 502 697 485 696 q 535 697 519 697 q 558 697 551 697 q 556 671 558 689 q 548 635 553 653 q 538 603 543 617 q 526 590 532 590 l 524 590 q 513 612 521 597 q 494 632 506 626 q 490 631 494 633 q 482 628 485 628 l 482 479 q 502 475 486 478 q 524 472 518 472 q 535 469 528 471 q 544 465 542 467 l 544 463 l 544 458 q 518 426 529 435 q 479 410 507 417 l 479 142 q 447 158 456 142 q 434 182 442 167 q 419 212 426 197 q 406 237 411 226 q 401 249 401 247 l 401 410 m 1360 167 q 1374 180 1364 171 q 1394 200 1383 189 q 1415 222 1406 211 q 1428 236 1425 232 q 1438 247 1432 240 q 1449 263 1443 254 q 1460 279 1456 271 q 1464 294 1464 288 q 1460 305 1464 301 q 1456 317 1456 308 q 1465 332 1456 325 q 1485 347 1474 339 q 1505 366 1496 356 q 1514 389 1514 376 q 1506 407 1514 396 q 1492 424 1499 418 q 1478 435 1488 428 q 1459 449 1469 442 q 1440 463 1449 457 q 1428 472 1432 469 q 1422 475 1426 472 q 1415 479 1418 478 q 1404 482 1413 479 q 1393 486 1396 485 q 1376 503 1389 490 q 1360 522 1363 517 q 1358 526 1358 522 q 1357 532 1357 531 q 1358 538 1357 535 q 1360 542 1358 542 q 1373 548 1363 544 q 1388 549 1383 551 l 1499 660 q 1528 672 1510 672 q 1561 681 1547 672 q 1567 688 1561 682 q 1575 694 1574 694 q 1586 697 1578 696 q 1597 699 1594 699 q 1588 643 1597 671 q 1568 590 1578 615 l 1564 590 q 1548 605 1556 590 q 1533 625 1540 619 l 1456 542 q 1481 519 1467 529 q 1510 499 1496 508 q 1539 478 1525 489 q 1561 451 1553 467 q 1564 441 1561 449 q 1568 431 1567 433 q 1575 413 1569 426 q 1583 396 1581 400 l 1464 222 q 1451 208 1461 219 q 1436 194 1442 197 q 1429 190 1435 193 q 1422 186 1424 188 q 1394 160 1404 171 q 1360 150 1383 150 l 1360 167 m 864 618 q 858 640 858 632 q 857 660 857 649 l 857 675 q 869 667 864 668 q 883 667 875 667 q 893 670 890 667 q 898 678 896 674 q 902 685 900 682 q 910 689 904 689 l 914 689 l 928 675 l 990 472 q 1004 451 993 458 q 1012 458 1007 453 q 1018 465 1017 463 l 1018 468 l 1018 472 q 1007 538 1010 508 q 1004 604 1004 567 l 1004 675 q 1018 667 1011 668 q 1033 667 1025 667 q 1049 671 1043 667 q 1061 681 1056 675 q 1073 690 1067 686 q 1090 694 1079 694 q 1088 665 1090 679 q 1076 639 1086 650 l 1076 178 q 1060 181 1065 178 q 1051 190 1054 185 q 1047 204 1049 196 q 1039 222 1044 213 q 1016 258 1031 238 q 990 290 1001 279 q 981 315 988 297 q 969 353 975 333 q 956 392 963 374 q 947 417 950 410 q 939 442 944 428 q 924 465 933 457 l 924 171 q 907 179 913 171 q 890 213 897 194 q 871 249 882 232 q 869 252 869 250 q 867 257 868 254 l 864 263 l 864 618 m 1203 599 q 1185 612 1188 607 q 1171 632 1182 617 q 1162 642 1168 635 q 1149 658 1156 650 q 1137 672 1143 665 q 1129 681 1131 678 l 1129 689 l 1332 689 l 1332 667 q 1318 651 1332 664 q 1297 632 1304 639 q 1285 628 1294 631 q 1271 625 1275 625 l 1271 169 q 1252 176 1258 169 q 1243 192 1246 183 q 1239 212 1240 201 q 1233 229 1238 222 q 1219 250 1231 235 q 1203 271 1207 265 l 1203 599 m 767 692 q 778 674 768 692 q 794 647 789 657 q 799 639 796 644 q 803 632 801 633 l 803 631 l 803 625 q 801 570 803 610 q 799 486 800 531 q 796 402 797 442 q 794 347 794 363 q 779 332 790 343 q 756 308 768 321 q 733 285 744 296 q 718 271 722 275 q 711 265 717 269 q 700 257 706 261 q 690 249 694 253 q 685 243 685 244 q 670 228 682 240 q 656 214 658 217 l 650 214 q 635 220 642 214 q 625 235 629 226 q 618 251 621 243 q 614 263 615 260 q 611 267 614 264 q 608 271 608 269 q 603 278 606 274 q 600 285 600 283 l 600 639 q 606 659 600 653 q 619 669 611 665 q 635 678 626 674 q 647 692 643 682 l 767 692 m 676 303 q 696 312 686 303 q 713 334 706 321 q 726 360 721 347 q 732 382 731 374 q 733 425 732 394 q 736 490 735 456 q 738 555 738 524 q 739 599 739 586 l 739 613 q 726 636 739 632 q 699 640 714 640 q 688 640 696 640 q 676 639 679 639 l 676 303 m 1721 417 q 1718 413 1721 413 q 1714 417 1715 413 q 1717 419 1714 419 q 1721 417 1721 419 m 1665 535 q 1671 528 1671 535 q 1665 522 1671 522 q 1661 528 1661 522 q 1665 535 1661 535 m 1644 660 l 1686 660 q 1683 653 1686 657 q 1679 647 1681 650 q 1678 632 1679 643 q 1675 608 1676 621 q 1673 585 1674 596 q 1672 571 1672 575 q 1664 579 1668 574 q 1660 590 1660 585 q 1657 602 1658 593 q 1655 622 1656 611 q 1653 641 1654 632 q 1651 653 1651 650 l 1644 660 m 1697 663 q 1717 658 1713 663 q 1728 639 1722 653 q 1738 657 1731 649 q 1756 665 1744 665 l 1756 571 l 1749 571 q 1738 594 1746 582 q 1718 613 1729 606 l 1718 571 q 1706 578 1711 572 q 1701 590 1701 585 q 1699 604 1700 594 q 1698 626 1699 614 q 1697 648 1697 638 q 1697 663 1697 658 m 1157 689 q 1163 682 1163 689 q 1157 675 1163 675 q 1151 682 1151 675 q 1157 689 1151 689 m 896 975 q 884 991 889 981 q 879 1013 879 1001 l 879 1017 q 885 1019 881 1017 q 893 1022 890 1021 l 893 1161 l 851 1211 l 1011 1211 l 1018 1204 l 1018 1203 q 1019 1201 1018 1201 q 1019 1199 1019 1200 l 1018 1197 q 997 1174 1010 1186 q 969 1161 985 1163 l 969 1022 q 994 1019 976 1022 q 1018 1017 1013 1017 q 1022 1012 1019 1014 q 1024 1008 1024 1010 q 1003 979 1011 989 q 969 967 994 969 l 969 796 l 1021 796 l 1021 792 q 1018 785 1021 788 q 1003 771 1010 769 q 983 765 997 772 q 973 758 981 764 q 963 751 965 751 q 951 751 960 750 q 942 751 943 751 q 927 741 939 750 q 914 729 915 732 l 910 729 l 907 729 q 900 737 904 732 q 896 743 896 742 l 896 975 m 49 751 q 63 772 53 757 q 85 803 74 786 q 106 834 96 819 q 119 856 115 849 q 125 865 124 861 q 127 874 126 869 q 129 883 128 878 q 133 897 131 889 q 142 913 136 906 q 153 928 147 921 q 165 942 160 935 q 169 960 169 950 q 160 976 169 967 q 140 995 151 986 q 117 1012 129 1004 q 99 1022 104 1019 q 88 1026 96 1024 q 78 1029 81 1028 q 59 1046 72 1032 q 43 1064 46 1060 q 42 1067 42 1065 l 42 1071 q 53 1092 42 1081 q 71 1099 64 1104 l 147 1183 q 168 1192 154 1186 q 182 1211 182 1197 l 258 1211 q 254 1196 257 1207 q 249 1172 251 1185 q 243 1149 246 1160 q 239 1133 240 1138 q 235 1126 236 1131 q 232 1119 233 1122 l 228 1119 l 224 1119 q 216 1130 221 1122 q 210 1140 211 1138 q 208 1142 208 1140 q 208 1143 208 1143 q 207 1144 207 1143 l 204 1147 q 192 1137 200 1144 q 176 1121 185 1129 q 158 1104 167 1113 q 147 1093 150 1096 q 143 1085 146 1090 q 140 1078 140 1081 l 140 1075 l 140 1071 q 175 1045 157 1057 q 207 1020 193 1033 q 230 990 221 1007 q 239 950 239 974 l 239 938 q 221 912 233 931 q 194 872 208 893 q 166 833 179 851 q 147 807 153 814 q 132 790 144 804 q 113 771 119 776 q 106 768 111 771 q 99 765 100 765 q 76 745 85 754 q 49 736 68 736 l 49 751 m 1778 751 q 1792 772 1782 757 q 1812 803 1801 786 q 1832 834 1822 819 q 1846 856 1842 849 q 1854 874 1854 868 q 1860 897 1854 879 q 1869 913 1863 906 q 1881 928 1875 921 q 1892 942 1888 935 q 1896 960 1896 950 q 1888 976 1896 967 q 1868 995 1879 986 q 1845 1012 1857 1004 q 1826 1022 1833 1019 q 1815 1026 1824 1024 q 1806 1029 1807 1028 q 1798 1035 1803 1031 q 1787 1046 1793 1040 q 1776 1056 1781 1051 q 1769 1064 1771 1061 l 1769 1071 q 1780 1092 1769 1081 q 1797 1099 1790 1104 l 1874 1183 q 1894 1192 1881 1186 q 1908 1211 1908 1197 l 1986 1211 q 1981 1196 1985 1207 q 1975 1172 1978 1185 q 1969 1149 1972 1160 q 1965 1133 1967 1138 q 1963 1126 1965 1131 q 1958 1119 1960 1122 l 1954 1119 l 1950 1119 q 1944 1130 1950 1122 q 1936 1140 1938 1138 q 1934 1144 1936 1142 q 1931 1147 1932 1147 q 1919 1137 1926 1144 q 1902 1121 1911 1129 q 1885 1104 1893 1113 q 1874 1093 1876 1096 q 1871 1085 1874 1090 q 1868 1078 1868 1081 l 1868 1075 l 1868 1071 q 1902 1045 1885 1057 q 1933 1020 1919 1033 q 1956 990 1947 1007 q 1965 950 1965 974 l 1965 938 q 1948 912 1961 931 q 1920 872 1935 893 q 1892 833 1906 851 q 1874 807 1879 814 q 1858 790 1871 804 q 1839 771 1844 776 l 1826 765 q 1803 745 1811 754 q 1778 736 1796 736 l 1778 751 m 1067 1169 q 1056 1172 1064 1169 q 1046 1175 1049 1174 l 1044 1178 l 1044 1181 q 1046 1183 1044 1182 l 1049 1186 l 1051 1189 q 1069 1190 1054 1190 q 1088 1189 1085 1189 q 1105 1193 1090 1190 q 1122 1197 1119 1196 q 1134 1199 1125 1197 q 1153 1201 1143 1200 q 1173 1203 1164 1203 q 1185 1204 1182 1204 q 1189 1207 1186 1204 q 1192 1211 1192 1210 l 1194 1211 q 1213 1205 1204 1211 q 1227 1189 1221 1199 q 1237 1169 1233 1179 q 1240 1151 1240 1160 q 1234 1119 1240 1135 q 1219 1090 1228 1104 q 1205 1060 1211 1075 q 1199 1029 1199 1046 l 1199 1017 l 1283 771 l 1268 771 q 1255 794 1265 778 q 1240 814 1244 810 q 1227 824 1239 815 q 1213 835 1215 832 q 1205 842 1210 838 q 1199 847 1200 847 q 1167 930 1179 888 q 1126 1008 1154 972 l 1126 743 l 1115 743 q 1095 799 1110 775 q 1074 847 1081 822 l 1074 890 q 1073 945 1074 906 q 1071 1030 1072 985 q 1068 1115 1069 1075 q 1067 1169 1067 1154 m 660 1169 q 651 1179 657 1172 q 642 1189 644 1186 q 640 1190 640 1189 l 640 1193 q 644 1202 640 1200 q 653 1204 649 1204 q 663 1205 658 1204 q 669 1211 668 1206 l 794 1211 l 822 1169 l 822 883 q 817 875 822 883 q 806 856 813 867 q 792 833 800 844 q 781 814 785 822 q 773 801 778 808 q 767 793 768 793 q 749 788 764 790 q 732 785 735 786 q 718 772 729 785 q 704 758 707 760 l 700 758 l 699 758 q 693 791 694 772 q 689 828 692 810 q 680 861 686 846 q 660 883 674 876 l 660 1169 m 1311 1017 l 1324 1029 q 1328 1044 1325 1031 q 1333 1077 1331 1058 q 1340 1115 1336 1096 q 1344 1147 1343 1135 l 1344 1160 q 1342 1184 1344 1174 q 1332 1211 1339 1194 l 1469 1211 q 1474 1208 1472 1211 q 1478 1204 1476 1206 q 1481 1191 1478 1201 q 1485 1175 1485 1181 q 1489 1152 1486 1171 q 1495 1113 1492 1133 q 1502 1074 1499 1092 q 1506 1051 1506 1056 q 1511 1035 1507 1039 q 1518 1028 1515 1031 q 1524 1022 1521 1025 q 1526 1010 1526 1019 q 1523 985 1526 994 q 1519 960 1519 975 q 1531 861 1519 910 q 1542 763 1542 813 q 1524 768 1525 763 q 1513 785 1522 774 q 1499 799 1510 788 q 1485 814 1488 811 q 1482 823 1485 815 q 1478 835 1479 831 q 1474 853 1476 839 q 1467 886 1471 868 q 1460 919 1463 904 q 1456 938 1457 933 q 1453 956 1456 944 l 1450 967 l 1388 967 q 1374 937 1379 967 q 1365 870 1369 907 q 1354 801 1360 833 q 1338 765 1349 769 q 1331 781 1335 767 q 1324 815 1328 796 q 1317 851 1321 833 q 1311 876 1314 868 l 1311 1017 m 310 1161 q 302 1164 308 1161 q 294 1169 296 1167 q 289 1183 292 1172 q 286 1197 286 1193 q 303 1195 292 1194 q 315 1207 315 1196 l 461 1207 l 494 1169 l 494 1051 l 461 1017 l 439 1017 q 432 1012 439 1017 q 417 1001 425 1007 q 399 987 408 994 q 385 975 390 979 q 377 967 382 972 q 371 960 372 961 q 369 944 371 956 q 367 922 368 933 q 364 899 365 910 q 363 883 363 888 q 358 859 363 875 q 347 827 354 843 q 331 800 340 811 q 310 789 321 789 l 310 1161 m 1644 856 q 1619 1026 1640 947 q 1568 1189 1599 1104 l 1568 1193 l 1596 1193 q 1603 1204 1599 1197 q 1613 1211 1607 1211 q 1631 1190 1626 1211 q 1640 1144 1636 1169 q 1648 1099 1643 1119 q 1665 1078 1653 1078 q 1679 1085 1676 1078 l 1679 1140 q 1683 1158 1681 1144 q 1686 1175 1686 1171 q 1700 1185 1689 1183 q 1714 1189 1711 1186 q 1725 1199 1717 1190 q 1736 1211 1733 1208 q 1747 1214 1738 1213 q 1758 1215 1756 1215 q 1742 1169 1758 1192 q 1731 1126 1739 1157 q 1716 1061 1724 1096 q 1701 996 1708 1026 q 1693 953 1694 965 q 1690 922 1692 944 q 1688 873 1689 899 q 1687 824 1688 847 q 1686 793 1686 801 l 1683 792 l 1681 792 q 1679 793 1679 792 q 1675 795 1678 793 q 1672 800 1672 797 q 1658 828 1668 807 q 1644 856 1647 849 m 551 869 q 550 914 551 882 q 548 981 549 946 q 546 1049 547 1017 q 544 1093 544 1081 q 544 1107 544 1097 q 542 1127 543 1117 q 539 1147 540 1138 q 538 1161 538 1157 q 535 1172 538 1164 q 532 1183 532 1181 q 531 1188 531 1185 q 529 1193 529 1189 q 531 1198 529 1194 q 532 1204 532 1201 q 537 1199 532 1201 q 544 1197 542 1197 l 547 1196 l 550 1196 q 551 1197 551 1196 q 556 1201 553 1199 q 558 1207 558 1204 l 600 1207 l 600 797 q 587 802 592 797 q 579 815 582 807 q 575 830 576 822 q 571 842 574 838 q 563 856 571 846 q 551 869 554 867 m 718 847 q 736 856 728 847 q 751 875 744 864 q 764 898 758 886 q 775 918 769 910 l 775 1107 q 765 1138 768 1121 q 761 1169 761 1156 l 718 1169 l 718 847 m 1388 1029 q 1408 1022 1392 1026 q 1428 1017 1424 1017 q 1435 1018 1431 1017 q 1443 1022 1440 1019 l 1443 1025 q 1437 1059 1443 1039 q 1428 1093 1431 1079 q 1426 1110 1428 1097 q 1422 1138 1424 1124 q 1417 1165 1419 1153 q 1415 1183 1415 1178 l 1408 1175 q 1404 1159 1407 1175 q 1399 1121 1401 1143 q 1392 1075 1396 1099 q 1388 1036 1389 1051 l 1388 1032 l 1388 1029 m 371 1032 q 389 1036 378 1032 q 411 1047 400 1040 q 431 1062 422 1054 q 439 1078 439 1069 l 439 1161 l 371 1161 l 371 1032 m 1122 1061 q 1126 1047 1122 1051 q 1140 1043 1129 1043 q 1156 1056 1146 1043 q 1175 1085 1165 1068 q 1192 1117 1185 1101 q 1200 1138 1200 1132 l 1199 1140 l 1192 1147 q 1190 1158 1192 1150 q 1189 1169 1189 1167 l 1129 1169 q 1128 1151 1129 1164 q 1126 1124 1126 1138 q 1124 1097 1125 1110 q 1122 1078 1122 1083 l 1122 1061 m 893 1211 q 897 1204 897 1211 q 893 1197 897 1197 q 888 1204 888 1197 q 893 1211 888 1211 m 1360 1211 q 1365 1204 1365 1211 q 1360 1197 1365 1197 q 1353 1204 1353 1197 q 1360 1211 1353 1211 m 642 1217 q 646 1210 646 1217 q 642 1204 646 1204 q 636 1210 636 1204 q 642 1217 636 1217 z "},"@":{"ha":897,"x_min":69,"x_max":828,"o":"m 221 151 l 221 176 l 296 176 l 297 151 l 347 151 l 347 176 l 422 176 l 424 151 l 474 151 l 474 176 l 549 176 l 550 151 l 600 151 l 600 176 l 675 176 l 676 151 l 701 151 l 701 0 l 196 0 l 196 151 l 221 151 m 94 1213 l 94 1236 l 169 1236 l 171 1213 l 196 1213 l 196 1363 l 221 1364 l 221 1389 l 296 1389 l 297 1364 l 347 1364 l 347 1389 l 422 1389 l 424 1364 l 474 1364 l 474 1389 l 549 1389 l 550 1364 l 600 1364 l 600 1389 l 675 1389 l 676 1364 l 701 1363 l 701 1213 l 196 1211 l 196 151 l 69 151 l 69 1211 l 94 1213 m 474 454 l 474 479 l 549 479 l 550 454 l 575 454 l 575 757 l 449 757 l 449 454 l 322 454 l 322 908 l 347 910 l 347 933 l 422 933 l 424 910 l 474 910 l 474 933 l 549 933 l 550 910 l 600 910 l 600 933 l 675 933 l 676 910 l 701 910 l 701 1211 l 726 1213 l 726 1236 l 803 1236 l 803 1213 l 828 1211 l 828 454 l 701 454 l 701 303 l 449 303 l 449 454 l 474 454 z "},"‘":{"ha":392,"x_min":69,"x_max":322,"o":"m 322 1088 l 322 785 l 297 785 l 297 760 l 222 760 l 221 785 l 171 785 l 171 760 l 96 760 l 94 785 l 69 785 l 69 1239 l 196 1239 l 196 1088 l 322 1088 z "},"’":{"ha":392,"x_min":69,"x_max":322,"o":"m 69 911 l 69 1214 l 94 1214 l 94 1239 l 169 1239 l 171 1214 l 221 1214 l 221 1239 l 296 1239 l 297 1214 l 322 1214 l 322 760 l 196 760 l 196 911 l 69 911 z "},"•":{"ha":392,"x_min":69,"x_max":322,"o":"m 94 758 l 94 783 l 169 783 l 171 758 l 221 758 l 221 783 l 296 783 l 297 758 l 322 758 l 322 456 l 69 456 l 69 758 l 94 758 z "},"–":{"ha":644,"x_min":69,"x_max":575,"o":"m 94 150 l 94 174 l 169 174 l 171 150 l 221 150 l 221 174 l 296 174 l 297 150 l 347 150 l 347 174 l 422 174 l 424 150 l 474 150 l 474 174 l 550 174 l 550 150 l 575 149 l 575 -1 l 69 -1 l 69 149 l 94 150 z "},"—":{"ha":897,"x_min":69,"x_max":828,"o":"m 94 153 l 94 176 l 169 176 l 171 153 l 221 153 l 221 176 l 296 176 l 297 153 l 347 153 l 347 176 l 422 176 l 424 153 l 474 153 l 474 176 l 549 176 l 550 153 l 600 153 l 600 176 l 675 176 l 676 153 l 726 153 l 726 176 l 803 176 l 803 153 l 828 151 l 828 0 l 69 0 l 69 151 l 94 153 z "},"˜":{"ha":897,"x_min":69,"x_max":828,"o":"m 94 910 l 94 933 l 169 933 l 171 910 l 196 908 l 196 758 l 221 758 l 221 782 l 296 782 l 297 758 l 322 758 l 322 908 l 347 910 l 347 933 l 422 933 l 424 910 l 449 910 l 449 1060 l 474 1061 l 474 1085 l 549 1085 l 550 1061 l 600 1061 l 600 1085 l 675 1085 l 676 1061 l 726 1061 l 726 1085 l 803 1085 l 803 1061 l 828 1060 l 828 758 l 701 758 l 701 908 l 575 908 l 575 758 l 449 757 l 449 606 l 69 606 l 69 908 l 94 910 z "},"¦":{"ha":392,"x_min":69,"x_max":322,"o":"m 94 606 l 94 631 l 169 631 l 171 606 l 221 606 l 221 631 l 296 631 l 297 606 l 322 606 l 322 0 l 69 0 l 69 606 l 94 606 m 94 1364 l 94 1389 l 169 1389 l 171 1364 l 221 1364 l 221 1389 l 296 1389 l 297 1364 l 322 1363 l 322 758 l 69 758 l 69 1363 l 94 1364 z "},"§":{"ha":644,"x_min":69,"x_max":575,"o":"m 94 151 l 94 176 l 169 176 l 171 151 l 221 151 l 221 176 l 296 176 l 297 151 l 347 151 l 347 176 l 422 176 l 424 151 l 449 151 l 449 303 l 474 303 l 474 328 l 549 328 l 550 303 l 575 303 l 575 0 l 69 0 l 69 151 l 94 151 m 221 454 l 221 479 l 296 479 l 297 454 l 347 454 l 347 479 l 422 479 l 424 454 l 449 454 l 449 908 l 474 910 l 474 933 l 549 933 l 550 910 l 575 908 l 575 454 l 449 454 l 449 303 l 196 303 l 196 454 l 221 454 m 94 910 l 94 933 l 169 933 l 171 910 l 196 910 l 196 1060 l 221 1061 l 221 1085 l 296 1085 l 297 1061 l 347 1061 l 347 1085 l 422 1085 l 424 1061 l 449 1060 l 449 910 l 196 908 l 196 454 l 69 454 l 69 908 l 94 910 m 94 1364 l 94 1389 l 169 1389 l 171 1364 l 221 1364 l 221 1389 l 296 1389 l 297 1364 l 347 1364 l 347 1389 l 422 1389 l 424 1364 l 474 1364 l 474 1389 l 549 1389 l 550 1364 l 575 1363 l 575 1213 l 196 1211 l 196 1061 l 69 1061 l 69 1363 l 94 1364 z "},"¨":{"ha":807,"x_min":44,"x_max":807,"o":"m 69 1363 l 69 1388 l 144 1388 l 146 1363 l 196 1363 l 196 1388 l 271 1388 l 272 1363 l 297 1363 l 297 1211 l 44 1211 l 44 1363 l 69 1363 m 579 1363 l 579 1388 l 654 1388 l 656 1363 l 706 1363 l 706 1388 l 781 1388 l 782 1363 l 807 1363 l 807 1211 l 554 1211 l 554 1363 l 579 1363 z "},"`":{"ha":644,"x_min":69,"x_max":575,"o":"m 575 1210 l 575 1060 l 322 1060 l 322 1210 l 196 1211 l 196 1361 l 69 1363 l 69 1513 l 94 1514 l 96 1539 l 171 1539 l 171 1514 l 221 1514 l 222 1539 l 297 1539 l 297 1514 l 322 1513 l 322 1363 l 347 1363 l 349 1386 l 424 1386 l 424 1363 l 449 1361 l 449 1211 l 474 1211 l 475 1235 l 550 1235 l 550 1211 l 575 1210 z "},"[":{"ha":644,"x_min":69,"x_max":575,"o":"m 94 1364 l 94 1389 l 169 1389 l 171 1364 l 221 1364 l 221 1389 l 296 1389 l 297 1364 l 347 1364 l 347 1389 l 422 1389 l 424 1364 l 474 1364 l 474 1389 l 550 1389 l 550 1364 l 575 1363 l 575 1213 l 322 1211 l 322 151 l 347 151 l 347 176 l 422 176 l 424 151 l 474 151 l 474 176 l 550 176 l 550 151 l 575 151 l 575 0 l 69 0 l 69 1363 l 94 1364 z "},"\\":{"ha":897,"x_min":69,"x_max":828,"o":"m 828 151 l 828 0 l 575 0 l 575 303 l 449 303 l 449 454 l 322 454 l 322 757 l 196 758 l 196 1060 l 69 1061 l 69 1363 l 94 1364 l 94 1389 l 171 1389 l 171 1364 l 196 1363 l 196 1213 l 221 1213 l 222 1236 l 297 1236 l 297 1213 l 322 1211 l 322 910 l 347 910 l 349 933 l 424 933 l 424 910 l 449 908 l 449 606 l 474 606 l 475 631 l 550 631 l 550 606 l 575 606 l 575 454 l 600 454 l 601 479 l 676 479 l 676 454 l 701 454 l 701 151 l 726 151 l 728 176 l 803 176 l 803 151 l 828 151 z "},"]":{"ha":644,"x_min":69,"x_max":575,"o":"m 575 1363 l 575 0 l 69 0 l 69 151 l 94 151 l 94 176 l 171 176 l 171 151 l 221 151 l 222 176 l 297 176 l 297 151 l 322 151 l 322 1211 l 69 1213 l 69 1363 l 94 1364 l 94 1389 l 171 1389 l 171 1364 l 221 1364 l 222 1389 l 297 1389 l 297 1364 l 347 1364 l 349 1389 l 424 1389 l 424 1364 l 474 1364 l 475 1389 l 550 1389 l 550 1364 l 575 1363 z "},"_":{"ha":758,"x_min":0,"x_max":758,"o":"m 25 -153 l 25 -129 l 100 -129 l 101 -153 l 151 -153 l 151 -129 l 226 -129 l 228 -153 l 278 -153 l 278 -129 l 353 -129 l 354 -153 l 404 -153 l 404 -129 l 479 -129 l 481 -153 l 531 -153 l 531 -129 l 606 -129 l 607 -153 l 657 -153 l 657 -129 l 733 -129 l 733 -153 l 758 -154 l 758 -306 l 0 -306 l 0 -154 l 25 -153 z "},"{":{"ha":897,"x_min":69,"x_max":828,"o":"m 322 151 l 322 303 l 196 303 l 196 606 l 69 606 l 69 757 l 94 758 l 94 782 l 169 782 l 171 758 l 196 758 l 196 1060 l 221 1061 l 221 1085 l 296 1085 l 297 1061 l 322 1061 l 322 1211 l 347 1213 l 347 1236 l 422 1236 l 424 1213 l 449 1213 l 449 1363 l 474 1364 l 474 1389 l 549 1389 l 550 1364 l 600 1364 l 600 1389 l 675 1389 l 676 1364 l 726 1364 l 726 1389 l 803 1389 l 803 1364 l 828 1363 l 828 1213 l 575 1211 l 575 1061 l 449 1060 l 449 910 l 322 908 l 322 454 l 347 454 l 347 479 l 422 479 l 424 454 l 449 454 l 449 303 l 474 303 l 474 328 l 549 328 l 550 303 l 575 303 l 575 151 l 600 151 l 600 176 l 675 176 l 676 151 l 726 151 l 726 176 l 803 176 l 803 151 l 828 151 l 828 0 l 449 0 l 449 151 l 322 151 z "},"|":{"ha":392,"x_min":69,"x_max":322,"o":"m 94 1364 l 94 1389 l 171 1389 l 171 1364 l 221 1364 l 221 1389 l 297 1389 l 297 1364 l 322 1364 l 322 0 l 69 0 l 69 1364 l 94 1364 z "},"}":{"ha":897,"x_min":69,"x_max":828,"o":"m 449 151 l 449 0 l 69 0 l 69 151 l 94 151 l 94 176 l 171 176 l 171 151 l 221 151 l 222 176 l 297 176 l 297 151 l 322 151 l 322 303 l 347 303 l 349 328 l 424 328 l 424 303 l 449 303 l 449 454 l 474 454 l 475 479 l 550 479 l 550 454 l 575 454 l 575 908 l 449 910 l 449 1060 l 322 1061 l 322 1211 l 69 1213 l 69 1363 l 94 1364 l 94 1389 l 171 1389 l 171 1364 l 221 1364 l 222 1389 l 297 1389 l 297 1364 l 347 1364 l 349 1389 l 424 1389 l 424 1364 l 449 1363 l 449 1213 l 474 1213 l 475 1236 l 550 1236 l 550 1213 l 575 1211 l 575 1061 l 600 1061 l 601 1085 l 676 1085 l 676 1061 l 701 1060 l 701 758 l 726 758 l 728 782 l 803 782 l 803 758 l 828 757 l 828 606 l 701 606 l 701 303 l 575 303 l 575 151 l 449 151 z "},"g":{"ha":897,"x_min":69,"x_max":828,"o":"m 221 -301 l 221 -276 l 296 -276 l 297 -301 l 347 -301 l 347 -276 l 422 -276 l 424 -301 l 474 -301 l 474 -276 l 549 -276 l 550 -301 l 600 -301 l 600 -276 l 675 -276 l 676 -301 l 701 -301 l 701 1 l 726 1 l 726 26 l 803 26 l 803 1 l 828 1 l 828 -301 l 701 -301 l 701 -453 l 196 -453 l 196 -301 l 221 -301 m 94 1 l 94 26 l 169 26 l 171 1 l 196 1 l 196 153 l 221 153 l 221 178 l 296 178 l 297 153 l 347 153 l 347 178 l 422 178 l 424 153 l 449 153 l 449 304 l 196 306 l 196 456 l 221 457 l 221 481 l 296 481 l 297 457 l 347 457 l 347 481 l 422 481 l 424 457 l 474 457 l 474 481 l 549 481 l 550 457 l 575 457 l 575 758 l 600 760 l 600 783 l 675 783 l 676 760 l 726 760 l 726 783 l 803 783 l 803 760 l 828 758 l 828 608 l 701 607 l 701 306 l 575 304 l 575 153 l 600 153 l 600 178 l 675 178 l 676 153 l 701 153 l 701 1 l 322 1 l 322 -150 l 196 -150 l 196 -301 l 69 -301 l 69 1 l 94 1 m 94 760 l 94 783 l 169 783 l 171 760 l 196 760 l 196 910 l 221 911 l 221 936 l 296 936 l 297 911 l 347 911 l 347 936 l 422 936 l 424 911 l 474 911 l 474 936 l 549 936 l 550 911 l 575 910 l 575 760 l 322 758 l 322 608 l 196 607 l 196 457 l 69 457 l 69 758 l 94 760 z "},"i":{"ha":518,"x_min":69,"x_max":449,"o":"m 94 151 l 94 176 l 169 176 l 171 151 l 196 151 l 196 757 l 69 758 l 69 908 l 94 910 l 94 933 l 169 933 l 171 910 l 221 910 l 221 933 l 296 933 l 297 910 l 322 908 l 322 151 l 347 151 l 347 176 l 422 176 l 424 151 l 449 151 l 449 0 l 69 0 l 69 151 l 94 151 m 221 1211 l 221 1235 l 296 1235 l 297 1211 l 322 1210 l 322 1060 l 196 1060 l 196 1210 l 221 1211 z "},"j":{"ha":644,"x_min":69,"x_max":575,"o":"m 94 -1 l 94 24 l 169 24 l 171 -1 l 221 -1 l 221 24 l 296 24 l 297 -1 l 322 -1 l 322 150 l 347 150 l 347 175 l 422 175 l 424 150 l 449 150 l 449 756 l 322 757 l 322 907 l 347 908 l 347 932 l 422 932 l 424 908 l 474 908 l 474 932 l 549 932 l 550 908 l 575 907 l 575 -1 l 449 -1 l 449 -153 l 69 -153 l 69 -1 l 94 -1 m 474 1211 l 474 1236 l 549 1236 l 550 1211 l 575 1210 l 575 1060 l 449 1060 l 449 1210 l 474 1211 z "},"k":{"ha":897,"x_min":69,"x_max":828,"o":"m 94 1213 l 94 1236 l 169 1236 l 171 1213 l 196 1211 l 196 606 l 221 606 l 221 631 l 296 631 l 297 606 l 322 606 l 322 757 l 347 758 l 347 782 l 422 782 l 424 758 l 449 758 l 449 908 l 474 910 l 474 933 l 549 933 l 550 910 l 575 910 l 575 1060 l 600 1061 l 600 1085 l 675 1085 l 676 1061 l 701 1060 l 701 758 l 575 757 l 575 454 l 600 454 l 600 479 l 675 479 l 676 454 l 701 454 l 701 303 l 726 303 l 726 328 l 803 328 l 803 303 l 828 303 l 828 0 l 701 0 l 701 151 l 575 151 l 575 303 l 449 303 l 449 454 l 196 454 l 196 0 l 69 0 l 69 1211 l 94 1213 z "},"l":{"ha":897,"x_min":69,"x_max":828,"o":"m 196 151 l 196 1211 l 69 1213 l 69 1363 l 94 1364 l 94 1389 l 169 1389 l 171 1364 l 221 1364 l 221 1389 l 296 1389 l 297 1364 l 322 1363 l 322 303 l 347 303 l 347 328 l 422 328 l 424 303 l 449 303 l 449 151 l 474 151 l 474 176 l 549 176 l 550 151 l 600 151 l 600 176 l 675 176 l 676 151 l 726 151 l 726 176 l 803 176 l 803 151 l 828 151 l 828 0 l 322 0 l 322 151 l 196 151 z "},"m":{"ha":897,"x_min":69,"x_max":828,"o":"m 94 910 l 94 933 l 169 933 l 171 910 l 221 910 l 221 933 l 296 933 l 297 910 l 322 908 l 322 758 l 347 758 l 347 782 l 422 782 l 424 758 l 449 758 l 449 908 l 474 910 l 474 933 l 549 933 l 550 910 l 600 910 l 600 933 l 675 933 l 676 910 l 701 908 l 701 758 l 726 758 l 726 782 l 803 782 l 803 758 l 828 757 l 828 0 l 701 0 l 701 606 l 575 606 l 575 303 l 322 303 l 322 606 l 196 606 l 196 0 l 69 0 l 69 908 l 94 910 z "},"x":{"ha":897,"x_min":69,"x_max":828,"o":"m 94 300 l 94 325 l 169 325 l 171 300 l 221 300 l 221 325 l 296 325 l 297 300 l 322 300 l 322 603 l 347 604 l 347 628 l 422 628 l 424 604 l 474 604 l 474 628 l 549 628 l 550 604 l 575 604 l 575 754 l 600 756 l 600 779 l 675 779 l 676 756 l 701 756 l 701 906 l 726 907 l 726 931 l 803 931 l 803 907 l 828 906 l 828 604 l 575 603 l 575 300 l 322 300 l 322 149 l 196 149 l 196 -3 l 69 -3 l 69 300 l 94 300 m 575 149 l 575 300 l 600 300 l 600 325 l 675 325 l 676 300 l 726 300 l 726 325 l 803 325 l 803 300 l 828 300 l 828 -3 l 701 -3 l 701 149 l 575 149 m 94 907 l 94 931 l 169 931 l 171 907 l 196 906 l 196 756 l 221 756 l 221 779 l 296 779 l 297 756 l 322 754 l 322 604 l 69 604 l 69 906 l 94 907 z "},"y":{"ha":897,"x_min":69,"x_max":828,"o":"m 221 -301 l 221 -276 l 296 -276 l 297 -301 l 347 -301 l 347 -276 l 422 -276 l 424 -301 l 474 -301 l 474 -276 l 549 -276 l 550 -301 l 575 -301 l 575 1 l 322 1 l 322 153 l 347 153 l 347 178 l 422 178 l 424 153 l 474 153 l 474 178 l 549 178 l 550 153 l 575 153 l 575 456 l 600 457 l 600 481 l 675 481 l 676 457 l 701 457 l 701 910 l 726 911 l 726 936 l 803 936 l 803 911 l 828 910 l 828 457 l 701 456 l 701 -301 l 575 -301 l 575 -453 l 196 -453 l 196 -301 l 221 -301 m 221 457 l 221 481 l 296 481 l 297 457 l 322 456 l 322 153 l 196 153 l 196 456 l 221 457 m 94 911 l 94 936 l 169 936 l 171 911 l 196 910 l 196 457 l 69 457 l 69 910 l 94 911 z "},"B":{"ha":897,"x_min":69,"x_max":828,"o":"m 94 1364 l 94 1389 l 169 1389 l 169 1364 l 221 1364 l 221 1389 l 296 1389 l 296 1364 l 347 1364 l 347 1389 l 424 1389 l 424 1364 l 474 1364 l 474 1389 l 550 1389 l 550 1364 l 600 1364 l 600 1389 l 676 1389 l 676 1364 l 701 1364 l 701 1213 l 726 1213 l 726 1236 l 803 1236 l 803 1213 l 828 1213 l 828 757 l 701 757 l 701 606 l 726 606 l 726 631 l 803 631 l 803 606 l 828 606 l 828 151 l 701 151 l 701 0 l 69 0 l 69 1364 l 94 1364 m 322 151 l 347 151 l 347 176 l 424 176 l 424 151 l 474 151 l 474 176 l 550 176 l 550 151 l 575 151 l 575 606 l 322 606 l 322 151 m 322 758 l 347 758 l 347 782 l 424 782 l 424 758 l 474 758 l 474 782 l 550 782 l 550 758 l 575 758 l 575 1211 l 322 1211 l 322 758 z "},"C":{"ha":897,"x_min":69,"x_max":828,"o":"m 69 151 l 69 1213 l 94 1213 l 94 1236 l 169 1236 l 169 1213 l 196 1213 l 196 1364 l 221 1364 l 221 1389 l 296 1389 l 296 1364 l 347 1364 l 347 1389 l 424 1389 l 424 1364 l 474 1364 l 474 1389 l 550 1389 l 550 1364 l 600 1364 l 600 1389 l 676 1389 l 676 1364 l 701 1364 l 701 1213 l 726 1213 l 726 1236 l 803 1236 l 803 1213 l 828 1213 l 828 910 l 575 910 l 575 1211 l 322 1211 l 322 151 l 347 151 l 347 176 l 424 176 l 424 151 l 474 151 l 474 176 l 550 176 l 550 151 l 575 151 l 575 454 l 600 454 l 600 479 l 676 479 l 676 454 l 726 454 l 726 479 l 803 479 l 803 454 l 828 454 l 828 151 l 701 151 l 701 0 l 196 0 l 196 151 l 69 151 z "},"D":{"ha":897,"x_min":69,"x_max":828,"o":"m 94 1364 l 94 1389 l 169 1389 l 169 1364 l 221 1364 l 221 1389 l 296 1389 l 296 1364 l 347 1364 l 347 1389 l 424 1389 l 424 1364 l 474 1364 l 474 1389 l 550 1389 l 550 1364 l 575 1364 l 575 1213 l 600 1213 l 600 1236 l 676 1236 l 676 1213 l 701 1213 l 701 1061 l 726 1061 l 726 1085 l 803 1085 l 803 1061 l 828 1061 l 828 303 l 701 303 l 701 151 l 575 151 l 575 0 l 69 0 l 69 1364 l 94 1364 m 322 151 l 347 151 l 347 176 l 424 176 l 424 151 l 449 151 l 449 303 l 474 303 l 474 328 l 550 328 l 550 303 l 575 303 l 575 1061 l 449 1061 l 449 1211 l 322 1211 l 322 151 z "},"E":{"ha":897,"x_min":69,"x_max":828,"o":"m 94 1364 l 94 1389 l 169 1389 l 169 1364 l 221 1364 l 221 1389 l 296 1389 l 296 1364 l 347 1364 l 347 1389 l 424 1389 l 424 1364 l 474 1364 l 474 1389 l 550 1389 l 550 1364 l 600 1364 l 600 1389 l 676 1389 l 676 1364 l 726 1364 l 726 1389 l 803 1389 l 803 1364 l 828 1364 l 828 1213 l 322 1213 l 322 758 l 347 758 l 347 782 l 424 782 l 424 758 l 474 758 l 474 782 l 550 782 l 550 758 l 600 758 l 600 782 l 676 782 l 676 757 l 701 757 l 701 606 l 322 606 l 322 151 l 347 151 l 347 176 l 424 176 l 424 151 l 474 151 l 474 176 l 550 176 l 550 151 l 600 151 l 600 176 l 676 176 l 676 151 l 726 151 l 726 176 l 803 176 l 803 151 l 828 151 l 828 0 l 69 0 l 69 1364 l 94 1364 z "},"F":{"ha":897,"x_min":69,"x_max":828,"o":"m 94 1364 l 94 1389 l 169 1389 l 169 1364 l 221 1364 l 221 1389 l 296 1389 l 296 1364 l 347 1364 l 347 1389 l 424 1389 l 424 1364 l 474 1364 l 474 1389 l 550 1389 l 550 1364 l 600 1364 l 600 1389 l 676 1389 l 676 1364 l 726 1364 l 726 1389 l 803 1389 l 803 1364 l 828 1364 l 828 1213 l 322 1213 l 322 758 l 347 758 l 347 782 l 424 782 l 424 758 l 474 758 l 474 782 l 550 782 l 550 758 l 600 758 l 600 782 l 676 782 l 676 757 l 701 757 l 701 606 l 322 606 l 322 0 l 69 0 l 69 1364 l 94 1364 z "},"G":{"ha":897,"x_min":69,"x_max":828,"o":"m 69 151 l 69 1213 l 94 1213 l 94 1236 l 169 1236 l 169 1213 l 196 1213 l 196 1364 l 221 1364 l 221 1389 l 296 1389 l 296 1364 l 347 1364 l 347 1389 l 424 1389 l 424 1364 l 474 1364 l 474 1389 l 550 1389 l 550 1364 l 600 1364 l 600 1389 l 676 1389 l 676 1364 l 701 1364 l 701 1213 l 726 1213 l 726 1236 l 803 1236 l 803 1213 l 828 1213 l 828 910 l 575 910 l 575 1211 l 322 1211 l 322 151 l 347 151 l 347 176 l 424 176 l 424 151 l 474 151 l 474 176 l 550 176 l 550 151 l 575 151 l 575 454 l 449 454 l 449 606 l 474 606 l 474 631 l 550 631 l 550 606 l 600 606 l 600 631 l 676 631 l 676 606 l 726 606 l 726 631 l 803 631 l 803 606 l 828 606 l 828 0 l 196 0 l 196 151 l 69 151 z "},"H":{"ha":897,"x_min":69,"x_max":828,"o":"m 94 1364 l 94 1389 l 169 1389 l 169 1364 l 221 1364 l 221 1389 l 296 1389 l 296 1364 l 322 1364 l 322 758 l 347 758 l 347 782 l 424 782 l 424 758 l 474 758 l 474 782 l 550 782 l 550 758 l 575 758 l 575 1364 l 600 1364 l 600 1389 l 676 1389 l 676 1364 l 726 1364 l 726 1389 l 803 1389 l 803 1364 l 828 1364 l 828 0 l 575 0 l 575 606 l 322 606 l 322 0 l 69 0 l 69 1364 l 94 1364 z "},"J":{"ha":897,"x_min":69,"x_max":828,"o":"m 69 151 l 69 454 l 94 454 l 94 479 l 169 479 l 169 454 l 221 454 l 221 479 l 296 479 l 296 454 l 322 454 l 322 151 l 347 151 l 347 176 l 424 176 l 424 151 l 474 151 l 474 176 l 550 176 l 550 151 l 575 151 l 575 1364 l 600 1364 l 600 1389 l 676 1389 l 676 1364 l 726 1364 l 726 1389 l 803 1389 l 803 1364 l 828 1364 l 828 151 l 701 151 l 701 0 l 196 0 l 196 151 l 69 151 z "},"K":{"ha":897,"x_min":69,"x_max":828,"o":"m 94 1364 l 94 1389 l 169 1389 l 169 1364 l 221 1364 l 221 1389 l 296 1389 l 296 1364 l 322 1364 l 322 758 l 347 758 l 347 782 l 424 782 l 424 758 l 449 758 l 449 1061 l 474 1061 l 474 1085 l 550 1085 l 550 1061 l 575 1061 l 575 1364 l 600 1364 l 600 1389 l 676 1389 l 676 1364 l 726 1364 l 726 1389 l 803 1389 l 803 1364 l 828 1364 l 828 1061 l 701 1061 l 701 757 l 575 757 l 575 606 l 600 606 l 600 631 l 676 631 l 676 606 l 701 606 l 701 303 l 726 303 l 726 328 l 803 328 l 803 303 l 828 303 l 828 0 l 575 0 l 575 303 l 449 303 l 449 606 l 322 606 l 322 0 l 69 0 l 69 1364 l 94 1364 z "},"L":{"ha":897,"x_min":69,"x_max":828,"o":"m 94 1364 l 94 1389 l 169 1389 l 169 1364 l 221 1364 l 221 1389 l 296 1389 l 296 1364 l 322 1364 l 322 151 l 347 151 l 347 176 l 424 176 l 424 151 l 474 151 l 474 176 l 550 176 l 550 151 l 600 151 l 600 176 l 676 176 l 676 151 l 726 151 l 726 176 l 803 176 l 803 151 l 828 151 l 828 0 l 69 0 l 69 1364 l 94 1364 z "},"M":{"ha":897,"x_min":69,"x_max":828,"o":"m 94 1364 l 94 1389 l 169 1389 l 169 1364 l 196 1364 l 196 1213 l 221 1213 l 221 1236 l 296 1236 l 296 1213 l 322 1213 l 322 910 l 347 910 l 347 933 l 424 933 l 424 910 l 474 910 l 474 933 l 550 933 l 550 910 l 575 910 l 575 1213 l 600 1213 l 600 1236 l 676 1236 l 676 1213 l 701 1213 l 701 1364 l 726 1364 l 726 1389 l 803 1389 l 803 1364 l 828 1364 l 828 0 l 701 0 l 701 757 l 575 757 l 575 303 l 322 303 l 322 757 l 196 757 l 196 0 l 69 0 l 69 1364 l 94 1364 z "},"N":{"ha":897,"x_min":69,"x_max":828,"o":"m 94 1364 l 94 1389 l 169 1389 l 169 1364 l 221 1364 l 221 1389 l 296 1389 l 296 1364 l 322 1364 l 322 1061 l 347 1061 l 347 1085 l 424 1085 l 424 1061 l 449 1061 l 449 910 l 474 910 l 474 933 l 550 933 l 550 908 l 575 908 l 575 758 l 600 758 l 600 782 l 676 782 l 676 758 l 701 758 l 701 1364 l 726 1364 l 726 1389 l 803 1389 l 803 1364 l 828 1364 l 828 0 l 701 0 l 701 454 l 575 454 l 575 606 l 449 606 l 449 757 l 322 757 l 322 0 l 69 0 l 69 1364 l 94 1364 z "},"O":{"ha":897,"x_min":69,"x_max":828,"o":"m 69 151 l 69 1213 l 94 1213 l 94 1236 l 169 1236 l 169 1213 l 196 1213 l 196 1364 l 221 1364 l 221 1389 l 296 1389 l 296 1364 l 347 1364 l 347 1389 l 424 1389 l 424 1364 l 474 1364 l 474 1389 l 550 1389 l 550 1364 l 600 1364 l 600 1389 l 676 1389 l 676 1364 l 701 1364 l 701 1213 l 726 1213 l 726 1236 l 803 1236 l 803 1213 l 828 1213 l 828 151 l 701 151 l 701 0 l 196 0 l 196 151 l 69 151 m 322 151 l 347 151 l 347 176 l 424 176 l 424 151 l 474 151 l 474 176 l 550 176 l 550 151 l 575 151 l 575 1211 l 322 1211 l 322 151 z "},"P":{"ha":897,"x_min":69,"x_max":828,"o":"m 94 1364 l 94 1389 l 169 1389 l 169 1364 l 221 1364 l 221 1389 l 296 1389 l 296 1364 l 347 1364 l 347 1389 l 424 1389 l 424 1364 l 474 1364 l 474 1389 l 550 1389 l 550 1364 l 600 1364 l 600 1389 l 676 1389 l 676 1364 l 701 1364 l 701 1213 l 726 1213 l 726 1236 l 803 1236 l 803 1213 l 828 1213 l 828 757 l 701 757 l 701 606 l 322 606 l 322 0 l 69 0 l 69 1364 l 94 1364 m 322 758 l 347 758 l 347 782 l 424 782 l 424 758 l 474 758 l 474 782 l 550 782 l 550 758 l 575 758 l 575 1211 l 322 1211 l 322 758 z "},"Q":{"ha":897,"x_min":69,"x_max":828,"o":"m 69 151 l 69 1213 l 94 1213 l 94 1236 l 169 1236 l 169 1213 l 196 1213 l 196 1364 l 221 1364 l 221 1389 l 296 1389 l 296 1364 l 347 1364 l 347 1389 l 424 1389 l 424 1364 l 474 1364 l 474 1389 l 550 1389 l 550 1364 l 600 1364 l 600 1389 l 676 1389 l 676 1364 l 701 1364 l 701 1213 l 726 1213 l 726 1236 l 803 1236 l 803 1213 l 828 1213 l 828 303 l 701 303 l 701 151 l 726 151 l 726 176 l 803 176 l 803 151 l 828 151 l 828 0 l 196 0 l 196 151 l 69 151 m 322 151 l 347 151 l 347 176 l 424 176 l 424 151 l 449 151 l 449 303 l 474 303 l 474 328 l 550 328 l 550 303 l 575 303 l 575 1211 l 322 1211 l 322 151 z "},"R":{"ha":897,"x_min":69,"x_max":828,"o":"m 94 1364 l 94 1389 l 169 1389 l 171 1364 l 221 1364 l 221 1389 l 296 1389 l 297 1364 l 347 1364 l 347 1389 l 422 1389 l 424 1364 l 474 1364 l 474 1389 l 549 1389 l 550 1364 l 600 1364 l 600 1389 l 675 1389 l 676 1364 l 701 1363 l 701 1213 l 726 1213 l 726 1236 l 803 1236 l 803 1213 l 828 1211 l 828 758 l 701 757 l 701 454 l 726 454 l 726 479 l 803 479 l 803 454 l 828 454 l 828 0 l 575 0 l 575 454 l 449 454 l 449 606 l 322 606 l 322 0 l 69 0 l 69 1363 l 94 1364 m 322 758 l 347 758 l 347 782 l 422 782 l 424 758 l 474 758 l 474 782 l 549 782 l 550 758 l 575 758 l 575 1211 l 322 1211 l 322 758 z "},"S":{"ha":897,"x_min":69,"x_max":828,"o":"m 69 151 l 69 303 l 94 303 l 94 328 l 169 328 l 171 303 l 221 303 l 221 328 l 296 328 l 297 303 l 322 303 l 322 151 l 347 151 l 347 176 l 422 176 l 424 151 l 474 151 l 474 176 l 549 176 l 550 151 l 575 151 l 575 454 l 449 454 l 449 606 l 322 606 l 322 757 l 196 758 l 196 908 l 69 910 l 69 1211 l 94 1213 l 94 1236 l 169 1236 l 171 1213 l 196 1213 l 196 1363 l 221 1364 l 221 1389 l 296 1389 l 297 1364 l 347 1364 l 347 1389 l 422 1389 l 424 1364 l 474 1364 l 474 1389 l 549 1389 l 550 1364 l 600 1364 l 600 1389 l 675 1389 l 676 1364 l 701 1363 l 701 1213 l 726 1213 l 726 1236 l 803 1236 l 803 1213 l 828 1211 l 828 1061 l 575 1061 l 575 1211 l 322 1211 l 322 910 l 347 910 l 347 933 l 422 933 l 424 910 l 449 908 l 449 758 l 474 758 l 474 782 l 549 782 l 550 758 l 575 757 l 575 606 l 600 606 l 600 631 l 675 631 l 676 606 l 701 606 l 701 454 l 726 454 l 726 479 l 803 479 l 803 454 l 828 454 l 828 151 l 701 151 l 701 0 l 196 0 l 196 151 l 69 151 z "},"T":{"ha":897,"x_min":69,"x_max":828,"o":"m 69 1213 l 69 1363 l 94 1364 l 94 1389 l 169 1389 l 171 1364 l 221 1364 l 221 1389 l 296 1389 l 297 1364 l 347 1364 l 347 1389 l 422 1389 l 424 1364 l 474 1364 l 474 1389 l 549 1389 l 550 1364 l 600 1364 l 600 1389 l 675 1389 l 676 1364 l 726 1364 l 726 1389 l 803 1389 l 803 1364 l 828 1363 l 828 1213 l 575 1211 l 575 0 l 322 0 l 322 1211 l 69 1213 z "},"U":{"ha":897,"x_min":69,"x_max":828,"o":"m 69 151 l 69 1363 l 94 1364 l 94 1389 l 169 1389 l 171 1364 l 221 1364 l 221 1389 l 296 1389 l 297 1364 l 322 1363 l 322 151 l 347 151 l 347 176 l 422 176 l 424 151 l 474 151 l 474 176 l 549 176 l 550 151 l 575 151 l 575 1363 l 600 1364 l 600 1389 l 675 1389 l 676 1364 l 726 1364 l 726 1389 l 803 1389 l 803 1364 l 828 1363 l 828 151 l 701 151 l 701 0 l 196 0 l 196 151 l 69 151 z "},"V":{"ha":897,"x_min":69,"x_max":828,"o":"m 196 151 l 196 303 l 69 303 l 69 1363 l 94 1364 l 94 1389 l 169 1389 l 171 1364 l 221 1364 l 221 1389 l 296 1389 l 297 1364 l 322 1363 l 322 303 l 347 303 l 347 328 l 422 328 l 424 303 l 474 303 l 474 328 l 549 328 l 550 303 l 575 303 l 575 1363 l 600 1364 l 600 1389 l 675 1389 l 676 1364 l 726 1364 l 726 1389 l 803 1389 l 803 1364 l 828 1363 l 828 303 l 701 303 l 701 151 l 575 151 l 575 0 l 322 0 l 322 151 l 196 151 z "},"W":{"ha":897,"x_min":69,"x_max":828,"o":"m 69 151 l 69 1363 l 94 1364 l 94 1389 l 169 1389 l 171 1364 l 196 1363 l 196 454 l 221 454 l 221 479 l 296 479 l 297 454 l 322 454 l 322 908 l 347 910 l 347 933 l 422 933 l 424 910 l 474 910 l 474 933 l 549 933 l 550 910 l 575 908 l 575 454 l 600 454 l 600 479 l 675 479 l 676 454 l 701 454 l 701 1363 l 726 1364 l 726 1389 l 803 1389 l 803 1364 l 828 1363 l 828 151 l 701 151 l 701 0 l 575 0 l 575 151 l 322 151 l 322 0 l 196 0 l 196 151 l 69 151 z "},"X":{"ha":897,"x_min":69,"x_max":828,"o":"m 94 454 l 94 479 l 169 479 l 171 454 l 196 454 l 196 606 l 221 606 l 221 631 l 296 631 l 297 606 l 322 606 l 322 908 l 196 910 l 196 1060 l 69 1061 l 69 1363 l 94 1364 l 94 1389 l 169 1389 l 171 1364 l 221 1364 l 221 1389 l 296 1389 l 297 1364 l 322 1363 l 322 1061 l 347 1061 l 347 1085 l 422 1085 l 424 1061 l 474 1061 l 474 1085 l 549 1085 l 550 1061 l 575 1061 l 575 1363 l 600 1364 l 600 1389 l 675 1389 l 676 1364 l 726 1364 l 726 1389 l 803 1389 l 803 1364 l 828 1363 l 828 1061 l 701 1060 l 701 910 l 575 908 l 575 606 l 600 606 l 600 631 l 675 631 l 676 606 l 701 606 l 701 454 l 726 454 l 726 479 l 803 479 l 803 454 l 828 454 l 828 0 l 575 0 l 575 454 l 322 454 l 322 0 l 69 0 l 69 454 l 94 454 z "},"Y":{"ha":897,"x_min":69,"x_max":828,"o":"m 196 606 l 196 757 l 69 758 l 69 1363 l 94 1364 l 94 1389 l 169 1389 l 171 1364 l 221 1364 l 221 1389 l 296 1389 l 297 1364 l 322 1363 l 322 758 l 347 758 l 347 782 l 422 782 l 424 758 l 474 758 l 474 782 l 549 782 l 550 758 l 575 758 l 575 1363 l 600 1364 l 600 1389 l 675 1389 l 676 1364 l 726 1364 l 726 1389 l 803 1389 l 803 1364 l 828 1363 l 828 758 l 701 757 l 701 606 l 575 606 l 575 0 l 322 0 l 322 606 l 196 606 z "},"Z":{"ha":897,"x_min":69,"x_max":828,"o":"m 94 454 l 94 479 l 169 479 l 171 454 l 196 454 l 196 606 l 221 606 l 221 631 l 296 631 l 297 606 l 322 606 l 322 757 l 347 758 l 347 782 l 422 782 l 424 758 l 449 758 l 449 908 l 474 910 l 474 933 l 549 933 l 550 910 l 575 910 l 575 1211 l 69 1213 l 69 1363 l 94 1364 l 94 1389 l 169 1389 l 171 1364 l 221 1364 l 221 1389 l 296 1389 l 297 1364 l 347 1364 l 347 1389 l 422 1389 l 424 1364 l 474 1364 l 474 1389 l 549 1389 l 550 1364 l 600 1364 l 600 1389 l 675 1389 l 676 1364 l 726 1364 l 726 1389 l 803 1389 l 803 1364 l 828 1363 l 828 910 l 701 908 l 701 758 l 575 757 l 575 606 l 449 606 l 449 454 l 322 454 l 322 151 l 347 151 l 347 176 l 422 176 l 424 151 l 474 151 l 474 176 l 549 176 l 550 151 l 600 151 l 600 176 l 675 176 l 676 151 l 726 151 l 726 176 l 803 176 l 803 151 l 828 151 l 828 0 l 69 0 l 69 454 l 94 454 z "}," ":{"ha":904,"x_min":0,"x_max":0,"o":""},"f":{"ha":897,"x_min":69,"x_max":828,"o":"m 69 606 l 69 757 l 94 758 l 94 782 l 169 782 l 171 758 l 221 758 l 221 782 l 296 782 l 297 758 l 322 758 l 322 1211 l 347 1213 l 347 1236 l 422 1236 l 424 1213 l 449 1213 l 449 1363 l 474 1364 l 474 1389 l 549 1389 l 550 1364 l 600 1364 l 600 1389 l 675 1389 l 676 1364 l 726 1364 l 726 1389 l 803 1389 l 803 1364 l 828 1363 l 828 1213 l 575 1211 l 575 1061 l 449 1060 l 449 758 l 474 758 l 474 782 l 549 782 l 550 758 l 600 758 l 600 782 l 675 782 l 676 758 l 701 757 l 701 606 l 449 606 l 449 0 l 322 0 l 322 606 l 69 606 z "},"A":{"ha":897,"x_min":69,"x_max":828,"o":"m 94 1061 l 94 1085 l 169 1085 l 169 1061 l 196 1061 l 196 1213 l 221 1213 l 221 1236 l 296 1236 l 296 1213 l 322 1213 l 322 1364 l 347 1364 l 347 1389 l 424 1389 l 424 1364 l 474 1364 l 474 1389 l 550 1389 l 550 1364 l 575 1364 l 575 1213 l 600 1213 l 600 1236 l 676 1236 l 676 1213 l 701 1213 l 701 1061 l 726 1061 l 726 1085 l 803 1085 l 803 1061 l 828 1061 l 828 0 l 575 0 l 575 454 l 322 454 l 322 0 l 69 0 l 69 1061 l 94 1061 m 322 606 l 347 606 l 347 631 l 424 631 l 424 606 l 474 606 l 474 631 l 550 631 l 550 606 l 575 606 l 575 1060 l 322 1060 l 322 606 z "},"\"":{"ha":714,"x_min":69,"x_max":644,"o":"m 518 1061 l 518 910 l 392 910 l 392 1364 l 417 1364 l 418 1389 l 493 1389 l 493 1364 l 543 1364 l 544 1389 l 619 1389 l 619 1364 l 644 1364 l 644 1061 l 518 1061 m 196 1061 l 196 910 l 69 910 l 69 1364 l 94 1364 l 96 1389 l 171 1389 l 171 1364 l 221 1364 l 222 1389 l 297 1389 l 297 1364 l 322 1364 l 322 1061 l 196 1061 z "},"”":{"ha":714,"x_min":69,"x_max":644,"o":"m 69 1061 l 69 1364 l 94 1364 l 94 1389 l 169 1389 l 171 1364 l 221 1364 l 221 1389 l 296 1389 l 297 1364 l 322 1364 l 322 910 l 196 910 l 196 1061 l 69 1061 m 392 1061 l 392 1364 l 417 1364 l 417 1389 l 492 1389 l 493 1364 l 543 1364 l 543 1389 l 618 1389 l 619 1364 l 644 1364 l 644 910 l 518 910 l 518 1061 l 392 1061 z "},"“":{"ha":714,"x_min":69,"x_max":644,"o":"m 644 1238 l 644 935 l 619 935 l 619 910 l 544 910 l 543 935 l 493 935 l 493 910 l 418 910 l 417 935 l 392 935 l 392 1389 l 518 1389 l 518 1238 l 644 1238 m 322 1238 l 322 935 l 297 935 l 297 910 l 222 910 l 221 935 l 171 935 l 171 910 l 96 910 l 94 935 l 69 935 l 69 1389 l 196 1389 l 196 1238 l 322 1238 z "},"I":{"ha":897,"x_min":69,"x_max":828,"o":"m 94 151 l 94 176 l 169 176 l 171 151 l 221 151 l 221 176 l 296 176 l 297 151 l 322 151 l 322 1211 l 69 1213 l 69 1363 l 94 1364 l 94 1389 l 169 1389 l 171 1364 l 221 1364 l 221 1389 l 296 1389 l 297 1364 l 347 1364 l 347 1389 l 422 1389 l 424 1364 l 474 1364 l 474 1389 l 549 1389 l 550 1364 l 600 1364 l 600 1389 l 675 1389 l 676 1364 l 726 1364 l 726 1389 l 803 1389 l 803 1364 l 828 1363 l 828 1213 l 575 1211 l 575 151 l 600 151 l 600 176 l 675 176 l 676 151 l 726 151 l 726 176 l 803 176 l 803 151 l 828 151 l 828 0 l 69 0 l 69 151 l 94 151 z "},"„":{"ha":715,"x_min":69,"x_max":646,"o":"m 69 0 l 69 151 l 94 151 l 94 176 l 169 176 l 171 151 l 221 151 l 221 176 l 296 176 l 297 151 l 322 151 l 322 -151 l 196 -151 l 196 0 l 69 0 m 393 0 l 393 151 l 418 151 l 418 176 l 493 176 l 494 151 l 544 151 l 544 176 l 619 176 l 621 151 l 646 151 l 646 -151 l 519 -151 l 519 0 l 393 0 z "},"ƒ":{"ha":897,"x_min":69,"x_max":828,"o":"m 94 -3 l 94 22 l 169 22 l 171 -3 l 196 -3 l 196 149 l 221 149 l 221 174 l 296 174 l 297 149 l 322 149 l 322 451 l 69 451 l 69 603 l 94 604 l 94 628 l 169 628 l 171 604 l 221 604 l 221 628 l 296 628 l 297 604 l 322 604 l 322 1057 l 347 1058 l 347 1082 l 422 1082 l 424 1058 l 449 1058 l 449 1208 l 474 1210 l 474 1235 l 549 1235 l 550 1210 l 600 1210 l 600 1235 l 675 1235 l 676 1210 l 726 1210 l 726 1235 l 803 1235 l 803 1210 l 828 1208 l 828 1058 l 575 1057 l 575 907 l 449 906 l 449 604 l 474 604 l 474 628 l 549 628 l 550 604 l 600 604 l 600 628 l 675 628 l 676 604 l 701 603 l 701 451 l 449 451 l 449 -3 l 322 -3 l 322 -154 l 69 -154 l 69 -3 l 94 -3 z "},"²":{"ha":897,"x_min":69,"x_max":828,"o":"m 94 303 l 94 328 l 169 328 l 171 303 l 196 303 l 196 454 l 221 454 l 221 479 l 296 479 l 297 454 l 322 454 l 322 606 l 347 606 l 347 631 l 422 631 l 424 606 l 449 606 l 449 757 l 474 758 l 474 782 l 549 782 l 550 758 l 575 758 l 575 1211 l 322 1211 l 322 910 l 69 910 l 69 1211 l 94 1213 l 94 1236 l 169 1236 l 171 1213 l 196 1213 l 196 1363 l 221 1364 l 221 1389 l 296 1389 l 297 1364 l 347 1364 l 347 1389 l 422 1389 l 424 1364 l 474 1364 l 474 1389 l 549 1389 l 550 1364 l 600 1364 l 600 1389 l 675 1389 l 676 1364 l 701 1363 l 701 1213 l 726 1213 l 726 1236 l 803 1236 l 803 1213 l 828 1211 l 828 758 l 701 757 l 701 606 l 575 606 l 575 454 l 449 454 l 449 303 l 322 303 l 322 151 l 347 151 l 347 176 l 422 176 l 424 151 l 474 151 l 474 176 l 549 176 l 550 151 l 600 151 l 600 176 l 675 176 l 676 151 l 726 151 l 726 176 l 803 176 l 803 151 l 828 151 l 828 0 l 69 0 l 69 303 l 94 303 z "},"³":{"ha":897,"x_min":69,"x_max":828,"o":"m 69 151 l 69 454 l 94 454 l 94 479 l 169 479 l 171 454 l 221 454 l 221 479 l 296 479 l 297 454 l 322 454 l 322 151 l 347 151 l 347 176 l 422 176 l 424 151 l 474 151 l 474 176 l 549 176 l 550 151 l 575 151 l 575 606 l 322 606 l 322 757 l 347 758 l 347 782 l 422 782 l 424 758 l 474 758 l 474 782 l 549 782 l 550 758 l 575 758 l 575 1211 l 322 1211 l 322 910 l 69 910 l 69 1211 l 94 1213 l 94 1236 l 169 1236 l 171 1213 l 196 1213 l 196 1363 l 221 1364 l 221 1389 l 296 1389 l 297 1364 l 347 1364 l 347 1389 l 422 1389 l 424 1364 l 474 1364 l 474 1389 l 549 1389 l 550 1364 l 600 1364 l 600 1389 l 675 1389 l 676 1364 l 701 1363 l 701 1213 l 726 1213 l 726 1236 l 803 1236 l 803 1213 l 828 1211 l 828 758 l 701 757 l 701 606 l 726 606 l 726 631 l 803 631 l 803 606 l 828 606 l 828 151 l 701 151 l 701 0 l 196 0 l 196 151 l 69 151 z "},"¹":{"ha":771,"x_min":69,"x_max":701,"o":"m 221 151 l 221 176 l 296 176 l 297 151 l 322 151 l 322 908 l 69 910 l 69 1060 l 94 1061 l 94 1085 l 169 1085 l 171 1061 l 196 1061 l 196 1211 l 221 1213 l 221 1236 l 296 1236 l 297 1213 l 322 1213 l 322 1363 l 347 1364 l 347 1389 l 422 1389 l 424 1364 l 474 1364 l 474 1389 l 549 1389 l 550 1364 l 575 1363 l 575 151 l 600 151 l 600 176 l 676 176 l 676 151 l 701 151 l 701 0 l 196 0 l 196 151 l 221 151 z "},"¼":{"ha":2565,"x_min":69,"x_max":2496,"o":"m 221 151 l 221 176 l 296 176 l 297 151 l 322 151 l 322 908 l 69 910 l 69 1060 l 94 1061 l 94 1085 l 169 1085 l 171 1061 l 196 1061 l 196 1211 l 221 1213 l 221 1236 l 296 1236 l 297 1213 l 322 1213 l 322 1363 l 347 1364 l 347 1389 l 422 1389 l 424 1364 l 474 1364 l 474 1389 l 549 1389 l 550 1364 l 575 1363 l 575 151 l 600 151 l 600 176 l 676 176 l 676 151 l 701 151 l 701 0 l 196 0 l 196 151 l 221 151 m 796 151 l 796 176 l 871 176 l 872 151 l 897 151 l 897 454 l 922 454 l 922 479 l 997 479 l 999 454 l 1024 454 l 1024 606 l 1049 606 l 1049 631 l 1124 631 l 1125 606 l 1150 606 l 1150 908 l 1175 910 l 1175 933 l 1250 933 l 1251 910 l 1276 910 l 1276 1211 l 1301 1213 l 1301 1236 l 1376 1236 l 1378 1213 l 1403 1213 l 1403 1363 l 1428 1364 l 1428 1389 l 1504 1389 l 1504 1364 l 1529 1363 l 1529 1061 l 1403 1060 l 1403 758 l 1276 757 l 1276 454 l 1150 454 l 1150 303 l 1024 303 l 1024 0 l 771 0 l 771 151 l 796 151 m 1738 454 l 1738 1363 l 1763 1364 l 1763 1389 l 1838 1389 l 1839 1364 l 1889 1364 l 1889 1389 l 1964 1389 l 1965 1364 l 1990 1363 l 1990 606 l 2015 606 l 2015 631 l 2090 631 l 2092 606 l 2142 606 l 2142 631 l 2217 631 l 2218 606 l 2243 606 l 2243 1211 l 2268 1213 l 2268 1236 l 2343 1236 l 2344 1213 l 2394 1213 l 2394 1236 l 2471 1236 l 2471 1213 l 2496 1211 l 2496 0 l 2243 0 l 2243 454 l 1738 454 z "},"½":{"ha":2565,"x_min":69,"x_max":2496,"o":"m 221 151 l 221 176 l 296 176 l 297 151 l 322 151 l 322 908 l 69 910 l 69 1060 l 94 1061 l 94 1085 l 169 1085 l 171 1061 l 196 1061 l 196 1211 l 221 1213 l 221 1236 l 296 1236 l 297 1213 l 322 1213 l 322 1363 l 347 1364 l 347 1389 l 422 1389 l 424 1364 l 474 1364 l 474 1389 l 549 1389 l 550 1364 l 575 1363 l 575 151 l 600 151 l 600 176 l 676 176 l 676 151 l 701 151 l 701 0 l 196 0 l 196 151 l 221 151 m 796 151 l 796 176 l 871 176 l 872 151 l 897 151 l 897 454 l 922 454 l 922 479 l 997 479 l 999 454 l 1024 454 l 1024 606 l 1049 606 l 1049 631 l 1124 631 l 1125 606 l 1150 606 l 1150 908 l 1175 910 l 1175 933 l 1250 933 l 1251 910 l 1276 910 l 1276 1211 l 1301 1213 l 1301 1236 l 1376 1236 l 1378 1213 l 1403 1213 l 1403 1363 l 1428 1364 l 1428 1389 l 1504 1389 l 1504 1364 l 1529 1363 l 1529 1061 l 1403 1060 l 1403 758 l 1276 757 l 1276 454 l 1150 454 l 1150 303 l 1024 303 l 1024 0 l 771 0 l 771 151 l 796 151 m 1763 303 l 1763 328 l 1838 328 l 1839 303 l 1864 303 l 1864 454 l 1889 454 l 1889 479 l 1964 479 l 1965 454 l 1990 454 l 1990 606 l 2015 606 l 2015 631 l 2090 631 l 2092 606 l 2117 606 l 2117 757 l 2142 758 l 2142 782 l 2217 782 l 2218 758 l 2243 758 l 2243 1211 l 1990 1211 l 1990 910 l 1738 910 l 1738 1211 l 1763 1213 l 1763 1236 l 1838 1236 l 1839 1213 l 1864 1213 l 1864 1363 l 1889 1364 l 1889 1389 l 1964 1389 l 1965 1364 l 2015 1364 l 2015 1389 l 2090 1389 l 2092 1364 l 2142 1364 l 2142 1389 l 2217 1389 l 2218 1364 l 2268 1364 l 2268 1389 l 2343 1389 l 2344 1364 l 2369 1363 l 2369 1213 l 2394 1213 l 2394 1236 l 2471 1236 l 2471 1213 l 2496 1211 l 2496 758 l 2369 757 l 2369 606 l 2243 606 l 2243 454 l 2117 454 l 2117 303 l 1990 303 l 1990 151 l 2015 151 l 2015 176 l 2090 176 l 2092 151 l 2142 151 l 2142 176 l 2217 176 l 2218 151 l 2268 151 l 2268 176 l 2343 176 l 2344 151 l 2394 151 l 2394 176 l 2471 176 l 2471 151 l 2496 151 l 2496 0 l 1738 0 l 1738 303 l 1763 303 z "},"¾":{"ha":2692,"x_min":69,"x_max":2622,"o":"m 69 151 l 69 454 l 94 454 l 94 479 l 169 479 l 171 454 l 221 454 l 221 479 l 296 479 l 297 454 l 322 454 l 322 151 l 347 151 l 347 176 l 422 176 l 424 151 l 474 151 l 474 176 l 549 176 l 550 151 l 575 151 l 575 606 l 322 606 l 322 757 l 347 758 l 347 782 l 422 782 l 424 758 l 474 758 l 474 782 l 549 782 l 550 758 l 575 758 l 575 1211 l 322 1211 l 322 910 l 69 910 l 69 1211 l 94 1213 l 94 1236 l 169 1236 l 171 1213 l 196 1213 l 196 1363 l 221 1364 l 221 1389 l 296 1389 l 297 1364 l 347 1364 l 347 1389 l 422 1389 l 424 1364 l 474 1364 l 474 1389 l 549 1389 l 550 1364 l 600 1364 l 600 1389 l 675 1389 l 676 1364 l 701 1363 l 701 1213 l 726 1213 l 726 1236 l 803 1236 l 803 1213 l 828 1211 l 828 758 l 701 757 l 701 606 l 726 606 l 726 631 l 803 631 l 803 606 l 828 606 l 828 151 l 701 151 l 701 0 l 196 0 l 196 151 l 69 151 m 922 151 l 922 176 l 997 176 l 999 151 l 1024 151 l 1024 454 l 1049 454 l 1049 479 l 1124 479 l 1125 454 l 1150 454 l 1150 606 l 1175 606 l 1175 631 l 1250 631 l 1251 606 l 1276 606 l 1276 908 l 1301 910 l 1301 933 l 1376 933 l 1378 910 l 1403 910 l 1403 1211 l 1428 1213 l 1428 1236 l 1503 1236 l 1504 1213 l 1529 1213 l 1529 1363 l 1554 1364 l 1554 1389 l 1631 1389 l 1631 1364 l 1656 1363 l 1656 1061 l 1529 1060 l 1529 758 l 1403 757 l 1403 454 l 1276 454 l 1276 303 l 1150 303 l 1150 0 l 897 0 l 897 151 l 922 151 m 1864 454 l 1864 1363 l 1889 1364 l 1889 1389 l 1964 1389 l 1965 1364 l 2015 1364 l 2015 1389 l 2090 1389 l 2092 1364 l 2117 1363 l 2117 606 l 2142 606 l 2142 631 l 2217 631 l 2218 606 l 2268 606 l 2268 631 l 2343 631 l 2344 606 l 2369 606 l 2369 1211 l 2394 1213 l 2394 1236 l 2469 1236 l 2471 1213 l 2521 1213 l 2521 1236 l 2597 1236 l 2597 1213 l 2622 1211 l 2622 0 l 2369 0 l 2369 454 l 1864 454 z "},"¿":{"ha":897,"x_min":69,"x_max":828,"o":"m 322 1238 l 322 1389 l 575 1389 l 575 1238 l 550 1238 l 549 1213 l 474 1213 l 474 1238 l 424 1238 l 422 1213 l 347 1213 l 347 1238 l 322 1238 m 322 632 l 322 1086 l 575 1086 l 575 632 l 701 631 l 701 481 l 828 479 l 828 178 l 803 176 l 803 153 l 726 153 l 726 176 l 701 176 l 701 26 l 676 25 l 675 0 l 600 0 l 600 25 l 550 25 l 549 0 l 474 0 l 474 25 l 424 25 l 422 0 l 347 0 l 347 25 l 297 25 l 296 0 l 221 0 l 221 25 l 196 26 l 196 176 l 171 176 l 169 153 l 94 153 l 94 176 l 69 178 l 69 328 l 322 328 l 322 178 l 575 178 l 575 479 l 550 479 l 549 456 l 474 456 l 474 479 l 449 481 l 449 631 l 424 631 l 422 607 l 347 607 l 347 631 l 322 632 z "},"´":{"ha":644,"x_min":69,"x_max":575,"o":"m 94 1211 l 94 1235 l 169 1235 l 171 1211 l 196 1211 l 196 1361 l 221 1363 l 221 1386 l 296 1386 l 297 1363 l 322 1363 l 322 1513 l 347 1514 l 347 1539 l 422 1539 l 424 1514 l 474 1514 l 474 1539 l 549 1539 l 550 1514 l 575 1513 l 575 1363 l 449 1361 l 449 1211 l 322 1210 l 322 1060 l 69 1060 l 69 1210 l 94 1211 z "},"°":{"ha":518,"x_min":69,"x_max":449,"o":"m 94 1364 l 94 1389 l 169 1389 l 171 1364 l 221 1364 l 221 1389 l 296 1389 l 297 1364 l 347 1364 l 347 1389 l 422 1389 l 424 1364 l 449 1363 l 449 910 l 69 910 l 69 1363 l 94 1364 m 196 1061 l 221 1061 l 221 1085 l 296 1085 l 297 1061 l 322 1061 l 322 1211 l 196 1211 l 196 1061 z "},"Œ":{"ha":1794,"x_min":69,"x_max":1725,"o":"m 69 151 l 69 1213 l 94 1213 l 94 1236 l 169 1236 l 169 1213 l 196 1213 l 196 1364 l 221 1364 l 221 1389 l 296 1389 l 296 1364 l 347 1364 l 347 1389 l 424 1389 l 424 1364 l 474 1364 l 474 1389 l 550 1389 l 550 1364 l 600 1364 l 600 1389 l 676 1389 l 676 1364 l 701 1364 l 701 1213 l 726 1213 l 726 1236 l 803 1236 l 803 1213 l 828 1213 l 828 151 l 701 151 l 701 0 l 196 0 l 196 151 l 69 151 m 322 151 l 347 151 l 347 176 l 424 176 l 424 151 l 474 151 l 474 176 l 550 176 l 550 151 l 575 151 l 575 1211 l 322 1211 l 322 151 m 992 1364 l 992 1389 l 1067 1389 l 1067 1364 l 1118 1364 l 1118 1389 l 1193 1389 l 1193 1364 l 1244 1364 l 1244 1389 l 1321 1389 l 1321 1364 l 1371 1364 l 1371 1389 l 1447 1389 l 1447 1364 l 1497 1364 l 1497 1389 l 1574 1389 l 1574 1364 l 1624 1364 l 1624 1389 l 1700 1389 l 1700 1364 l 1725 1364 l 1725 1213 l 1219 1213 l 1219 758 l 1244 758 l 1244 782 l 1321 782 l 1321 758 l 1371 758 l 1371 782 l 1447 782 l 1447 758 l 1497 758 l 1497 782 l 1574 782 l 1574 757 l 1599 757 l 1599 606 l 1219 606 l 1219 151 l 1244 151 l 1244 176 l 1321 176 l 1321 151 l 1371 151 l 1371 176 l 1447 176 l 1447 151 l 1497 151 l 1497 176 l 1574 176 l 1574 151 l 1624 151 l 1624 176 l 1700 176 l 1700 151 l 1725 151 l 1725 0 l 967 0 l 967 1364 l 992 1364 z "},"ˆ":{"ha":897,"x_min":69,"x_max":828,"o":"m 94 1061 l 94 1085 l 169 1085 l 171 1061 l 196 1061 l 196 1211 l 221 1213 l 221 1236 l 296 1236 l 297 1213 l 322 1213 l 322 1363 l 347 1364 l 347 1389 l 422 1389 l 424 1364 l 474 1364 l 474 1389 l 549 1389 l 550 1364 l 575 1363 l 575 1213 l 322 1211 l 322 1061 l 196 1060 l 196 910 l 69 910 l 69 1060 l 94 1061 m 726 1061 l 726 1085 l 803 1085 l 803 1061 l 828 1060 l 828 910 l 701 910 l 701 1060 l 726 1061 m 600 1213 l 600 1236 l 675 1236 l 676 1213 l 701 1211 l 701 1061 l 575 1061 l 575 1211 l 600 1213 z "},"‰":{"ha":1133,"x_min":69,"x_max":1064,"o":"m 94 151 l 94 176 l 169 176 l 171 151 l 196 151 l 196 454 l 221 454 l 221 479 l 296 479 l 297 454 l 322 454 l 322 606 l 347 606 l 347 631 l 422 631 l 424 606 l 449 606 l 449 908 l 474 910 l 474 933 l 549 933 l 550 910 l 575 910 l 575 1211 l 600 1213 l 600 1236 l 675 1236 l 676 1213 l 701 1213 l 701 1363 l 726 1364 l 726 1389 l 803 1389 l 803 1364 l 828 1363 l 828 1061 l 701 1060 l 701 758 l 575 757 l 575 454 l 449 454 l 449 303 l 322 303 l 322 0 l 69 0 l 69 151 l 94 151 m 517 303 l 517 328 l 592 328 l 593 303 l 643 303 l 643 328 l 719 328 l 719 303 l 744 303 l 744 0 l 492 0 l 492 303 l 517 303 m 94 1364 l 94 1389 l 169 1389 l 171 1364 l 221 1364 l 221 1389 l 296 1389 l 297 1364 l 322 1363 l 322 1061 l 69 1061 l 69 1363 l 94 1364 m 836 303 l 836 328 l 911 328 l 913 303 l 963 303 l 963 328 l 1039 328 l 1039 303 l 1064 303 l 1064 0 l 811 0 l 811 303 l 836 303 z "},"‹":{"ha":771,"x_min":69,"x_max":701,"o":"m 600 151 l 600 176 l 675 176 l 676 151 l 701 151 l 701 0 l 575 0 l 575 151 l 600 151 m 474 303 l 474 328 l 549 328 l 550 303 l 575 303 l 575 151 l 449 151 l 449 303 l 474 303 m 347 454 l 347 479 l 422 479 l 424 454 l 449 454 l 449 303 l 322 303 l 322 454 l 347 454 m 221 606 l 221 631 l 296 631 l 297 606 l 322 606 l 322 454 l 196 454 l 196 606 l 221 606 m 94 758 l 94 782 l 169 782 l 171 758 l 196 758 l 196 908 l 221 910 l 221 933 l 296 933 l 297 910 l 322 910 l 322 1060 l 347 1061 l 347 1085 l 422 1085 l 424 1061 l 449 1061 l 449 1211 l 474 1213 l 474 1236 l 549 1236 l 550 1213 l 575 1213 l 575 1363 l 600 1364 l 600 1389 l 675 1389 l 676 1364 l 701 1363 l 701 1213 l 575 1211 l 575 1061 l 449 1060 l 449 910 l 322 908 l 322 758 l 196 757 l 196 606 l 69 606 l 69 757 l 94 758 z "},"«":{"ha":1149,"x_min":69,"x_max":1079,"o":"m 600 151 l 600 176 l 675 176 l 676 151 l 701 151 l 701 0 l 575 0 l 575 151 l 600 151 m 474 303 l 474 328 l 549 328 l 550 303 l 575 303 l 575 151 l 449 151 l 449 303 l 474 303 m 347 454 l 347 479 l 422 479 l 424 454 l 449 454 l 449 303 l 322 303 l 322 454 l 347 454 m 221 606 l 221 631 l 296 631 l 297 606 l 322 606 l 322 454 l 196 454 l 196 606 l 221 606 m 94 758 l 94 782 l 169 782 l 171 758 l 196 758 l 196 908 l 221 910 l 221 933 l 296 933 l 297 910 l 322 910 l 322 1060 l 347 1061 l 347 1085 l 422 1085 l 424 1061 l 449 1061 l 449 1211 l 474 1213 l 474 1236 l 549 1236 l 550 1213 l 575 1213 l 575 1363 l 600 1364 l 600 1389 l 675 1389 l 676 1364 l 701 1363 l 701 1213 l 575 1211 l 575 1061 l 449 1060 l 449 910 l 322 908 l 322 758 l 196 757 l 196 606 l 69 606 l 69 757 l 94 758 m 978 151 l 978 176 l 1053 176 l 1054 151 l 1079 151 l 1079 0 l 953 0 l 953 151 l 978 151 m 851 303 l 851 328 l 926 328 l 928 303 l 953 303 l 953 151 l 826 151 l 826 303 l 851 303 m 725 454 l 725 479 l 800 479 l 801 454 l 826 454 l 826 303 l 700 303 l 700 454 l 725 454 m 599 606 l 599 631 l 674 631 l 675 606 l 700 606 l 700 454 l 574 454 l 574 606 l 599 606 m 472 758 l 472 782 l 547 782 l 549 758 l 574 758 l 574 908 l 599 910 l 599 933 l 674 933 l 675 910 l 700 910 l 700 1060 l 725 1061 l 725 1085 l 800 1085 l 801 1061 l 826 1061 l 826 1211 l 851 1213 l 851 1236 l 926 1236 l 928 1213 l 953 1213 l 953 1363 l 978 1364 l 978 1389 l 1053 1389 l 1054 1364 l 1079 1363 l 1079 1213 l 953 1211 l 953 1061 l 826 1060 l 826 910 l 700 908 l 700 758 l 574 757 l 574 606 l 447 606 l 447 757 l 472 758 z "},"¬":{"ha":897,"x_min":69,"x_max":828,"o":"m 69 606 l 69 757 l 94 758 l 94 782 l 169 782 l 171 758 l 221 758 l 221 782 l 296 782 l 297 758 l 347 758 l 347 782 l 422 782 l 424 758 l 474 758 l 474 782 l 549 782 l 550 758 l 600 758 l 600 782 l 675 782 l 676 758 l 726 758 l 726 782 l 803 782 l 803 758 l 828 757 l 828 303 l 701 303 l 701 606 l 69 606 z "},"µ":{"ha":897,"x_min":69,"x_max":828,"o":"m 94 1 l 94 26 l 169 26 l 171 1 l 196 1 l 196 758 l 221 760 l 221 783 l 296 783 l 297 760 l 322 758 l 322 153 l 347 153 l 347 178 l 422 178 l 424 153 l 474 153 l 474 178 l 549 178 l 550 153 l 600 153 l 600 178 l 675 178 l 676 153 l 701 153 l 701 758 l 726 760 l 726 783 l 803 783 l 803 760 l 828 758 l 828 1 l 322 1 l 322 -150 l 196 -150 l 196 -301 l 69 -301 l 69 1 l 94 1 z "},"·":{"ha":392,"x_min":69,"x_max":322,"o":"m 94 763 l 94 788 l 169 788 l 171 763 l 221 763 l 221 788 l 296 788 l 297 763 l 322 763 l 322 611 l 69 611 l 69 763 l 94 763 z "},"›":{"ha":771,"x_min":69,"x_max":701,"o":"m 196 151 l 196 0 l 69 0 l 69 151 l 94 151 l 96 176 l 171 176 l 171 151 l 196 151 m 322 303 l 322 151 l 196 151 l 196 303 l 221 303 l 222 328 l 297 328 l 297 303 l 322 303 m 449 454 l 449 303 l 322 303 l 322 454 l 347 454 l 349 479 l 424 479 l 424 454 l 449 454 m 575 606 l 575 454 l 449 454 l 449 606 l 474 606 l 475 631 l 550 631 l 550 606 l 575 606 m 701 757 l 701 606 l 575 606 l 575 757 l 449 758 l 449 908 l 322 910 l 322 1060 l 196 1061 l 196 1211 l 69 1213 l 69 1363 l 94 1364 l 96 1389 l 171 1389 l 171 1364 l 196 1363 l 196 1213 l 221 1213 l 222 1236 l 297 1236 l 297 1213 l 322 1211 l 322 1061 l 347 1061 l 349 1085 l 424 1085 l 424 1061 l 449 1060 l 449 910 l 474 910 l 475 933 l 550 933 l 550 910 l 575 908 l 575 758 l 600 758 l 601 782 l 676 782 l 676 758 l 701 757 z "},"»":{"ha":1149,"x_min":69,"x_max":1079,"o":"m 574 151 l 574 0 l 447 0 l 447 151 l 472 151 l 474 176 l 549 176 l 549 151 l 574 151 m 700 303 l 700 151 l 574 151 l 574 303 l 599 303 l 600 328 l 675 328 l 675 303 l 700 303 m 826 454 l 826 303 l 700 303 l 700 454 l 725 454 l 726 479 l 801 479 l 801 454 l 826 454 m 953 606 l 953 454 l 826 454 l 826 606 l 851 606 l 853 631 l 928 631 l 928 606 l 953 606 m 1079 757 l 1079 606 l 953 606 l 953 757 l 826 758 l 826 908 l 700 910 l 700 1060 l 574 1061 l 574 1211 l 447 1213 l 447 1363 l 472 1364 l 474 1389 l 549 1389 l 549 1364 l 574 1363 l 574 1213 l 599 1213 l 600 1236 l 675 1236 l 675 1213 l 700 1211 l 700 1061 l 725 1061 l 726 1085 l 801 1085 l 801 1061 l 826 1060 l 826 910 l 851 910 l 853 933 l 928 933 l 928 910 l 953 908 l 953 758 l 978 758 l 979 782 l 1054 782 l 1054 758 l 1079 757 m 196 151 l 196 0 l 69 0 l 69 151 l 94 151 l 96 176 l 171 176 l 171 151 l 196 151 m 322 303 l 322 151 l 196 151 l 196 303 l 221 303 l 222 328 l 297 328 l 297 303 l 322 303 m 449 454 l 449 303 l 322 303 l 322 454 l 347 454 l 349 479 l 424 479 l 424 454 l 449 454 m 575 606 l 575 454 l 449 454 l 449 606 l 474 606 l 475 631 l 550 631 l 550 606 l 575 606 m 701 757 l 701 606 l 575 606 l 575 757 l 449 758 l 449 908 l 322 910 l 322 1060 l 196 1061 l 196 1211 l 69 1213 l 69 1363 l 94 1364 l 96 1389 l 171 1389 l 171 1364 l 196 1363 l 196 1213 l 221 1213 l 222 1236 l 297 1236 l 297 1213 l 322 1211 l 322 1061 l 347 1061 l 349 1085 l 424 1085 l 424 1061 l 449 1060 l 449 910 l 474 910 l 475 933 l 550 933 l 550 910 l 575 908 l 575 758 l 600 758 l 601 782 l 676 782 l 676 758 l 701 757 z "},"!":{"ha":392,"x_min":69,"x_max":322,"o":"m 94 151 l 94 176 l 169 176 l 171 151 l 221 151 l 221 176 l 296 176 l 297 151 l 322 151 l 322 0 l 69 0 l 69 151 l 94 151 m 94 1364 l 94 1389 l 169 1389 l 171 1364 l 221 1364 l 221 1389 l 296 1389 l 297 1364 l 322 1363 l 322 303 l 69 303 l 69 1363 l 94 1364 z "},"¡":{"ha":392,"x_min":69,"x_max":322,"o":"m 69 1238 l 69 1389 l 322 1389 l 322 1238 l 297 1238 l 296 1213 l 221 1213 l 221 1238 l 171 1238 l 169 1213 l 94 1213 l 94 1238 l 69 1238 m 69 26 l 69 1086 l 322 1086 l 322 26 l 297 25 l 296 0 l 221 0 l 221 25 l 171 25 l 169 0 l 94 0 l 94 25 l 69 26 z "},".":{"ha":392,"x_min":69,"x_max":322,"o":"m 94 151 l 94 176 l 169 176 l 171 151 l 221 151 l 221 176 l 296 176 l 297 151 l 322 151 l 322 0 l 69 0 l 69 151 l 94 151 z "},"<":{"ha":897,"x_min":69,"x_max":828,"o":"m 322 303 l 322 454 l 196 454 l 196 606 l 69 606 l 69 757 l 94 758 l 94 782 l 169 782 l 171 758 l 196 758 l 196 908 l 221 910 l 221 933 l 296 933 l 297 910 l 322 910 l 322 1060 l 347 1061 l 347 1085 l 422 1085 l 424 1061 l 474 1061 l 474 1085 l 549 1085 l 550 1061 l 575 1061 l 575 1211 l 600 1213 l 600 1236 l 675 1236 l 676 1213 l 726 1213 l 726 1236 l 803 1236 l 803 1213 l 828 1211 l 828 1061 l 701 1060 l 701 910 l 449 908 l 449 758 l 322 757 l 322 606 l 347 606 l 347 631 l 422 631 l 424 606 l 449 606 l 449 454 l 474 454 l 474 479 l 549 479 l 550 454 l 600 454 l 600 479 l 675 479 l 676 454 l 701 454 l 701 303 l 726 303 l 726 328 l 803 328 l 803 303 l 828 303 l 828 151 l 575 151 l 575 303 l 322 303 z "},">":{"ha":897,"x_min":69,"x_max":828,"o":"m 322 303 l 322 151 l 69 151 l 69 303 l 94 303 l 94 328 l 171 328 l 171 303 l 196 303 l 196 454 l 221 454 l 222 479 l 297 479 l 297 454 l 347 454 l 349 479 l 424 479 l 424 454 l 449 454 l 449 606 l 474 606 l 475 631 l 550 631 l 550 606 l 575 606 l 575 757 l 449 758 l 449 908 l 196 910 l 196 1060 l 69 1061 l 69 1211 l 94 1213 l 94 1236 l 171 1236 l 171 1213 l 221 1213 l 222 1236 l 297 1236 l 297 1213 l 322 1211 l 322 1061 l 347 1061 l 349 1085 l 424 1085 l 424 1061 l 474 1061 l 475 1085 l 550 1085 l 550 1061 l 575 1060 l 575 910 l 600 910 l 601 933 l 676 933 l 676 910 l 701 908 l 701 758 l 726 758 l 728 782 l 803 782 l 803 758 l 828 757 l 828 606 l 701 606 l 701 454 l 575 454 l 575 303 l 322 303 z "},";":{"ha":392,"x_min":69,"x_max":322,"o":"m 69 0 l 69 151 l 94 151 l 94 176 l 169 176 l 171 151 l 221 151 l 221 176 l 296 176 l 297 151 l 322 151 l 322 -151 l 196 -151 l 196 0 l 69 0 m 94 454 l 94 479 l 169 479 l 171 454 l 221 454 l 221 479 l 296 479 l 297 454 l 322 454 l 322 303 l 69 303 l 69 454 l 94 454 z "},":":{"ha":392,"x_min":69,"x_max":322,"o":"m 94 151 l 94 176 l 169 176 l 171 151 l 221 151 l 221 176 l 296 176 l 297 151 l 322 151 l 322 0 l 69 0 l 69 151 l 94 151 m 94 454 l 94 479 l 169 479 l 171 454 l 221 454 l 221 479 l 296 479 l 297 454 l 322 454 l 322 303 l 69 303 l 69 454 l 94 454 z "},"…":{"ha":1175,"x_min":69,"x_max":1106,"o":"m 94 151 l 94 176 l 169 176 l 171 151 l 221 151 l 221 176 l 296 176 l 297 151 l 322 151 l 322 0 l 69 0 l 69 151 l 94 151 m 486 151 l 486 176 l 561 176 l 563 151 l 613 151 l 613 176 l 688 176 l 689 151 l 714 151 l 714 0 l 461 0 l 461 151 l 486 151 m 878 151 l 878 176 l 953 176 l 954 151 l 1004 151 l 1004 176 l 1079 176 l 1081 151 l 1106 151 l 1106 0 l 853 0 l 853 151 l 878 151 z "},"&":{"ha":897,"x_min":69,"x_max":828,"o":"m 69 151 l 69 1060 l 94 1061 l 94 1085 l 169 1085 l 171 1061 l 196 1061 l 196 1211 l 221 1213 l 221 1236 l 296 1236 l 297 1213 l 322 1213 l 322 1363 l 347 1364 l 347 1389 l 422 1389 l 424 1364 l 474 1364 l 474 1389 l 549 1389 l 550 1364 l 600 1364 l 600 1389 l 675 1389 l 676 1364 l 701 1363 l 701 1213 l 449 1211 l 449 1061 l 322 1060 l 322 758 l 347 758 l 347 782 l 422 782 l 424 758 l 449 757 l 449 606 l 196 606 l 196 303 l 221 303 l 221 328 l 296 328 l 297 303 l 322 303 l 322 151 l 347 151 l 347 176 l 422 176 l 424 151 l 474 151 l 474 176 l 549 176 l 550 151 l 575 151 l 575 454 l 600 454 l 600 479 l 675 479 l 676 454 l 701 454 l 701 757 l 726 758 l 726 782 l 803 782 l 803 758 l 828 757 l 828 303 l 701 303 l 701 151 l 575 151 l 575 0 l 196 0 l 196 151 l 69 151 m 726 151 l 726 176 l 803 176 l 803 151 l 828 151 l 828 0 l 701 0 l 701 151 l 726 151 m 474 606 l 474 631 l 549 631 l 550 606 l 575 606 l 575 454 l 449 454 l 449 606 l 474 606 m 726 1213 l 726 1236 l 803 1236 l 803 1213 l 828 1211 l 828 1061 l 701 1061 l 701 1211 l 726 1213 z "},"=":{"ha":897,"x_min":69,"x_max":828,"o":"m 94 758 l 94 782 l 169 782 l 171 758 l 221 758 l 221 782 l 296 782 l 297 758 l 347 758 l 347 782 l 422 782 l 424 758 l 474 758 l 474 782 l 549 782 l 550 758 l 600 758 l 600 782 l 675 782 l 676 758 l 726 758 l 726 782 l 803 782 l 803 758 l 828 757 l 828 606 l 69 606 l 69 757 l 94 758 m 94 389 l 94 413 l 169 413 l 171 389 l 221 389 l 221 413 l 296 413 l 297 389 l 347 389 l 347 413 l 422 413 l 424 389 l 474 389 l 474 413 l 549 413 l 550 389 l 600 389 l 600 413 l 675 413 l 676 389 l 726 389 l 726 413 l 803 413 l 803 389 l 828 388 l 828 236 l 69 236 l 69 388 l 94 389 z "},"-":{"ha":897,"x_min":69,"x_max":828,"o":"m 94 911 l 94 935 l 169 935 l 171 911 l 221 911 l 221 935 l 296 935 l 297 911 l 347 911 l 347 935 l 422 935 l 424 911 l 474 911 l 474 935 l 549 935 l 550 911 l 600 911 l 600 935 l 675 935 l 676 911 l 726 911 l 726 935 l 803 935 l 803 911 l 828 910 l 828 758 l 69 758 l 69 910 l 94 911 z "},"$":{"ha":897,"x_min":69,"x_max":828,"o":"m 196 151 l 196 303 l 221 303 l 221 328 l 296 328 l 297 303 l 322 303 l 322 606 l 196 606 l 196 757 l 221 758 l 221 782 l 296 782 l 297 758 l 347 758 l 347 782 l 422 782 l 424 758 l 449 758 l 449 1060 l 196 1060 l 196 758 l 69 758 l 69 1060 l 94 1061 l 94 1085 l 169 1085 l 171 1061 l 196 1061 l 196 1211 l 221 1213 l 221 1236 l 296 1236 l 297 1213 l 347 1213 l 347 1236 l 422 1236 l 424 1213 l 449 1213 l 449 1363 l 474 1364 l 474 1389 l 549 1389 l 550 1364 l 575 1363 l 575 1213 l 600 1213 l 600 1236 l 675 1236 l 676 1213 l 701 1211 l 701 1061 l 575 1060 l 575 758 l 600 758 l 600 782 l 675 782 l 676 758 l 701 757 l 701 606 l 449 606 l 449 303 l 474 303 l 474 328 l 549 328 l 550 303 l 600 303 l 600 328 l 675 328 l 676 303 l 701 303 l 701 606 l 726 606 l 726 631 l 803 631 l 803 606 l 828 606 l 828 303 l 701 303 l 701 151 l 449 151 l 449 0 l 322 0 l 322 151 l 196 151 m 94 454 l 94 479 l 169 479 l 171 454 l 196 454 l 196 303 l 69 303 l 69 454 l 94 454 m 726 1061 l 726 1085 l 803 1085 l 803 1061 l 828 1060 l 828 910 l 701 910 l 701 1060 l 726 1061 z "},"~":{"ha":897,"x_min":69,"x_max":828,"o":"m 94 1364 l 94 1388 l 169 1388 l 171 1364 l 196 1363 l 196 1213 l 221 1213 l 221 1236 l 296 1236 l 297 1213 l 322 1213 l 322 1363 l 347 1364 l 347 1388 l 422 1388 l 424 1364 l 449 1364 l 449 1514 l 474 1515 l 474 1539 l 549 1539 l 550 1515 l 600 1515 l 600 1539 l 675 1539 l 676 1515 l 726 1515 l 726 1539 l 803 1539 l 803 1515 l 828 1514 l 828 1213 l 701 1213 l 701 1363 l 575 1363 l 575 1213 l 449 1211 l 449 1060 l 69 1060 l 69 1363 l 94 1364 z "},"^":{"ha":897,"x_min":69,"x_max":828,"o":"m 94 1211 l 94 1235 l 169 1235 l 171 1211 l 196 1211 l 196 1361 l 221 1363 l 221 1386 l 296 1386 l 297 1363 l 322 1363 l 322 1513 l 347 1514 l 347 1539 l 422 1539 l 424 1514 l 474 1514 l 474 1539 l 549 1539 l 550 1514 l 575 1513 l 575 1363 l 322 1361 l 322 1211 l 196 1210 l 196 1060 l 69 1060 l 69 1210 l 94 1211 m 726 1211 l 726 1235 l 803 1235 l 803 1211 l 828 1210 l 828 1060 l 701 1060 l 701 1210 l 726 1211 m 600 1363 l 600 1386 l 675 1386 l 676 1363 l 701 1361 l 701 1211 l 575 1211 l 575 1361 l 600 1363 z "},"¥":{"ha":897,"x_min":69,"x_max":828,"o":"m 196 606 l 196 757 l 69 758 l 69 1363 l 94 1364 l 94 1389 l 169 1389 l 171 1364 l 221 1364 l 221 1389 l 296 1389 l 297 1364 l 322 1363 l 322 758 l 347 758 l 347 782 l 422 782 l 424 758 l 474 758 l 474 782 l 549 782 l 550 758 l 575 758 l 575 1363 l 600 1364 l 600 1389 l 675 1389 l 676 1364 l 726 1364 l 726 1389 l 803 1389 l 803 1364 l 828 1363 l 828 758 l 701 757 l 701 606 l 575 606 l 575 0 l 322 0 l 322 606 l 196 606 m 94 758 l 94 782 l 169 782 l 171 758 l 221 758 l 221 782 l 296 782 l 297 758 l 347 758 l 347 782 l 422 782 l 424 758 l 474 758 l 474 782 l 549 782 l 550 758 l 600 758 l 600 782 l 675 782 l 676 758 l 726 758 l 726 782 l 803 782 l 803 758 l 828 757 l 828 606 l 69 606 l 69 757 l 94 758 m 94 389 l 94 413 l 169 413 l 171 389 l 221 389 l 221 413 l 296 413 l 297 389 l 347 389 l 347 413 l 422 413 l 424 389 l 474 389 l 474 413 l 549 413 l 550 389 l 600 389 l 600 413 l 675 413 l 676 389 l 726 389 l 726 413 l 803 413 l 803 389 l 828 388 l 828 236 l 69 236 l 69 388 l 94 389 z "},"¤":{"ha":644,"x_min":69,"x_max":575,"o":"m 94 303 l 94 328 l 169 328 l 171 303 l 196 303 l 196 454 l 221 454 l 221 479 l 296 479 l 297 454 l 347 454 l 347 479 l 422 479 l 424 454 l 449 454 l 449 908 l 474 910 l 474 933 l 549 933 l 550 910 l 575 908 l 575 454 l 449 454 l 449 303 l 196 303 l 196 151 l 69 151 l 69 303 l 94 303 m 474 303 l 474 328 l 549 328 l 550 303 l 575 303 l 575 151 l 449 151 l 449 303 l 474 303 m 94 910 l 94 933 l 169 933 l 171 910 l 196 910 l 196 1060 l 221 1061 l 221 1085 l 296 1085 l 297 1061 l 347 1061 l 347 1085 l 422 1085 l 424 1061 l 449 1061 l 449 1211 l 474 1213 l 474 1236 l 549 1236 l 550 1213 l 575 1211 l 575 1061 l 449 1060 l 449 910 l 196 908 l 196 454 l 69 454 l 69 908 l 94 910 m 94 1213 l 94 1236 l 169 1236 l 171 1213 l 196 1211 l 196 1061 l 69 1061 l 69 1211 l 94 1213 z "},"Ÿ":{"ha":978,"x_min":61,"x_max":868,"o":"m 236 606 l 236 757 l 110 758 l 110 1363 l 135 1364 l 135 1389 l 210 1389 l 211 1364 l 261 1364 l 261 1389 l 336 1389 l 338 1364 l 363 1363 l 363 758 l 388 758 l 388 782 l 463 782 l 464 758 l 514 758 l 514 782 l 589 782 l 590 758 l 615 758 l 615 1363 l 640 1364 l 640 1389 l 715 1389 l 717 1364 l 767 1364 l 767 1389 l 843 1389 l 843 1364 l 868 1363 l 868 758 l 742 757 l 742 606 l 615 606 l 615 0 l 363 0 l 363 606 l 236 606 m 86 1363 l 86 1388 l 161 1388 l 163 1363 l 213 1363 l 213 1388 l 288 1388 l 289 1363 l 314 1363 l 314 1211 l 61 1211 l 61 1363 l 86 1363 m 596 1363 l 596 1388 l 671 1388 l 672 1363 l 722 1363 l 722 1388 l 797 1388 l 799 1363 l 824 1363 l 824 1211 l 571 1211 l 571 1363 l 596 1363 z "},"º":{"ha":518,"x_min":69,"x_max":449,"o":"m 94 764 l 94 789 l 169 789 l 171 764 l 221 764 l 221 789 l 296 789 l 297 764 l 347 764 l 347 789 l 422 789 l 424 764 l 449 763 l 449 310 l 69 310 l 69 763 l 94 764 m 196 461 l 221 461 l 221 485 l 296 485 l 297 461 l 322 461 l 322 611 l 196 611 l 196 461 z "},"£":{"ha":897,"x_min":69,"x_max":828,"o":"m 94 151 l 94 176 l 169 176 l 171 151 l 196 151 l 196 454 l 221 454 l 221 479 l 296 479 l 297 454 l 322 454 l 322 606 l 69 606 l 69 757 l 94 758 l 94 782 l 169 782 l 171 758 l 221 758 l 221 782 l 296 782 l 297 758 l 322 758 l 322 1211 l 347 1213 l 347 1236 l 422 1236 l 424 1213 l 449 1213 l 449 1363 l 474 1364 l 474 1389 l 549 1389 l 550 1364 l 600 1364 l 600 1389 l 675 1389 l 676 1364 l 726 1364 l 726 1389 l 803 1389 l 803 1364 l 828 1363 l 828 1213 l 575 1211 l 575 758 l 600 758 l 600 782 l 675 782 l 676 758 l 726 758 l 726 782 l 803 782 l 803 758 l 828 757 l 828 606 l 575 606 l 575 454 l 449 454 l 449 151 l 474 151 l 474 176 l 549 176 l 550 151 l 600 151 l 600 176 l 675 176 l 676 151 l 726 151 l 726 176 l 803 176 l 803 151 l 828 151 l 828 0 l 69 0 l 69 151 l 94 151 z "},"‚":{"ha":392,"x_min":69,"x_max":322,"o":"m 69 0 l 69 303 l 94 303 l 94 328 l 169 328 l 171 303 l 221 303 l 221 328 l 296 328 l 297 303 l 322 303 l 322 -151 l 196 -151 l 196 0 l 69 0 z "},"€":{"ha":897,"x_min":69,"x_max":828,"o":"m 69 301 l 69 453 l 94 453 l 94 478 l 169 478 l 171 453 l 196 453 l 196 756 l 69 757 l 69 907 l 94 908 l 94 932 l 169 932 l 171 908 l 196 908 l 196 1210 l 221 1211 l 221 1236 l 296 1236 l 297 1211 l 347 1211 l 347 1236 l 422 1236 l 424 1211 l 474 1211 l 474 1236 l 549 1236 l 550 1211 l 600 1211 l 600 1236 l 675 1236 l 676 1211 l 701 1210 l 701 1060 l 322 1058 l 322 908 l 347 908 l 347 932 l 422 932 l 424 908 l 474 908 l 474 932 l 549 932 l 550 908 l 575 907 l 575 757 l 322 756 l 322 453 l 347 453 l 347 478 l 422 478 l 424 453 l 474 453 l 474 478 l 549 478 l 550 453 l 575 453 l 575 301 l 322 301 l 322 150 l 347 150 l 347 175 l 422 175 l 424 150 l 474 150 l 474 175 l 549 175 l 550 150 l 600 150 l 600 175 l 675 175 l 676 150 l 701 150 l 701 301 l 726 301 l 726 326 l 803 326 l 803 301 l 828 301 l 828 150 l 701 150 l 701 -1 l 196 -1 l 196 301 l 69 301 m 726 1060 l 726 1083 l 803 1083 l 803 1060 l 828 1058 l 828 908 l 701 908 l 701 1058 l 726 1060 z "},"¢":{"ha":897,"x_min":69,"x_max":828,"o":"m 196 151 l 196 303 l 221 303 l 221 328 l 296 328 l 297 303 l 322 303 l 322 757 l 347 758 l 347 782 l 422 782 l 424 758 l 449 758 l 449 1060 l 196 1060 l 196 303 l 69 303 l 69 1060 l 94 1061 l 94 1085 l 169 1085 l 171 1061 l 196 1061 l 196 1211 l 221 1213 l 221 1236 l 296 1236 l 297 1213 l 347 1213 l 347 1236 l 422 1236 l 424 1213 l 449 1213 l 449 1363 l 474 1364 l 474 1389 l 549 1389 l 550 1364 l 575 1363 l 575 1213 l 600 1213 l 600 1236 l 675 1236 l 676 1213 l 701 1211 l 701 1061 l 575 1060 l 575 606 l 449 606 l 449 303 l 474 303 l 474 328 l 549 328 l 550 303 l 600 303 l 600 328 l 675 328 l 676 303 l 701 303 l 701 454 l 726 454 l 726 479 l 803 479 l 803 454 l 828 454 l 828 303 l 701 303 l 701 151 l 449 151 l 449 0 l 322 0 l 322 151 l 196 151 m 726 1061 l 726 1085 l 803 1085 l 803 1061 l 828 1060 l 828 910 l 701 910 l 701 1060 l 726 1061 z "},"×":{"ha":897,"x_min":69,"x_max":828,"o":"m 94 307 l 94 332 l 169 332 l 171 307 l 196 307 l 196 458 l 221 458 l 221 483 l 296 483 l 297 458 l 322 458 l 322 761 l 347 763 l 347 786 l 422 786 l 424 763 l 474 763 l 474 786 l 549 786 l 550 763 l 575 763 l 575 913 l 600 914 l 600 938 l 675 938 l 676 914 l 701 914 l 701 1064 l 726 1065 l 726 1089 l 803 1089 l 803 1065 l 828 1064 l 828 914 l 701 913 l 701 763 l 575 761 l 575 458 l 322 458 l 322 307 l 196 307 l 196 156 l 69 156 l 69 307 l 94 307 m 726 307 l 726 332 l 803 332 l 803 307 l 828 307 l 828 156 l 701 156 l 701 307 l 726 307 m 600 458 l 600 483 l 675 483 l 676 458 l 701 458 l 701 307 l 575 307 l 575 458 l 600 458 m 221 914 l 221 938 l 296 938 l 297 914 l 322 913 l 322 763 l 196 763 l 196 913 l 221 914 m 94 1065 l 94 1089 l 169 1089 l 171 1065 l 196 1064 l 196 914 l 69 914 l 69 1064 l 94 1065 z "},"÷":{"ha":897,"x_min":69,"x_max":828,"o":"m 347 303 l 347 328 l 422 328 l 424 303 l 474 303 l 474 328 l 549 328 l 550 303 l 575 303 l 575 151 l 322 151 l 322 303 l 347 303 m 94 758 l 94 782 l 169 782 l 171 758 l 221 758 l 221 782 l 296 782 l 297 758 l 347 758 l 347 782 l 422 782 l 424 758 l 474 758 l 474 782 l 549 782 l 550 758 l 600 758 l 600 782 l 675 782 l 676 758 l 726 758 l 726 782 l 803 782 l 803 758 l 828 757 l 828 606 l 69 606 l 69 757 l 94 758 m 347 1213 l 347 1236 l 422 1236 l 424 1213 l 474 1213 l 474 1236 l 549 1236 l 550 1213 l 575 1211 l 575 1061 l 322 1061 l 322 1211 l 347 1213 z "},"#":{"ha":897,"x_min":69,"x_max":828,"o":"m 69 303 l 69 454 l 94 454 l 94 479 l 169 479 l 171 454 l 196 454 l 196 908 l 69 910 l 69 1060 l 94 1061 l 94 1085 l 169 1085 l 171 1061 l 196 1061 l 196 1211 l 221 1213 l 221 1236 l 296 1236 l 297 1213 l 322 1211 l 322 1061 l 347 1061 l 347 1085 l 422 1085 l 424 1061 l 474 1061 l 474 1085 l 549 1085 l 550 1061 l 575 1061 l 575 1211 l 600 1213 l 600 1236 l 675 1236 l 676 1213 l 701 1211 l 701 1061 l 726 1061 l 726 1085 l 803 1085 l 803 1061 l 828 1060 l 828 910 l 701 908 l 701 454 l 726 454 l 726 479 l 803 479 l 803 454 l 828 454 l 828 303 l 701 303 l 701 151 l 575 151 l 575 303 l 322 303 l 322 151 l 196 151 l 196 303 l 69 303 m 322 454 l 347 454 l 347 479 l 422 479 l 424 454 l 474 454 l 474 479 l 549 479 l 550 454 l 575 454 l 575 908 l 322 908 l 322 454 z "},"+":{"ha":897,"x_min":69,"x_max":828,"o":"m 69 606 l 69 757 l 94 758 l 94 782 l 169 782 l 171 758 l 221 758 l 221 782 l 296 782 l 297 758 l 322 758 l 322 1060 l 347 1061 l 347 1085 l 422 1085 l 424 1061 l 474 1061 l 474 1085 l 549 1085 l 550 1061 l 575 1060 l 575 758 l 600 758 l 600 782 l 675 782 l 676 758 l 726 758 l 726 782 l 803 782 l 803 758 l 828 757 l 828 606 l 575 606 l 575 303 l 322 303 l 322 606 l 69 606 z "},"±":{"ha":899,"x_min":69,"x_max":829,"o":"m 69 814 l 69 965 l 94 967 l 94 990 l 169 990 l 171 967 l 221 967 l 221 990 l 296 990 l 297 967 l 322 967 l 322 1268 l 347 1269 l 347 1293 l 422 1293 l 424 1269 l 474 1269 l 474 1293 l 549 1293 l 550 1269 l 575 1268 l 575 967 l 600 967 l 600 990 l 675 990 l 676 967 l 726 967 l 726 990 l 803 990 l 803 967 l 828 965 l 828 814 l 575 814 l 575 511 l 322 511 l 322 814 l 69 814 m 96 360 l 96 383 l 171 383 l 172 360 l 222 360 l 222 383 l 297 383 l 299 360 l 349 360 l 349 383 l 424 383 l 425 360 l 475 360 l 475 383 l 550 383 l 551 360 l 601 360 l 601 383 l 676 383 l 678 360 l 728 360 l 728 383 l 804 383 l 804 360 l 829 358 l 829 207 l 71 207 l 71 358 l 96 360 z "},"−":{"ha":897,"x_min":69,"x_max":828,"o":"m 94 758 l 94 782 l 169 782 l 171 758 l 221 758 l 221 782 l 296 782 l 297 758 l 347 758 l 347 782 l 422 782 l 424 758 l 474 758 l 474 782 l 549 782 l 550 758 l 600 758 l 600 782 l 675 782 l 676 758 l 726 758 l 726 782 l 803 782 l 803 758 l 828 757 l 828 606 l 69 606 l 69 757 l 94 758 z "},"†":{"ha":897,"x_min":69,"x_max":828,"o":"m 347 1364 l 347 1389 l 424 1389 l 424 1364 l 474 1364 l 474 1389 l 550 1389 l 550 1364 l 575 1364 l 575 0 l 322 0 l 322 1364 l 347 1364 m 94 911 l 94 935 l 169 935 l 171 911 l 221 911 l 221 935 l 296 935 l 297 911 l 347 911 l 347 935 l 422 935 l 424 911 l 474 911 l 474 935 l 549 935 l 550 911 l 600 911 l 600 935 l 675 935 l 676 911 l 726 911 l 726 935 l 803 935 l 803 911 l 828 910 l 828 758 l 69 758 l 69 910 l 94 911 z "},"‡":{"ha":897,"x_min":69,"x_max":828,"o":"m 347 1364 l 347 1389 l 424 1389 l 424 1364 l 474 1364 l 474 1389 l 550 1389 l 550 1364 l 575 1364 l 575 0 l 322 0 l 322 1364 l 347 1364 m 94 758 l 94 782 l 169 782 l 171 758 l 221 758 l 221 782 l 296 782 l 297 758 l 347 758 l 347 782 l 422 782 l 424 758 l 474 758 l 474 782 l 549 782 l 550 758 l 600 758 l 600 782 l 675 782 l 676 758 l 726 758 l 726 782 l 803 782 l 803 758 l 828 757 l 828 606 l 69 606 l 69 757 l 94 758 m 94 389 l 94 413 l 169 413 l 171 389 l 221 389 l 221 413 l 296 413 l 297 389 l 347 389 l 347 413 l 422 413 l 424 389 l 474 389 l 474 413 l 549 413 l 550 389 l 600 389 l 600 413 l 675 413 l 676 389 l 726 389 l 726 413 l 803 413 l 803 389 l 828 388 l 828 236 l 69 236 l 69 388 l 94 389 z "},"*":{"ha":897,"x_min":69,"x_max":828,"o":"m 94 454 l 94 479 l 169 479 l 171 454 l 196 454 l 196 606 l 69 606 l 69 757 l 94 758 l 94 782 l 169 782 l 171 758 l 196 758 l 196 908 l 221 910 l 221 933 l 296 933 l 297 910 l 322 910 l 322 1211 l 347 1213 l 347 1236 l 422 1236 l 424 1213 l 474 1213 l 474 1236 l 549 1236 l 550 1213 l 575 1211 l 575 910 l 600 910 l 600 933 l 675 933 l 676 910 l 701 910 l 701 1211 l 726 1213 l 726 1236 l 803 1236 l 803 1213 l 828 1211 l 828 910 l 701 908 l 701 758 l 726 758 l 726 782 l 803 782 l 803 758 l 828 757 l 828 606 l 701 606 l 701 454 l 575 454 l 575 151 l 322 151 l 322 454 l 196 454 l 196 151 l 69 151 l 69 454 l 94 454 m 726 454 l 726 479 l 803 479 l 803 454 l 828 454 l 828 151 l 701 151 l 701 454 l 726 454 m 94 1213 l 94 1236 l 169 1236 l 171 1213 l 196 1211 l 196 910 l 69 910 l 69 1211 l 94 1213 z "},"%":{"ha":897,"x_min":69,"x_max":828,"o":"m 94 151 l 94 176 l 169 176 l 171 151 l 196 151 l 196 454 l 221 454 l 221 479 l 296 479 l 297 454 l 322 454 l 322 606 l 347 606 l 347 631 l 422 631 l 424 606 l 449 606 l 449 908 l 474 910 l 474 933 l 549 933 l 550 910 l 575 910 l 575 1211 l 600 1213 l 600 1236 l 675 1236 l 676 1213 l 701 1213 l 701 1363 l 726 1364 l 726 1389 l 803 1389 l 803 1364 l 828 1363 l 828 1061 l 701 1060 l 701 758 l 575 757 l 575 454 l 449 454 l 449 303 l 322 303 l 322 0 l 69 0 l 69 151 l 94 151 m 600 303 l 600 328 l 675 328 l 676 303 l 726 303 l 726 328 l 803 328 l 803 303 l 828 303 l 828 0 l 575 0 l 575 303 l 600 303 m 94 1364 l 94 1389 l 169 1389 l 171 1364 l 221 1364 l 221 1389 l 296 1389 l 297 1364 l 322 1363 l 322 1061 l 69 1061 l 69 1363 l 94 1364 z "},"'":{"ha":392,"x_min":69,"x_max":322,"o":"m 69 1061 l 69 1364 l 94 1364 l 94 1389 l 169 1389 l 171 1364 l 221 1364 l 221 1389 l 296 1389 l 297 1364 l 322 1364 l 322 910 l 196 910 l 196 1061 l 69 1061 z "},"™":{"ha":897,"x_min":69,"x_max":828,"o":"m 94 606 l 94 631 l 169 631 l 171 606 l 196 606 l 196 757 l 69 758 l 69 908 l 94 910 l 94 933 l 169 933 l 171 910 l 196 910 l 196 1060 l 69 1061 l 69 1211 l 94 1213 l 94 1236 l 169 1236 l 171 1213 l 196 1213 l 196 1363 l 221 1364 l 221 1389 l 296 1389 l 297 1364 l 347 1364 l 347 1389 l 422 1389 l 424 1364 l 474 1364 l 474 1389 l 549 1389 l 550 1364 l 600 1364 l 600 1389 l 675 1389 l 676 1364 l 726 1364 l 726 1389 l 803 1389 l 803 1364 l 828 1363 l 828 1213 l 322 1211 l 322 1061 l 347 1061 l 347 1085 l 422 1085 l 424 1061 l 474 1061 l 474 1085 l 549 1085 l 550 1061 l 600 1061 l 600 1085 l 675 1085 l 676 1061 l 726 1061 l 726 1085 l 803 1085 l 803 1061 l 828 1060 l 828 910 l 322 908 l 322 758 l 347 758 l 347 782 l 422 782 l 424 758 l 474 758 l 474 782 l 549 782 l 550 758 l 600 758 l 600 782 l 675 782 l 676 758 l 726 758 l 726 782 l 803 782 l 803 758 l 828 757 l 828 606 l 196 606 l 196 303 l 221 303 l 221 328 l 296 328 l 297 303 l 347 303 l 347 328 l 422 328 l 424 303 l 474 303 l 474 328 l 549 328 l 550 303 l 600 303 l 600 328 l 675 328 l 676 303 l 726 303 l 726 328 l 803 328 l 803 303 l 828 303 l 828 151 l 196 151 l 196 0 l 69 0 l 69 606 l 94 606 z "},"(":{"ha":897,"x_min":69,"x_max":828,"o":"m 196 151 l 196 454 l 69 454 l 69 908 l 94 910 l 94 933 l 169 933 l 171 910 l 196 910 l 196 1211 l 221 1213 l 221 1236 l 296 1236 l 297 1213 l 322 1213 l 322 1363 l 347 1364 l 347 1389 l 422 1389 l 424 1364 l 474 1364 l 474 1389 l 549 1389 l 550 1364 l 600 1364 l 600 1389 l 675 1389 l 676 1364 l 726 1364 l 726 1389 l 803 1389 l 803 1364 l 828 1363 l 828 1213 l 449 1211 l 449 910 l 322 908 l 322 454 l 347 454 l 347 479 l 422 479 l 424 454 l 449 454 l 449 151 l 474 151 l 474 176 l 549 176 l 550 151 l 600 151 l 600 176 l 675 176 l 676 151 l 726 151 l 726 176 l 803 176 l 803 151 l 828 151 l 828 0 l 322 0 l 322 151 l 196 151 z "},"u":{"ha":897,"x_min":69,"x_max":828,"o":"m 69 151 l 69 908 l 94 910 l 94 933 l 169 933 l 171 910 l 196 908 l 196 303 l 221 303 l 221 328 l 296 328 l 297 303 l 322 303 l 322 151 l 347 151 l 347 176 l 422 176 l 424 151 l 474 151 l 474 176 l 549 176 l 550 151 l 575 151 l 575 303 l 600 303 l 600 328 l 675 328 l 676 303 l 701 303 l 701 908 l 726 910 l 726 933 l 803 933 l 803 910 l 828 908 l 828 151 l 701 151 l 701 0 l 196 0 l 196 151 l 69 151 z "},"c":{"ha":897,"x_min":69,"x_max":828,"o":"m 69 151 l 69 757 l 94 758 l 94 782 l 169 782 l 171 758 l 196 758 l 196 908 l 221 910 l 221 933 l 296 933 l 297 910 l 347 910 l 347 933 l 422 933 l 424 910 l 474 910 l 474 933 l 549 933 l 550 910 l 600 910 l 600 933 l 675 933 l 676 910 l 701 908 l 701 758 l 726 758 l 726 782 l 803 782 l 803 758 l 828 757 l 828 606 l 575 606 l 575 757 l 322 757 l 322 606 l 196 606 l 196 303 l 221 303 l 221 328 l 296 328 l 297 303 l 322 303 l 322 151 l 347 151 l 347 176 l 422 176 l 424 151 l 474 151 l 474 176 l 549 176 l 550 151 l 575 151 l 575 303 l 600 303 l 600 328 l 675 328 l 676 303 l 726 303 l 726 328 l 803 328 l 803 303 l 828 303 l 828 151 l 701 151 l 701 0 l 196 0 l 196 151 l 69 151 z "},"o":{"ha":897,"x_min":69,"x_max":828,"o":"m 69 151 l 69 757 l 94 758 l 94 782 l 169 782 l 171 758 l 196 758 l 196 908 l 221 910 l 221 933 l 296 933 l 297 910 l 347 910 l 347 933 l 422 933 l 424 910 l 474 910 l 474 933 l 549 933 l 550 910 l 600 910 l 600 933 l 675 933 l 676 910 l 701 908 l 701 758 l 726 758 l 726 782 l 803 782 l 803 758 l 828 757 l 828 151 l 701 151 l 701 0 l 196 0 l 196 151 l 69 151 m 322 151 l 347 151 l 347 176 l 422 176 l 424 151 l 474 151 l 474 176 l 549 176 l 550 151 l 575 151 l 575 303 l 600 303 l 600 328 l 675 328 l 676 303 l 701 303 l 701 606 l 575 606 l 575 757 l 322 757 l 322 606 l 196 606 l 196 303 l 221 303 l 221 328 l 296 328 l 297 303 l 322 303 l 322 151 z "},"e":{"ha":897,"x_min":69,"x_max":828,"o":"m 69 151 l 69 757 l 94 758 l 94 782 l 169 782 l 171 758 l 196 758 l 196 908 l 221 910 l 221 933 l 296 933 l 297 910 l 347 910 l 347 933 l 422 933 l 424 910 l 474 910 l 474 933 l 549 933 l 550 910 l 600 910 l 600 933 l 675 933 l 676 910 l 701 908 l 701 758 l 726 758 l 726 782 l 803 782 l 803 758 l 828 757 l 828 454 l 701 454 l 701 303 l 322 303 l 322 151 l 347 151 l 347 176 l 422 176 l 424 151 l 474 151 l 474 176 l 549 176 l 550 151 l 600 151 l 600 176 l 675 176 l 676 151 l 726 151 l 726 176 l 803 176 l 803 151 l 828 151 l 828 0 l 196 0 l 196 151 l 69 151 m 196 454 l 221 454 l 221 479 l 296 479 l 297 454 l 347 454 l 347 479 l 422 479 l 424 454 l 474 454 l 474 479 l 549 479 l 550 454 l 600 454 l 600 479 l 675 479 l 676 454 l 701 454 l 701 606 l 575 606 l 575 757 l 322 757 l 322 606 l 196 606 l 196 454 z "},"d":{"ha":897,"x_min":69,"x_max":828,"o":"m 69 151 l 69 757 l 94 758 l 94 782 l 169 782 l 171 758 l 196 758 l 196 908 l 221 910 l 221 933 l 296 933 l 297 910 l 347 910 l 347 933 l 422 933 l 424 910 l 474 910 l 474 933 l 549 933 l 550 910 l 600 910 l 600 933 l 675 933 l 676 910 l 701 910 l 701 1211 l 726 1213 l 726 1236 l 803 1236 l 803 1213 l 828 1211 l 828 0 l 196 0 l 196 151 l 69 151 m 322 151 l 347 151 l 347 176 l 422 176 l 424 151 l 474 151 l 474 176 l 549 176 l 550 151 l 575 151 l 575 303 l 600 303 l 600 328 l 675 328 l 676 303 l 701 303 l 701 606 l 575 606 l 575 757 l 322 757 l 322 606 l 196 606 l 196 303 l 221 303 l 221 328 l 296 328 l 297 303 l 322 303 l 322 151 z "},"b":{"ha":897,"x_min":69,"x_max":828,"o":"m 701 151 l 701 0 l 69 0 l 69 1211 l 94 1213 l 94 1236 l 171 1236 l 171 1213 l 196 1211 l 196 910 l 221 910 l 222 933 l 297 933 l 297 910 l 347 910 l 349 933 l 424 933 l 424 910 l 474 910 l 475 933 l 550 933 l 550 910 l 600 910 l 601 933 l 676 933 l 676 910 l 701 908 l 701 758 l 726 758 l 728 782 l 803 782 l 803 758 l 828 757 l 828 151 l 701 151 m 575 303 l 600 303 l 601 328 l 676 328 l 676 303 l 701 303 l 701 606 l 575 606 l 575 757 l 322 757 l 322 606 l 196 606 l 196 303 l 221 303 l 222 328 l 297 328 l 297 303 l 322 303 l 322 151 l 347 151 l 349 176 l 424 176 l 424 151 l 474 151 l 475 176 l 550 176 l 550 151 l 575 151 l 575 303 z "},"v":{"ha":897,"x_min":69,"x_max":828,"o":"m 347 151 l 347 176 l 422 176 l 424 151 l 474 151 l 474 176 l 549 176 l 550 151 l 575 151 l 575 606 l 600 606 l 600 631 l 675 631 l 676 606 l 701 606 l 701 908 l 726 910 l 726 933 l 803 933 l 803 910 l 828 908 l 828 454 l 701 454 l 701 151 l 575 151 l 575 0 l 322 0 l 322 151 l 347 151 m 69 454 l 69 908 l 94 910 l 94 933 l 169 933 l 171 910 l 196 908 l 196 606 l 221 606 l 221 631 l 296 631 l 297 606 l 322 606 l 322 151 l 196 151 l 196 454 l 69 454 z "},")":{"ha":897,"x_min":69,"x_max":828,"o":"m 575 151 l 575 0 l 69 0 l 69 151 l 94 151 l 94 176 l 171 176 l 171 151 l 221 151 l 222 176 l 297 176 l 297 151 l 347 151 l 349 176 l 424 176 l 424 151 l 449 151 l 449 454 l 474 454 l 475 479 l 550 479 l 550 454 l 575 454 l 575 908 l 449 910 l 449 1211 l 69 1213 l 69 1363 l 94 1364 l 94 1389 l 171 1389 l 171 1364 l 221 1364 l 222 1389 l 297 1389 l 297 1364 l 347 1364 l 349 1389 l 424 1389 l 424 1364 l 474 1364 l 475 1389 l 550 1389 l 550 1364 l 575 1363 l 575 1213 l 600 1213 l 601 1236 l 676 1236 l 676 1213 l 701 1211 l 701 910 l 726 910 l 728 933 l 803 933 l 803 910 l 828 908 l 828 454 l 701 454 l 701 151 l 575 151 z "},"r":{"ha":897,"x_min":69,"x_max":828,"o":"m 94 910 l 94 933 l 169 933 l 171 910 l 196 908 l 196 758 l 221 758 l 221 782 l 296 782 l 297 758 l 322 758 l 322 908 l 347 910 l 347 933 l 422 933 l 424 910 l 474 910 l 474 933 l 549 933 l 550 910 l 600 910 l 600 933 l 675 933 l 676 910 l 701 908 l 701 758 l 449 757 l 449 606 l 322 606 l 322 454 l 196 454 l 196 0 l 69 0 l 69 908 l 94 910 m 726 758 l 726 782 l 803 782 l 803 758 l 828 757 l 828 606 l 701 606 l 701 757 l 726 758 z "},"s":{"ha":897,"x_min":69,"x_max":828,"o":"m 94 303 l 94 328 l 169 328 l 171 303 l 196 303 l 196 151 l 221 151 l 221 176 l 296 176 l 297 151 l 347 151 l 347 176 l 422 176 l 424 151 l 474 151 l 474 176 l 549 176 l 550 151 l 575 151 l 575 303 l 322 303 l 322 454 l 69 454 l 69 757 l 94 758 l 94 782 l 169 782 l 171 758 l 196 758 l 196 908 l 221 910 l 221 933 l 296 933 l 297 910 l 347 910 l 347 933 l 422 933 l 424 910 l 474 910 l 474 933 l 549 933 l 550 910 l 600 910 l 600 933 l 675 933 l 676 910 l 701 908 l 701 758 l 726 758 l 726 782 l 803 782 l 803 758 l 828 757 l 828 606 l 575 606 l 575 757 l 322 757 l 322 606 l 347 606 l 347 631 l 422 631 l 424 606 l 449 606 l 449 454 l 474 454 l 474 479 l 549 479 l 550 454 l 600 454 l 600 479 l 675 479 l 676 454 l 701 454 l 701 303 l 726 303 l 726 328 l 803 328 l 803 303 l 828 303 l 828 151 l 701 151 l 701 0 l 69 0 l 69 303 l 94 303 z "},"t":{"ha":897,"x_min":69,"x_max":828,"o":"m 69 758 l 69 908 l 94 910 l 94 933 l 169 933 l 171 910 l 221 910 l 221 933 l 296 933 l 297 910 l 322 910 l 322 1211 l 347 1213 l 347 1236 l 422 1236 l 424 1213 l 449 1211 l 449 910 l 474 910 l 474 933 l 549 933 l 550 910 l 600 910 l 600 933 l 675 933 l 676 910 l 701 908 l 701 758 l 449 757 l 449 151 l 474 151 l 474 176 l 549 176 l 550 151 l 600 151 l 600 176 l 675 176 l 676 151 l 701 151 l 701 303 l 726 303 l 726 328 l 803 328 l 803 303 l 828 303 l 828 151 l 701 151 l 701 0 l 322 0 l 322 757 l 69 758 z "},",":{"ha":392,"x_min":69,"x_max":322,"o":"m 69 0 l 69 151 l 94 151 l 94 176 l 169 176 l 171 151 l 221 151 l 221 176 l 296 176 l 297 151 l 322 151 l 322 -151 l 196 -151 l 196 0 l 69 0 z "},"p":{"ha":897,"x_min":69,"x_max":828,"o":"m 94 757 l 94 781 l 169 781 l 171 757 l 196 757 l 196 907 l 221 908 l 221 933 l 296 933 l 297 908 l 347 908 l 347 933 l 422 933 l 424 908 l 474 908 l 474 933 l 549 933 l 550 908 l 600 908 l 600 933 l 675 933 l 676 908 l 701 907 l 701 757 l 726 757 l 726 781 l 803 781 l 803 757 l 828 756 l 828 150 l 701 150 l 701 -1 l 196 -1 l 196 -456 l 69 -456 l 69 756 l 94 757 m 196 150 l 221 150 l 221 175 l 296 175 l 297 150 l 347 150 l 347 175 l 422 175 l 424 150 l 474 150 l 474 175 l 549 175 l 550 150 l 575 150 l 575 301 l 600 303 l 600 326 l 675 326 l 676 303 l 701 303 l 701 604 l 575 606 l 575 756 l 322 756 l 322 606 l 196 604 l 196 150 z "},"z":{"ha":897,"x_min":69,"x_max":828,"o":"m 94 303 l 94 328 l 169 328 l 171 303 l 196 303 l 196 454 l 221 454 l 221 479 l 296 479 l 297 454 l 347 454 l 347 479 l 422 479 l 424 454 l 449 454 l 449 606 l 474 606 l 474 631 l 549 631 l 550 606 l 575 606 l 575 757 l 69 758 l 69 908 l 94 910 l 94 933 l 169 933 l 171 910 l 221 910 l 221 933 l 296 933 l 297 910 l 347 910 l 347 933 l 422 933 l 424 910 l 474 910 l 474 933 l 549 933 l 550 910 l 600 910 l 600 933 l 675 933 l 676 910 l 726 910 l 726 933 l 803 933 l 803 910 l 828 908 l 828 606 l 701 606 l 701 454 l 575 454 l 575 303 l 322 303 l 322 151 l 347 151 l 347 176 l 422 176 l 424 151 l 474 151 l 474 176 l 549 176 l 550 151 l 600 151 l 600 176 l 675 176 l 676 151 l 726 151 l 726 176 l 803 176 l 803 151 l 828 151 l 828 0 l 69 0 l 69 303 l 94 303 z "},"w":{"ha":897,"x_min":69,"x_max":828,"o":"m 69 151 l 69 908 l 94 910 l 94 933 l 169 933 l 171 910 l 196 908 l 196 303 l 221 303 l 221 328 l 296 328 l 297 303 l 322 303 l 322 606 l 347 606 l 347 631 l 422 631 l 424 606 l 474 606 l 474 631 l 549 631 l 550 606 l 575 606 l 575 303 l 600 303 l 600 328 l 675 328 l 676 303 l 701 303 l 701 908 l 726 910 l 726 933 l 803 933 l 803 910 l 828 908 l 828 151 l 701 151 l 701 0 l 575 0 l 575 151 l 322 151 l 322 0 l 196 0 l 196 151 l 69 151 z "},"œ":{"ha":1794,"x_min":69,"x_max":1725,"o":"m 69 151 l 69 757 l 94 758 l 94 782 l 169 782 l 171 758 l 196 758 l 196 908 l 221 910 l 221 933 l 296 933 l 297 910 l 347 910 l 347 933 l 422 933 l 424 910 l 474 910 l 474 933 l 549 933 l 550 910 l 600 910 l 600 933 l 675 933 l 676 910 l 701 908 l 701 758 l 726 758 l 726 782 l 803 782 l 803 758 l 828 757 l 828 151 l 701 151 l 701 0 l 196 0 l 196 151 l 69 151 m 322 151 l 347 151 l 347 176 l 422 176 l 424 151 l 474 151 l 474 176 l 549 176 l 550 151 l 575 151 l 575 303 l 600 303 l 600 328 l 675 328 l 676 303 l 701 303 l 701 606 l 575 606 l 575 757 l 322 757 l 322 606 l 196 606 l 196 303 l 221 303 l 221 328 l 296 328 l 297 303 l 322 303 l 322 151 m 967 151 l 967 757 l 992 758 l 992 782 l 1067 782 l 1068 758 l 1093 758 l 1093 908 l 1118 910 l 1118 933 l 1193 933 l 1194 910 l 1244 910 l 1244 933 l 1319 933 l 1321 910 l 1371 910 l 1371 933 l 1446 933 l 1447 910 l 1497 910 l 1497 933 l 1572 933 l 1574 910 l 1599 908 l 1599 758 l 1624 758 l 1624 782 l 1700 782 l 1700 758 l 1725 757 l 1725 454 l 1599 454 l 1599 303 l 1219 303 l 1219 151 l 1244 151 l 1244 176 l 1319 176 l 1321 151 l 1371 151 l 1371 176 l 1446 176 l 1447 151 l 1497 151 l 1497 176 l 1572 176 l 1574 151 l 1624 151 l 1624 176 l 1700 176 l 1700 151 l 1725 151 l 1725 0 l 1093 0 l 1093 151 l 967 151 m 1093 454 l 1118 454 l 1118 479 l 1193 479 l 1194 454 l 1244 454 l 1244 479 l 1319 479 l 1321 454 l 1371 454 l 1371 479 l 1446 479 l 1447 454 l 1497 454 l 1497 479 l 1572 479 l 1574 454 l 1599 454 l 1599 606 l 1472 606 l 1472 757 l 1219 757 l 1219 606 l 1093 606 l 1093 454 z "},"Š":{"ha":897,"x_min":69,"x_max":828,"o":"m 69 151 l 69 303 l 94 303 l 94 328 l 169 328 l 171 303 l 221 303 l 221 328 l 296 328 l 297 303 l 322 303 l 322 151 l 347 151 l 347 176 l 422 176 l 424 151 l 474 151 l 474 176 l 549 176 l 550 151 l 575 151 l 575 454 l 449 454 l 449 606 l 322 606 l 322 757 l 196 758 l 196 908 l 69 910 l 69 1211 l 94 1213 l 94 1236 l 169 1236 l 171 1213 l 196 1213 l 196 1363 l 221 1364 l 221 1389 l 296 1389 l 297 1364 l 347 1364 l 347 1389 l 422 1389 l 424 1364 l 474 1364 l 474 1389 l 549 1389 l 550 1364 l 600 1364 l 600 1389 l 675 1389 l 676 1364 l 701 1363 l 701 1213 l 726 1213 l 726 1236 l 803 1236 l 803 1213 l 828 1211 l 828 1061 l 575 1061 l 575 1211 l 322 1211 l 322 910 l 347 910 l 347 933 l 422 933 l 424 910 l 449 908 l 449 758 l 474 758 l 474 782 l 549 782 l 550 758 l 575 757 l 575 606 l 600 606 l 600 631 l 675 631 l 676 606 l 701 606 l 701 454 l 726 454 l 726 479 l 803 479 l 803 454 l 828 454 l 828 151 l 701 151 l 701 0 l 196 0 l 196 151 l 69 151 z "},"š":{"ha":897,"x_min":69,"x_max":828,"o":"m 94 303 l 94 328 l 169 328 l 171 303 l 196 303 l 196 151 l 221 151 l 221 176 l 296 176 l 297 151 l 347 151 l 347 176 l 422 176 l 424 151 l 474 151 l 474 176 l 549 176 l 550 151 l 575 151 l 575 303 l 322 303 l 322 454 l 69 454 l 69 757 l 94 758 l 94 782 l 169 782 l 171 758 l 196 758 l 196 908 l 221 910 l 221 933 l 296 933 l 297 910 l 347 910 l 347 933 l 422 933 l 424 910 l 474 910 l 474 933 l 549 933 l 550 910 l 600 910 l 600 933 l 675 933 l 676 910 l 701 908 l 701 758 l 726 758 l 726 782 l 803 782 l 803 758 l 828 757 l 828 606 l 575 606 l 575 757 l 322 757 l 322 606 l 347 606 l 347 631 l 422 631 l 424 606 l 449 606 l 449 454 l 474 454 l 474 479 l 549 479 l 550 454 l 600 454 l 600 479 l 675 479 l 676 454 l 701 454 l 701 303 l 726 303 l 726 328 l 803 328 l 803 303 l 828 303 l 828 151 l 701 151 l 701 0 l 69 0 l 69 303 l 94 303 z "},"/":{"ha":897,"x_min":69,"x_max":828,"o":"m 94 151 l 94 176 l 169 176 l 171 151 l 196 151 l 196 454 l 221 454 l 221 479 l 296 479 l 297 454 l 322 454 l 322 606 l 347 606 l 347 631 l 422 631 l 424 606 l 449 606 l 449 908 l 474 910 l 474 933 l 549 933 l 550 910 l 575 910 l 575 1211 l 600 1213 l 600 1236 l 675 1236 l 676 1213 l 701 1213 l 701 1363 l 726 1364 l 726 1389 l 803 1389 l 803 1364 l 828 1363 l 828 1061 l 701 1060 l 701 758 l 575 757 l 575 454 l 449 454 l 449 303 l 322 303 l 322 0 l 69 0 l 69 151 l 94 151 z "},"®":{"ha":1471,"x_min":42,"x_max":1429,"o":"m 425 383 l 425 0 l 42 0 l 42 383 l 425 383 m 536 47 l 536 0 l 486 0 l 486 47 l 536 47 m 649 53 l 649 108 l 704 108 l 704 218 l 649 218 l 649 113 l 597 113 l 597 160 l 539 160 l 539 113 l 486 113 l 486 163 l 539 163 l 539 221 l 593 221 l 593 332 l 483 332 l 483 443 l 261 443 l 261 497 l 204 497 l 204 556 l 42 556 l 42 607 l 201 607 l 201 665 l 150 665 l 150 722 l 96 722 l 96 781 l 261 781 l 261 888 l 315 888 l 315 832 l 425 832 l 425 781 l 374 781 l 374 722 l 318 722 l 318 668 l 374 668 l 374 722 l 483 722 l 483 890 l 539 890 l 539 1001 l 593 1001 l 593 1053 l 539 1053 l 539 1006 l 486 1006 l 486 1114 l 539 1114 l 539 1168 l 597 1168 l 597 1226 l 647 1226 l 647 1275 l 597 1275 l 597 1229 l 486 1229 l 486 1281 l 597 1281 l 597 1336 l 649 1336 l 649 1388 l 761 1388 l 761 1336 l 707 1336 l 707 1226 l 649 1226 l 649 1168 l 600 1168 l 600 1117 l 649 1117 l 649 1168 l 707 1168 l 707 1226 l 764 1226 l 764 1281 l 874 1281 l 874 1388 l 985 1388 l 985 1281 l 874 1281 l 874 1226 l 822 1226 l 822 1168 l 710 1168 l 710 1117 l 822 1117 l 822 1164 l 871 1164 l 871 1001 l 822 1001 l 822 950 l 768 950 l 768 1001 l 817 1001 l 817 1053 l 764 1053 l 764 1001 l 707 1001 l 707 946 l 653 946 l 653 890 l 707 890 l 707 785 l 764 785 l 764 832 l 874 832 l 874 943 l 985 943 l 985 890 l 932 890 l 932 781 l 878 781 l 878 726 l 932 726 l 932 781 l 986 781 l 986 890 l 1097 890 l 1097 943 l 1151 943 l 1151 832 l 1043 832 l 1043 722 l 992 722 l 992 668 l 1043 668 l 1043 719 l 1151 719 l 1151 607 l 1101 607 l 1101 500 l 1156 500 l 1156 556 l 1210 556 l 1210 607 l 1321 607 l 1321 665 l 1378 665 l 1378 719 l 1429 719 l 1429 558 l 1378 558 l 1378 606 l 1321 606 l 1321 556 l 1213 556 l 1213 389 l 1268 389 l 1268 443 l 1321 443 l 1321 494 l 1374 494 l 1374 443 l 1321 443 l 1321 386 l 1268 386 l 1268 332 l 1213 332 l 1213 274 l 1268 274 l 1268 221 l 1317 221 l 1317 163 l 1210 163 l 1210 53 l 1097 53 l 1097 0 l 1047 0 l 1047 53 l 1097 53 l 1097 108 l 1151 108 l 1151 218 l 1043 218 l 1043 108 l 986 108 l 986 0 l 768 0 l 768 53 l 817 53 l 817 104 l 764 104 l 764 53 l 649 53 l 649 0 l 600 0 l 600 53 l 649 53 m 1264 47 l 1264 0 l 1213 0 l 1213 47 l 1264 47 m 1429 47 l 1429 0 l 1382 0 l 1382 47 l 1429 47 m 96 56 l 371 56 l 371 331 l 96 331 l 96 56 m 874 56 l 932 56 l 932 108 l 985 108 l 985 163 l 932 163 l 932 221 l 878 221 l 878 332 l 932 332 l 932 556 l 1040 556 l 1040 606 l 932 606 l 932 558 l 874 558 l 874 663 l 822 663 l 822 556 l 764 556 l 764 497 l 649 497 l 649 443 l 600 443 l 600 386 l 704 386 l 704 332 l 653 332 l 653 278 l 764 278 l 764 331 l 817 331 l 817 221 l 768 221 l 768 163 l 874 163 l 874 56 m 313 272 l 313 113 l 154 113 l 154 272 l 313 272 m 1429 160 l 1429 113 l 1324 113 l 1324 160 l 1429 160 m 992 278 l 1151 278 l 1151 439 l 992 439 l 992 278 m 1378 332 l 1378 439 l 1429 439 l 1429 278 l 1324 278 l 1324 332 l 1378 332 m 1093 383 l 1093 336 l 1047 336 l 1047 383 l 1093 383 m 871 494 l 871 443 l 822 443 l 822 389 l 768 389 l 768 494 l 871 494 m 146 494 l 146 444 l 42 444 l 42 494 l 146 494 m 318 500 l 649 500 l 649 556 l 704 556 l 704 665 l 649 665 l 649 719 l 483 719 l 483 665 l 376 665 l 376 607 l 425 607 l 425 556 l 318 556 l 318 500 m 265 558 l 313 558 l 313 606 l 265 606 l 265 558 m 593 606 l 593 558 l 542 558 l 542 606 l 593 606 m 768 668 l 817 668 l 817 776 l 768 776 l 768 668 m 1158 781 l 1158 832 l 1210 832 l 1210 890 l 1268 890 l 1268 943 l 1317 943 l 1317 890 l 1271 890 l 1271 836 l 1321 836 l 1321 890 l 1378 890 l 1378 943 l 1429 943 l 1429 785 l 1378 785 l 1378 829 l 1321 829 l 1321 781 l 1268 781 l 1268 726 l 1210 726 l 1210 781 l 1158 781 m 542 785 l 647 785 l 647 832 l 597 832 l 597 888 l 542 888 l 542 785 m 94 943 l 94 894 l 150 894 l 150 943 l 201 943 l 201 836 l 42 836 l 42 943 l 94 943 m 481 943 l 481 894 l 376 894 l 376 943 l 481 943 m 425 1388 l 425 1006 l 42 1006 l 42 1388 l 425 1388 m 653 1006 l 704 1006 l 704 1053 l 653 1053 l 653 1006 m 985 1053 l 985 1006 l 935 1006 l 935 1053 l 985 1053 m 1429 1388 l 1429 1006 l 1047 1006 l 1047 1388 l 1429 1388 m 96 1060 l 371 1060 l 371 1333 l 96 1333 l 96 1060 m 1101 1060 l 1374 1060 l 1374 1333 l 1101 1333 l 1101 1060 m 313 1275 l 313 1117 l 154 1117 l 154 1275 l 313 1275 m 985 1222 l 985 1117 l 935 1117 l 935 1222 l 985 1222 m 1317 1275 l 1317 1117 l 1158 1117 l 1158 1275 l 1317 1275 m 593 1388 l 593 1340 l 486 1340 l 486 1388 l 593 1388 z "},"?":{"ha":897,"x_min":69,"x_max":828,"o":"m 347 151 l 347 176 l 422 176 l 424 151 l 474 151 l 474 176 l 549 176 l 550 151 l 575 151 l 575 0 l 322 0 l 322 151 l 347 151 m 347 758 l 347 782 l 422 782 l 424 758 l 449 758 l 449 908 l 474 910 l 474 933 l 549 933 l 550 910 l 575 910 l 575 1211 l 322 1211 l 322 1061 l 69 1061 l 69 1211 l 94 1213 l 94 1236 l 169 1236 l 171 1213 l 196 1213 l 196 1363 l 221 1364 l 221 1389 l 296 1389 l 297 1364 l 347 1364 l 347 1389 l 422 1389 l 424 1364 l 474 1364 l 474 1389 l 549 1389 l 550 1364 l 600 1364 l 600 1389 l 675 1389 l 676 1364 l 701 1363 l 701 1213 l 726 1213 l 726 1236 l 803 1236 l 803 1213 l 828 1211 l 828 910 l 701 908 l 701 758 l 575 757 l 575 303 l 322 303 l 322 757 l 347 758 z "},"n":{"ha":897,"x_min":69,"x_max":828,"o":"m 94 910 l 94 933 l 169 933 l 171 910 l 221 910 l 221 933 l 296 933 l 297 910 l 347 910 l 347 933 l 422 933 l 424 910 l 474 910 l 474 933 l 549 933 l 550 910 l 600 910 l 600 933 l 675 933 l 676 910 l 701 908 l 701 758 l 726 758 l 726 782 l 803 782 l 803 758 l 828 757 l 828 0 l 701 0 l 701 606 l 575 606 l 575 757 l 196 757 l 196 0 l 69 0 l 69 908 l 94 910 z "},"h":{"ha":897,"x_min":69,"x_max":828,"o":"m 94 1213 l 94 1236 l 169 1236 l 171 1213 l 196 1211 l 196 910 l 221 910 l 221 933 l 296 933 l 297 910 l 347 910 l 347 933 l 422 933 l 424 910 l 474 910 l 474 933 l 549 933 l 550 910 l 600 910 l 600 933 l 675 933 l 676 910 l 701 908 l 701 758 l 726 758 l 726 782 l 803 782 l 803 758 l 828 757 l 828 0 l 701 0 l 701 606 l 575 606 l 575 757 l 322 757 l 322 606 l 196 606 l 196 0 l 69 0 l 69 1211 l 94 1213 z "},"a":{"ha":897,"x_min":69,"x_max":828,"o":"m 221 151 l 221 176 l 296 176 l 297 151 l 347 151 l 347 176 l 422 176 l 424 151 l 474 151 l 474 176 l 549 176 l 550 151 l 600 151 l 600 176 l 675 176 l 676 151 l 701 151 l 701 454 l 196 454 l 196 151 l 69 151 l 69 454 l 94 454 l 94 479 l 169 479 l 171 454 l 196 454 l 196 606 l 221 606 l 221 631 l 296 631 l 297 606 l 347 606 l 347 631 l 422 631 l 424 606 l 474 606 l 474 631 l 549 631 l 550 606 l 600 606 l 600 631 l 675 631 l 676 606 l 701 606 l 701 757 l 196 758 l 196 908 l 221 910 l 221 933 l 296 933 l 297 910 l 347 910 l 347 933 l 422 933 l 424 910 l 474 910 l 474 933 l 549 933 l 550 910 l 600 910 l 600 933 l 675 933 l 676 910 l 726 910 l 726 933 l 803 933 l 803 910 l 828 908 l 828 0 l 196 0 l 196 151 l 221 151 z "},"ª":{"ha":897,"x_min":69,"x_max":828,"o":"m 221 151 l 221 176 l 296 176 l 297 151 l 347 151 l 347 176 l 422 176 l 424 151 l 474 151 l 474 176 l 549 176 l 550 151 l 575 151 l 575 303 l 600 303 l 600 328 l 675 328 l 676 303 l 701 303 l 701 454 l 575 454 l 575 606 l 600 606 l 600 631 l 675 631 l 676 606 l 701 606 l 701 908 l 726 910 l 726 933 l 803 933 l 803 910 l 828 908 l 828 0 l 701 0 l 701 151 l 575 151 l 575 0 l 196 0 l 196 151 l 221 151 m 94 606 l 94 631 l 169 631 l 171 606 l 196 606 l 196 757 l 221 758 l 221 782 l 296 782 l 297 758 l 347 758 l 347 782 l 422 782 l 424 758 l 474 758 l 474 782 l 549 782 l 550 758 l 575 757 l 575 606 l 196 606 l 196 151 l 69 151 l 69 606 l 94 606 m 221 1061 l 221 1085 l 296 1085 l 297 1061 l 347 1061 l 347 1085 l 422 1085 l 424 1061 l 474 1061 l 474 1085 l 549 1085 l 550 1061 l 600 1061 l 600 1085 l 675 1085 l 676 1061 l 701 1060 l 701 910 l 196 910 l 196 1060 l 221 1061 z "},"q":{"ha":897,"x_min":69,"x_max":828,"o":"m 196 25 l 196 176 l 69 176 l 69 782 l 94 783 l 94 807 l 169 807 l 171 783 l 196 783 l 196 933 l 221 935 l 221 960 l 296 960 l 297 935 l 347 935 l 347 960 l 422 960 l 424 935 l 474 935 l 474 960 l 549 960 l 550 935 l 600 935 l 600 960 l 675 960 l 676 935 l 701 933 l 701 783 l 726 783 l 726 807 l 803 807 l 803 783 l 828 782 l 828 176 l 701 176 l 701 25 l 575 25 l 575 -278 l 600 -278 l 600 -253 l 675 -253 l 676 -278 l 701 -278 l 701 -126 l 726 -126 l 726 -101 l 803 -101 l 803 -126 l 828 -126 l 828 -278 l 701 -278 l 701 -429 l 449 -429 l 449 25 l 196 25 m 322 176 l 347 176 l 347 201 l 422 201 l 424 176 l 474 176 l 474 201 l 549 201 l 550 176 l 575 176 l 575 328 l 600 329 l 600 353 l 675 353 l 676 329 l 701 329 l 701 631 l 575 632 l 575 782 l 322 782 l 322 632 l 196 631 l 196 329 l 221 329 l 221 353 l 296 353 l 297 329 l 322 328 l 322 176 z "},"æ":{"ha":1794,"x_min":69,"x_max":1586,"o":"m 221 151 l 221 176 l 296 176 l 297 151 l 347 151 l 347 176 l 422 176 l 424 151 l 474 151 l 474 176 l 549 176 l 550 151 l 600 151 l 600 176 l 675 176 l 676 151 l 701 151 l 701 454 l 196 454 l 196 151 l 69 151 l 69 454 l 94 454 l 94 479 l 169 479 l 171 454 l 196 454 l 196 606 l 221 606 l 221 631 l 296 631 l 297 606 l 347 606 l 347 631 l 422 631 l 424 606 l 474 606 l 474 631 l 549 631 l 550 606 l 600 606 l 600 631 l 675 631 l 676 606 l 701 606 l 701 757 l 196 758 l 196 908 l 221 910 l 221 933 l 296 933 l 297 910 l 347 910 l 347 933 l 422 933 l 424 910 l 474 910 l 474 933 l 549 933 l 550 910 l 600 910 l 600 933 l 675 933 l 676 910 l 726 910 l 726 933 l 803 933 l 803 910 l 828 908 l 828 0 l 196 0 l 196 151 l 221 151 m 828 151 l 828 757 l 853 758 l 853 782 l 928 782 l 929 758 l 954 758 l 954 908 l 979 910 l 979 933 l 1054 933 l 1056 910 l 1106 910 l 1106 933 l 1181 933 l 1182 910 l 1232 910 l 1232 933 l 1307 933 l 1308 910 l 1358 910 l 1358 933 l 1433 933 l 1435 910 l 1460 908 l 1460 758 l 1485 758 l 1485 782 l 1561 782 l 1561 758 l 1586 757 l 1586 454 l 1460 454 l 1460 303 l 1081 303 l 1081 151 l 1106 151 l 1106 176 l 1181 176 l 1182 151 l 1232 151 l 1232 176 l 1307 176 l 1308 151 l 1358 151 l 1358 176 l 1433 176 l 1435 151 l 1485 151 l 1485 176 l 1561 176 l 1561 151 l 1586 151 l 1586 0 l 954 0 l 954 151 l 828 151 m 954 454 l 979 454 l 979 479 l 1054 479 l 1056 454 l 1106 454 l 1106 479 l 1181 479 l 1182 454 l 1232 454 l 1232 479 l 1307 479 l 1308 454 l 1358 454 l 1358 479 l 1433 479 l 1435 454 l 1460 454 l 1460 606 l 1333 606 l 1333 757 l 1081 757 l 1081 606 l 954 606 l 954 454 z "},"¸":{"ha":644,"x_min":69,"x_max":575,"o":"m 94 -478 l 94 -453 l 169 -453 l 171 -478 l 221 -478 l 221 -453 l 296 -453 l 297 -478 l 347 -478 l 347 -453 l 422 -453 l 424 -478 l 449 -478 l 449 -326 l 196 -326 l 196 -24 l 221 -24 l 221 1 l 296 1 l 297 -24 l 322 -24 l 322 -175 l 347 -175 l 347 -150 l 422 -150 l 424 -175 l 474 -175 l 474 -150 l 550 -150 l 550 -175 l 575 -175 l 575 -478 l 449 -478 l 449 -629 l 69 -629 l 69 -478 l 94 -478 z "},"ë":{"ha":897,"x_min":67,"x_max":829,"o":"m 69 151 l 69 757 l 94 758 l 94 782 l 169 782 l 171 758 l 196 758 l 196 908 l 221 910 l 221 933 l 296 933 l 297 910 l 347 910 l 347 933 l 422 933 l 424 910 l 474 910 l 474 933 l 549 933 l 550 910 l 600 910 l 600 933 l 675 933 l 676 910 l 701 908 l 701 758 l 726 758 l 726 782 l 803 782 l 803 758 l 828 757 l 828 454 l 701 454 l 701 303 l 322 303 l 322 151 l 347 151 l 347 176 l 422 176 l 424 151 l 474 151 l 474 176 l 549 176 l 550 151 l 600 151 l 600 176 l 675 176 l 676 151 l 726 151 l 726 176 l 803 176 l 803 151 l 828 151 l 828 0 l 196 0 l 196 151 l 69 151 m 196 454 l 221 454 l 221 479 l 296 479 l 297 454 l 347 454 l 347 479 l 422 479 l 424 454 l 474 454 l 474 479 l 549 479 l 550 454 l 600 454 l 600 479 l 675 479 l 676 454 l 701 454 l 701 606 l 575 606 l 575 757 l 322 757 l 322 606 l 196 606 l 196 454 m 92 1363 l 92 1388 l 167 1388 l 168 1363 l 218 1363 l 218 1388 l 293 1388 l 294 1363 l 319 1363 l 319 1211 l 67 1211 l 67 1363 l 92 1363 m 601 1363 l 601 1388 l 676 1388 l 678 1363 l 728 1363 l 728 1388 l 803 1388 l 804 1363 l 829 1363 l 829 1211 l 576 1211 l 576 1363 l 601 1363 z "},"ä":{"ha":897,"x_min":67,"x_max":829,"o":"m 221 151 l 221 176 l 296 176 l 297 151 l 347 151 l 347 176 l 422 176 l 424 151 l 474 151 l 474 176 l 549 176 l 550 151 l 600 151 l 600 176 l 675 176 l 676 151 l 701 151 l 701 454 l 196 454 l 196 151 l 69 151 l 69 454 l 94 454 l 94 479 l 169 479 l 171 454 l 196 454 l 196 606 l 221 606 l 221 631 l 296 631 l 297 606 l 347 606 l 347 631 l 422 631 l 424 606 l 474 606 l 474 631 l 549 631 l 550 606 l 600 606 l 600 631 l 675 631 l 676 606 l 701 606 l 701 757 l 196 758 l 196 908 l 221 910 l 221 933 l 296 933 l 297 910 l 347 910 l 347 933 l 422 933 l 424 910 l 474 910 l 474 933 l 549 933 l 550 910 l 600 910 l 600 933 l 675 933 l 676 910 l 726 910 l 726 933 l 803 933 l 803 910 l 828 908 l 828 0 l 196 0 l 196 151 l 221 151 m 92 1363 l 92 1388 l 167 1388 l 168 1363 l 218 1363 l 218 1388 l 293 1388 l 294 1363 l 319 1363 l 319 1211 l 67 1211 l 67 1363 l 92 1363 m 601 1363 l 601 1388 l 676 1388 l 678 1363 l 728 1363 l 728 1388 l 803 1388 l 804 1363 l 829 1363 l 829 1211 l 576 1211 l 576 1363 l 601 1363 z "},"ï":{"ha":518,"x_min":-121,"x_max":642,"o":"m 94 151 l 94 176 l 169 176 l 171 151 l 196 151 l 196 757 l 69 758 l 69 908 l 94 910 l 94 933 l 169 933 l 171 910 l 221 910 l 221 933 l 296 933 l 297 910 l 322 908 l 322 151 l 347 151 l 347 176 l 422 176 l 424 151 l 449 151 l 449 0 l 69 0 l 69 151 l 94 151 m 221 1211 l 221 1235 l 296 1235 l 297 1211 l 322 1210 l 322 1060 l 196 1060 l 196 1210 l 221 1211 m -96 1363 l -96 1388 l -21 1388 l -19 1363 l 31 1363 l 31 1388 l 106 1388 l 107 1363 l 132 1363 l 132 1211 l -121 1211 l -121 1363 l -96 1363 m 414 1363 l 414 1388 l 489 1388 l 490 1363 l 540 1363 l 540 1388 l 615 1388 l 617 1363 l 642 1363 l 642 1211 l 389 1211 l 389 1363 l 414 1363 z "},"ö":{"ha":897,"x_min":67,"x_max":829,"o":"m 69 151 l 69 757 l 94 758 l 94 782 l 169 782 l 171 758 l 196 758 l 196 908 l 221 910 l 221 933 l 296 933 l 297 910 l 347 910 l 347 933 l 422 933 l 424 910 l 474 910 l 474 933 l 549 933 l 550 910 l 600 910 l 600 933 l 675 933 l 676 910 l 701 908 l 701 758 l 726 758 l 726 782 l 803 782 l 803 758 l 828 757 l 828 151 l 701 151 l 701 0 l 196 0 l 196 151 l 69 151 m 322 151 l 347 151 l 347 176 l 422 176 l 424 151 l 474 151 l 474 176 l 549 176 l 550 151 l 575 151 l 575 303 l 600 303 l 600 328 l 675 328 l 676 303 l 701 303 l 701 606 l 575 606 l 575 757 l 322 757 l 322 606 l 196 606 l 196 303 l 221 303 l 221 328 l 296 328 l 297 303 l 322 303 l 322 151 m 92 1363 l 92 1388 l 167 1388 l 168 1363 l 218 1363 l 218 1388 l 293 1388 l 294 1363 l 319 1363 l 319 1211 l 67 1211 l 67 1363 l 92 1363 m 601 1363 l 601 1388 l 676 1388 l 678 1363 l 728 1363 l 728 1388 l 803 1388 l 804 1363 l 829 1363 l 829 1211 l 576 1211 l 576 1363 l 601 1363 z "},"ü":{"ha":897,"x_min":67,"x_max":829,"o":"m 69 151 l 69 908 l 94 910 l 94 933 l 169 933 l 171 910 l 196 908 l 196 303 l 221 303 l 221 328 l 296 328 l 297 303 l 322 303 l 322 151 l 347 151 l 347 176 l 422 176 l 424 151 l 474 151 l 474 176 l 549 176 l 550 151 l 575 151 l 575 303 l 600 303 l 600 328 l 675 328 l 676 303 l 701 303 l 701 908 l 726 910 l 726 933 l 803 933 l 803 910 l 828 908 l 828 151 l 701 151 l 701 0 l 196 0 l 196 151 l 69 151 m 92 1363 l 92 1388 l 167 1388 l 168 1363 l 218 1363 l 218 1388 l 293 1388 l 294 1363 l 319 1363 l 319 1211 l 67 1211 l 67 1363 l 92 1363 m 601 1363 l 601 1388 l 676 1388 l 678 1363 l 728 1363 l 728 1388 l 803 1388 l 804 1363 l 829 1363 l 829 1211 l 576 1211 l 576 1363 l 601 1363 z "},"ÿ":{"ha":897,"x_min":67,"x_max":829,"o":"m 221 -301 l 221 -276 l 296 -276 l 297 -301 l 347 -301 l 347 -276 l 422 -276 l 424 -301 l 474 -301 l 474 -276 l 549 -276 l 550 -301 l 575 -301 l 575 1 l 322 1 l 322 153 l 347 153 l 347 178 l 422 178 l 424 153 l 474 153 l 474 178 l 549 178 l 550 153 l 575 153 l 575 456 l 600 457 l 600 481 l 675 481 l 676 457 l 701 457 l 701 910 l 726 911 l 726 936 l 803 936 l 803 911 l 828 910 l 828 457 l 701 456 l 701 -301 l 575 -301 l 575 -453 l 196 -453 l 196 -301 l 221 -301 m 221 457 l 221 481 l 296 481 l 297 457 l 322 456 l 322 153 l 196 153 l 196 456 l 221 457 m 94 911 l 94 936 l 169 936 l 171 911 l 196 910 l 196 457 l 69 457 l 69 910 l 94 911 m 92 1363 l 92 1388 l 167 1388 l 168 1363 l 218 1363 l 218 1388 l 293 1388 l 294 1363 l 319 1363 l 319 1211 l 67 1211 l 67 1363 l 92 1363 m 601 1363 l 601 1388 l 676 1388 l 678 1363 l 728 1363 l 728 1388 l 803 1388 l 804 1363 l 829 1363 l 829 1211 l 576 1211 l 576 1363 l 601 1363 z "},"é":{"ha":897,"x_min":69,"x_max":828,"o":"m 69 151 l 69 757 l 94 758 l 94 782 l 169 782 l 171 758 l 196 758 l 196 908 l 221 910 l 221 933 l 296 933 l 297 910 l 347 910 l 347 933 l 422 933 l 424 910 l 474 910 l 474 933 l 549 933 l 550 910 l 600 910 l 600 933 l 675 933 l 676 910 l 701 908 l 701 758 l 726 758 l 726 782 l 803 782 l 803 758 l 828 757 l 828 454 l 701 454 l 701 303 l 322 303 l 322 151 l 347 151 l 347 176 l 422 176 l 424 151 l 474 151 l 474 176 l 549 176 l 550 151 l 600 151 l 600 176 l 675 176 l 676 151 l 726 151 l 726 176 l 803 176 l 803 151 l 828 151 l 828 0 l 196 0 l 196 151 l 69 151 m 196 454 l 221 454 l 221 479 l 296 479 l 297 454 l 347 454 l 347 479 l 422 479 l 424 454 l 474 454 l 474 479 l 549 479 l 550 454 l 600 454 l 600 479 l 675 479 l 676 454 l 701 454 l 701 606 l 575 606 l 575 757 l 322 757 l 322 606 l 196 606 l 196 454 m 221 1211 l 221 1235 l 296 1235 l 297 1211 l 322 1211 l 322 1361 l 347 1363 l 347 1386 l 422 1386 l 424 1363 l 449 1363 l 449 1513 l 474 1514 l 474 1539 l 549 1539 l 550 1514 l 600 1514 l 600 1539 l 675 1539 l 676 1514 l 701 1513 l 701 1363 l 575 1361 l 575 1211 l 449 1210 l 449 1060 l 196 1060 l 196 1210 l 221 1211 z "},"è":{"ha":897,"x_min":69,"x_max":828,"o":"m 69 151 l 69 757 l 94 758 l 94 782 l 169 782 l 171 758 l 196 758 l 196 908 l 221 910 l 221 933 l 296 933 l 297 910 l 347 910 l 347 933 l 422 933 l 424 910 l 474 910 l 474 933 l 549 933 l 550 910 l 600 910 l 600 933 l 675 933 l 676 910 l 701 908 l 701 758 l 726 758 l 726 782 l 803 782 l 803 758 l 828 757 l 828 454 l 701 454 l 701 303 l 322 303 l 322 151 l 347 151 l 347 176 l 422 176 l 424 151 l 474 151 l 474 176 l 549 176 l 550 151 l 600 151 l 600 176 l 675 176 l 676 151 l 726 151 l 726 176 l 803 176 l 803 151 l 828 151 l 828 0 l 196 0 l 196 151 l 69 151 m 196 454 l 221 454 l 221 479 l 296 479 l 297 454 l 347 454 l 347 479 l 422 479 l 424 454 l 474 454 l 474 479 l 549 479 l 550 454 l 600 454 l 600 479 l 675 479 l 676 454 l 701 454 l 701 606 l 575 606 l 575 757 l 322 757 l 322 606 l 196 606 l 196 454 m 701 1210 l 701 1060 l 449 1060 l 449 1210 l 322 1211 l 322 1361 l 196 1363 l 196 1513 l 221 1514 l 222 1539 l 297 1539 l 297 1514 l 347 1514 l 349 1539 l 424 1539 l 424 1514 l 449 1513 l 449 1363 l 474 1363 l 475 1386 l 550 1386 l 550 1363 l 575 1361 l 575 1211 l 600 1211 l 601 1235 l 676 1235 l 676 1211 l 701 1210 z "},"á":{"ha":897,"x_min":69,"x_max":828,"o":"m 221 151 l 221 176 l 296 176 l 297 151 l 347 151 l 347 176 l 422 176 l 424 151 l 474 151 l 474 176 l 549 176 l 550 151 l 600 151 l 600 176 l 675 176 l 676 151 l 701 151 l 701 454 l 196 454 l 196 151 l 69 151 l 69 454 l 94 454 l 94 479 l 169 479 l 171 454 l 196 454 l 196 606 l 221 606 l 221 631 l 296 631 l 297 606 l 347 606 l 347 631 l 422 631 l 424 606 l 474 606 l 474 631 l 549 631 l 550 606 l 600 606 l 600 631 l 675 631 l 676 606 l 701 606 l 701 757 l 196 758 l 196 908 l 221 910 l 221 933 l 296 933 l 297 910 l 347 910 l 347 933 l 422 933 l 424 910 l 474 910 l 474 933 l 549 933 l 550 910 l 600 910 l 600 933 l 675 933 l 676 910 l 726 910 l 726 933 l 803 933 l 803 910 l 828 908 l 828 0 l 196 0 l 196 151 l 221 151 m 221 1211 l 221 1235 l 296 1235 l 297 1211 l 322 1211 l 322 1361 l 347 1363 l 347 1386 l 422 1386 l 424 1363 l 449 1363 l 449 1513 l 474 1514 l 474 1539 l 549 1539 l 550 1514 l 600 1514 l 600 1539 l 675 1539 l 676 1514 l 701 1513 l 701 1363 l 575 1361 l 575 1211 l 449 1210 l 449 1060 l 196 1060 l 196 1210 l 221 1211 z "},"à":{"ha":897,"x_min":69,"x_max":828,"o":"m 221 151 l 221 176 l 296 176 l 297 151 l 347 151 l 347 176 l 422 176 l 424 151 l 474 151 l 474 176 l 549 176 l 550 151 l 600 151 l 600 176 l 675 176 l 676 151 l 701 151 l 701 454 l 196 454 l 196 151 l 69 151 l 69 454 l 94 454 l 94 479 l 169 479 l 171 454 l 196 454 l 196 606 l 221 606 l 221 631 l 296 631 l 297 606 l 347 606 l 347 631 l 422 631 l 424 606 l 474 606 l 474 631 l 549 631 l 550 606 l 600 606 l 600 631 l 675 631 l 676 606 l 701 606 l 701 757 l 196 758 l 196 908 l 221 910 l 221 933 l 296 933 l 297 910 l 347 910 l 347 933 l 422 933 l 424 910 l 474 910 l 474 933 l 549 933 l 550 910 l 600 910 l 600 933 l 675 933 l 676 910 l 726 910 l 726 933 l 803 933 l 803 910 l 828 908 l 828 0 l 196 0 l 196 151 l 221 151 m 701 1210 l 701 1060 l 449 1060 l 449 1210 l 322 1211 l 322 1361 l 196 1363 l 196 1513 l 221 1514 l 222 1539 l 297 1539 l 297 1514 l 347 1514 l 349 1539 l 424 1539 l 424 1514 l 449 1513 l 449 1363 l 474 1363 l 475 1386 l 550 1386 l 550 1363 l 575 1361 l 575 1211 l 600 1211 l 601 1235 l 676 1235 l 676 1211 l 701 1210 z "},"ì":{"ha":518,"x_min":8,"x_max":514,"o":"m 94 151 l 94 176 l 169 176 l 171 151 l 196 151 l 196 757 l 69 758 l 69 908 l 94 910 l 94 933 l 169 933 l 171 910 l 221 910 l 221 933 l 296 933 l 297 910 l 322 908 l 322 151 l 347 151 l 347 176 l 422 176 l 424 151 l 449 151 l 449 0 l 69 0 l 69 151 l 94 151 m 221 1211 l 221 1235 l 296 1235 l 297 1211 l 322 1210 l 322 1060 l 196 1060 l 196 1210 l 221 1211 m 514 1210 l 514 1060 l 261 1060 l 261 1210 l 135 1211 l 135 1361 l 8 1363 l 8 1513 l 33 1514 l 35 1539 l 110 1539 l 110 1514 l 160 1514 l 161 1539 l 236 1539 l 236 1514 l 261 1513 l 261 1363 l 286 1363 l 288 1386 l 363 1386 l 363 1363 l 388 1361 l 388 1211 l 413 1211 l 414 1235 l 489 1235 l 489 1211 l 514 1210 z "},"í":{"ha":518,"x_min":8,"x_max":514,"o":"m 94 151 l 94 176 l 169 176 l 171 151 l 196 151 l 196 757 l 69 758 l 69 908 l 94 910 l 94 933 l 169 933 l 171 910 l 221 910 l 221 933 l 296 933 l 297 910 l 322 908 l 322 151 l 347 151 l 347 176 l 422 176 l 424 151 l 449 151 l 449 0 l 69 0 l 69 151 l 94 151 m 221 1211 l 221 1235 l 296 1235 l 297 1211 l 322 1210 l 322 1060 l 196 1060 l 196 1210 l 221 1211 m 33 1211 l 33 1235 l 108 1235 l 110 1211 l 135 1211 l 135 1361 l 160 1363 l 160 1386 l 235 1386 l 236 1363 l 261 1363 l 261 1513 l 286 1514 l 286 1539 l 361 1539 l 363 1514 l 413 1514 l 413 1539 l 488 1539 l 489 1514 l 514 1513 l 514 1363 l 388 1361 l 388 1211 l 261 1210 l 261 1060 l 8 1060 l 8 1210 l 33 1211 z "},"ò":{"ha":897,"x_min":69,"x_max":828,"o":"m 69 151 l 69 757 l 94 758 l 94 782 l 169 782 l 171 758 l 196 758 l 196 908 l 221 910 l 221 933 l 296 933 l 297 910 l 347 910 l 347 933 l 422 933 l 424 910 l 474 910 l 474 933 l 549 933 l 550 910 l 600 910 l 600 933 l 675 933 l 676 910 l 701 908 l 701 758 l 726 758 l 726 782 l 803 782 l 803 758 l 828 757 l 828 151 l 701 151 l 701 0 l 196 0 l 196 151 l 69 151 m 322 151 l 347 151 l 347 176 l 422 176 l 424 151 l 474 151 l 474 176 l 549 176 l 550 151 l 575 151 l 575 303 l 600 303 l 600 328 l 675 328 l 676 303 l 701 303 l 701 606 l 575 606 l 575 757 l 322 757 l 322 606 l 196 606 l 196 303 l 221 303 l 221 328 l 296 328 l 297 303 l 322 303 l 322 151 m 701 1210 l 701 1060 l 449 1060 l 449 1210 l 322 1211 l 322 1361 l 196 1363 l 196 1513 l 221 1514 l 222 1539 l 297 1539 l 297 1514 l 347 1514 l 349 1539 l 424 1539 l 424 1514 l 449 1513 l 449 1363 l 474 1363 l 475 1386 l 550 1386 l 550 1363 l 575 1361 l 575 1211 l 600 1211 l 601 1235 l 676 1235 l 676 1211 l 701 1210 z "},"ó":{"ha":897,"x_min":69,"x_max":828,"o":"m 69 151 l 69 757 l 94 758 l 94 782 l 169 782 l 171 758 l 196 758 l 196 908 l 221 910 l 221 933 l 296 933 l 297 910 l 347 910 l 347 933 l 422 933 l 424 910 l 474 910 l 474 933 l 549 933 l 550 910 l 600 910 l 600 933 l 675 933 l 676 910 l 701 908 l 701 758 l 726 758 l 726 782 l 803 782 l 803 758 l 828 757 l 828 151 l 701 151 l 701 0 l 196 0 l 196 151 l 69 151 m 322 151 l 347 151 l 347 176 l 422 176 l 424 151 l 474 151 l 474 176 l 549 176 l 550 151 l 575 151 l 575 303 l 600 303 l 600 328 l 675 328 l 676 303 l 701 303 l 701 606 l 575 606 l 575 757 l 322 757 l 322 606 l 196 606 l 196 303 l 221 303 l 221 328 l 296 328 l 297 303 l 322 303 l 322 151 m 221 1211 l 221 1235 l 296 1235 l 297 1211 l 322 1211 l 322 1361 l 347 1363 l 347 1386 l 422 1386 l 424 1363 l 449 1363 l 449 1513 l 474 1514 l 474 1539 l 549 1539 l 550 1514 l 600 1514 l 600 1539 l 675 1539 l 676 1514 l 701 1513 l 701 1363 l 575 1361 l 575 1211 l 449 1210 l 449 1060 l 196 1060 l 196 1210 l 221 1211 z "},"ù":{"ha":897,"x_min":69,"x_max":828,"o":"m 69 151 l 69 908 l 94 910 l 94 933 l 169 933 l 171 910 l 196 908 l 196 303 l 221 303 l 221 328 l 296 328 l 297 303 l 322 303 l 322 151 l 347 151 l 347 176 l 422 176 l 424 151 l 474 151 l 474 176 l 549 176 l 550 151 l 575 151 l 575 303 l 600 303 l 600 328 l 675 328 l 676 303 l 701 303 l 701 908 l 726 910 l 726 933 l 803 933 l 803 910 l 828 908 l 828 151 l 701 151 l 701 0 l 196 0 l 196 151 l 69 151 m 701 1210 l 701 1060 l 449 1060 l 449 1210 l 322 1211 l 322 1361 l 196 1363 l 196 1513 l 221 1514 l 222 1539 l 297 1539 l 297 1514 l 347 1514 l 349 1539 l 424 1539 l 424 1514 l 449 1513 l 449 1363 l 474 1363 l 475 1386 l 550 1386 l 550 1363 l 575 1361 l 575 1211 l 600 1211 l 601 1235 l 676 1235 l 676 1211 l 701 1210 z "},"ú":{"ha":897,"x_min":69,"x_max":828,"o":"m 69 151 l 69 908 l 94 910 l 94 933 l 169 933 l 171 910 l 196 908 l 196 303 l 221 303 l 221 328 l 296 328 l 297 303 l 322 303 l 322 151 l 347 151 l 347 176 l 422 176 l 424 151 l 474 151 l 474 176 l 549 176 l 550 151 l 575 151 l 575 303 l 600 303 l 600 328 l 675 328 l 676 303 l 701 303 l 701 908 l 726 910 l 726 933 l 803 933 l 803 910 l 828 908 l 828 151 l 701 151 l 701 0 l 196 0 l 196 151 l 69 151 m 221 1211 l 221 1235 l 296 1235 l 297 1211 l 322 1211 l 322 1361 l 347 1363 l 347 1386 l 422 1386 l 424 1363 l 449 1363 l 449 1513 l 474 1514 l 474 1539 l 549 1539 l 550 1514 l 600 1514 l 600 1539 l 675 1539 l 676 1514 l 701 1513 l 701 1363 l 575 1361 l 575 1211 l 449 1210 l 449 1060 l 196 1060 l 196 1210 l 221 1211 z "},"ý":{"ha":897,"x_min":69,"x_max":828,"o":"m 221 -301 l 221 -276 l 296 -276 l 297 -301 l 347 -301 l 347 -276 l 422 -276 l 424 -301 l 474 -301 l 474 -276 l 549 -276 l 550 -301 l 575 -301 l 575 1 l 322 1 l 322 153 l 347 153 l 347 178 l 422 178 l 424 153 l 474 153 l 474 178 l 549 178 l 550 153 l 575 153 l 575 456 l 600 457 l 600 481 l 675 481 l 676 457 l 701 457 l 701 910 l 726 911 l 726 936 l 803 936 l 803 911 l 828 910 l 828 457 l 701 456 l 701 -301 l 575 -301 l 575 -453 l 196 -453 l 196 -301 l 221 -301 m 221 457 l 221 481 l 296 481 l 297 457 l 322 456 l 322 153 l 196 153 l 196 456 l 221 457 m 94 911 l 94 936 l 169 936 l 171 911 l 196 910 l 196 457 l 69 457 l 69 910 l 94 911 m 221 1211 l 221 1235 l 296 1235 l 297 1211 l 322 1211 l 322 1361 l 347 1363 l 347 1386 l 422 1386 l 424 1363 l 449 1363 l 449 1513 l 474 1514 l 474 1539 l 549 1539 l 550 1514 l 600 1514 l 600 1539 l 675 1539 l 676 1514 l 701 1513 l 701 1363 l 575 1361 l 575 1211 l 449 1210 l 449 1060 l 196 1060 l 196 1210 l 221 1211 z "},"Ø":{"ha":897,"x_min":69,"x_max":828,"o":"m 69 151 l 69 1213 l 94 1213 l 94 1236 l 169 1236 l 169 1213 l 196 1213 l 196 1364 l 221 1364 l 221 1389 l 296 1389 l 296 1364 l 347 1364 l 347 1389 l 424 1389 l 424 1364 l 474 1364 l 474 1389 l 550 1389 l 550 1364 l 600 1364 l 600 1389 l 676 1389 l 676 1364 l 701 1364 l 701 1213 l 726 1213 l 726 1236 l 803 1236 l 803 1213 l 828 1213 l 828 151 l 701 151 l 701 0 l 196 0 l 196 151 l 69 151 m 322 151 l 347 151 l 347 176 l 424 176 l 424 151 l 474 151 l 474 176 l 550 176 l 550 151 l 575 151 l 575 1211 l 322 1211 l 322 151 m 94 151 l 94 176 l 169 176 l 171 151 l 196 151 l 196 454 l 221 454 l 221 479 l 296 479 l 297 454 l 322 454 l 322 606 l 347 606 l 347 631 l 422 631 l 424 606 l 449 606 l 449 908 l 474 910 l 474 933 l 549 933 l 550 910 l 575 910 l 575 1211 l 600 1213 l 600 1236 l 675 1236 l 676 1213 l 701 1213 l 701 1363 l 726 1364 l 726 1389 l 803 1389 l 803 1364 l 828 1363 l 828 1061 l 701 1060 l 701 758 l 575 757 l 575 454 l 449 454 l 449 303 l 322 303 l 322 0 l 69 0 l 69 151 l 94 151 z "},"Í":{"ha":897,"x_min":69,"x_max":828,"o":"m 94 151 l 94 176 l 169 176 l 171 151 l 221 151 l 221 176 l 296 176 l 297 151 l 322 151 l 322 1211 l 69 1213 l 69 1363 l 94 1364 l 94 1389 l 169 1389 l 171 1364 l 221 1364 l 221 1389 l 296 1389 l 297 1364 l 347 1364 l 347 1389 l 422 1389 l 424 1364 l 474 1364 l 474 1389 l 549 1389 l 550 1364 l 600 1364 l 600 1389 l 675 1389 l 676 1364 l 726 1364 l 726 1389 l 803 1389 l 803 1364 l 828 1363 l 828 1213 l 575 1211 l 575 151 l 600 151 l 600 176 l 675 176 l 676 151 l 726 151 l 726 176 l 803 176 l 803 151 l 828 151 l 828 0 l 69 0 l 69 151 l 94 151 m 221 1667 l 221 1690 l 296 1690 l 297 1667 l 322 1667 l 322 1817 l 347 1818 l 347 1842 l 422 1842 l 424 1818 l 449 1818 l 449 1968 l 474 1969 l 474 1994 l 549 1994 l 550 1969 l 600 1969 l 600 1994 l 675 1994 l 676 1969 l 701 1968 l 701 1818 l 575 1817 l 575 1667 l 449 1665 l 449 1515 l 196 1515 l 196 1665 l 221 1667 z "},"Ì":{"ha":897,"x_min":69,"x_max":828,"o":"m 94 151 l 94 176 l 169 176 l 171 151 l 221 151 l 221 176 l 296 176 l 297 151 l 322 151 l 322 1211 l 69 1213 l 69 1363 l 94 1364 l 94 1389 l 169 1389 l 171 1364 l 221 1364 l 221 1389 l 296 1389 l 297 1364 l 347 1364 l 347 1389 l 422 1389 l 424 1364 l 474 1364 l 474 1389 l 549 1389 l 550 1364 l 600 1364 l 600 1389 l 675 1389 l 676 1364 l 726 1364 l 726 1389 l 803 1389 l 803 1364 l 828 1363 l 828 1213 l 575 1211 l 575 151 l 600 151 l 600 176 l 675 176 l 676 151 l 726 151 l 726 176 l 803 176 l 803 151 l 828 151 l 828 0 l 69 0 l 69 151 l 94 151 m 701 1665 l 701 1515 l 449 1515 l 449 1665 l 322 1667 l 322 1817 l 196 1818 l 196 1968 l 221 1969 l 222 1994 l 297 1994 l 297 1969 l 347 1969 l 349 1994 l 424 1994 l 424 1969 l 449 1968 l 449 1818 l 474 1818 l 475 1842 l 550 1842 l 550 1818 l 575 1817 l 575 1667 l 600 1667 l 601 1690 l 676 1690 l 676 1667 l 701 1665 z "},"Ë":{"ha":897,"x_min":67,"x_max":829,"o":"m 94 1364 l 94 1389 l 169 1389 l 169 1364 l 221 1364 l 221 1389 l 296 1389 l 296 1364 l 347 1364 l 347 1389 l 424 1389 l 424 1364 l 474 1364 l 474 1389 l 550 1389 l 550 1364 l 600 1364 l 600 1389 l 676 1389 l 676 1364 l 726 1364 l 726 1389 l 803 1389 l 803 1364 l 828 1364 l 828 1213 l 322 1213 l 322 758 l 347 758 l 347 782 l 424 782 l 424 758 l 474 758 l 474 782 l 550 782 l 550 758 l 600 758 l 600 782 l 676 782 l 676 757 l 701 757 l 701 606 l 322 606 l 322 151 l 347 151 l 347 176 l 424 176 l 424 151 l 474 151 l 474 176 l 550 176 l 550 151 l 600 151 l 600 176 l 676 176 l 676 151 l 726 151 l 726 176 l 803 176 l 803 151 l 828 151 l 828 0 l 69 0 l 69 1364 l 94 1364 m 92 1818 l 92 1843 l 167 1843 l 168 1818 l 218 1818 l 218 1843 l 293 1843 l 294 1818 l 319 1818 l 319 1667 l 67 1667 l 67 1818 l 92 1818 m 601 1818 l 601 1843 l 676 1843 l 678 1818 l 728 1818 l 728 1843 l 803 1843 l 804 1818 l 829 1818 l 829 1667 l 576 1667 l 576 1818 l 601 1818 z "},"É":{"ha":897,"x_min":69,"x_max":828,"o":"m 94 1364 l 94 1389 l 169 1389 l 169 1364 l 221 1364 l 221 1389 l 296 1389 l 296 1364 l 347 1364 l 347 1389 l 424 1389 l 424 1364 l 474 1364 l 474 1389 l 550 1389 l 550 1364 l 600 1364 l 600 1389 l 676 1389 l 676 1364 l 726 1364 l 726 1389 l 803 1389 l 803 1364 l 828 1364 l 828 1213 l 322 1213 l 322 758 l 347 758 l 347 782 l 424 782 l 424 758 l 474 758 l 474 782 l 550 782 l 550 758 l 600 758 l 600 782 l 676 782 l 676 757 l 701 757 l 701 606 l 322 606 l 322 151 l 347 151 l 347 176 l 424 176 l 424 151 l 474 151 l 474 176 l 550 176 l 550 151 l 600 151 l 600 176 l 676 176 l 676 151 l 726 151 l 726 176 l 803 176 l 803 151 l 828 151 l 828 0 l 69 0 l 69 1364 l 94 1364 m 221 1667 l 221 1690 l 296 1690 l 297 1667 l 322 1667 l 322 1817 l 347 1818 l 347 1842 l 422 1842 l 424 1818 l 449 1818 l 449 1968 l 474 1969 l 474 1994 l 549 1994 l 550 1969 l 600 1969 l 600 1994 l 675 1994 l 676 1969 l 701 1968 l 701 1818 l 575 1817 l 575 1667 l 449 1665 l 449 1515 l 196 1515 l 196 1665 l 221 1667 z "},"È":{"ha":897,"x_min":69,"x_max":828,"o":"m 94 1364 l 94 1389 l 169 1389 l 169 1364 l 221 1364 l 221 1389 l 296 1389 l 296 1364 l 347 1364 l 347 1389 l 424 1389 l 424 1364 l 474 1364 l 474 1389 l 550 1389 l 550 1364 l 600 1364 l 600 1389 l 676 1389 l 676 1364 l 726 1364 l 726 1389 l 803 1389 l 803 1364 l 828 1364 l 828 1213 l 322 1213 l 322 758 l 347 758 l 347 782 l 424 782 l 424 758 l 474 758 l 474 782 l 550 782 l 550 758 l 600 758 l 600 782 l 676 782 l 676 757 l 701 757 l 701 606 l 322 606 l 322 151 l 347 151 l 347 176 l 424 176 l 424 151 l 474 151 l 474 176 l 550 176 l 550 151 l 600 151 l 600 176 l 676 176 l 676 151 l 726 151 l 726 176 l 803 176 l 803 151 l 828 151 l 828 0 l 69 0 l 69 1364 l 94 1364 m 701 1665 l 701 1515 l 449 1515 l 449 1665 l 322 1667 l 322 1817 l 196 1818 l 196 1968 l 221 1969 l 222 1994 l 297 1994 l 297 1969 l 347 1969 l 349 1994 l 424 1994 l 424 1969 l 449 1968 l 449 1818 l 474 1818 l 475 1842 l 550 1842 l 550 1818 l 575 1817 l 575 1667 l 600 1667 l 601 1690 l 676 1690 l 676 1667 l 701 1665 z "},"Æ":{"ha":1794,"x_min":69,"x_max":1586,"o":"m 94 1061 l 94 1085 l 169 1085 l 169 1061 l 196 1061 l 196 1213 l 221 1213 l 221 1236 l 296 1236 l 296 1213 l 322 1213 l 322 1364 l 347 1364 l 347 1389 l 424 1389 l 424 1364 l 474 1364 l 474 1389 l 550 1389 l 550 1364 l 575 1364 l 575 1213 l 600 1213 l 600 1236 l 676 1236 l 676 1213 l 701 1213 l 701 1061 l 726 1061 l 726 1085 l 803 1085 l 803 1061 l 828 1061 l 828 0 l 575 0 l 575 454 l 322 454 l 322 0 l 69 0 l 69 1061 l 94 1061 m 322 606 l 347 606 l 347 631 l 424 631 l 424 606 l 474 606 l 474 631 l 550 631 l 550 606 l 575 606 l 575 1060 l 322 1060 l 322 606 m 853 1364 l 853 1389 l 928 1389 l 928 1364 l 979 1364 l 979 1389 l 1054 1389 l 1054 1364 l 1106 1364 l 1106 1389 l 1182 1389 l 1182 1364 l 1232 1364 l 1232 1389 l 1308 1389 l 1308 1364 l 1358 1364 l 1358 1389 l 1435 1389 l 1435 1364 l 1485 1364 l 1485 1389 l 1561 1389 l 1561 1364 l 1586 1364 l 1586 1213 l 1081 1213 l 1081 758 l 1106 758 l 1106 782 l 1182 782 l 1182 758 l 1232 758 l 1232 782 l 1308 782 l 1308 758 l 1358 758 l 1358 782 l 1435 782 l 1435 757 l 1460 757 l 1460 606 l 1081 606 l 1081 151 l 1106 151 l 1106 176 l 1182 176 l 1182 151 l 1232 151 l 1232 176 l 1308 176 l 1308 151 l 1358 151 l 1358 176 l 1435 176 l 1435 151 l 1485 151 l 1485 176 l 1561 176 l 1561 151 l 1586 151 l 1586 0 l 828 0 l 828 1364 l 853 1364 z "},"ﬁ":{"ha":1415,"x_min":69,"x_max":1082,"o":"m 69 606 l 69 757 l 94 758 l 94 782 l 169 782 l 171 758 l 221 758 l 221 782 l 296 782 l 297 758 l 322 758 l 322 1211 l 347 1213 l 347 1236 l 422 1236 l 424 1213 l 449 1213 l 449 1363 l 474 1364 l 474 1389 l 549 1389 l 550 1364 l 600 1364 l 600 1389 l 675 1389 l 676 1364 l 726 1364 l 726 1389 l 803 1389 l 803 1364 l 828 1363 l 828 1213 l 575 1211 l 575 1061 l 449 1060 l 449 758 l 474 758 l 474 782 l 549 782 l 550 758 l 600 758 l 600 782 l 675 782 l 676 758 l 701 757 l 701 606 l 449 606 l 449 0 l 322 0 l 322 606 l 69 606 m 728 151 l 728 176 l 803 176 l 804 151 l 829 151 l 829 757 l 703 758 l 703 908 l 728 910 l 728 933 l 803 933 l 804 910 l 854 910 l 854 933 l 929 933 l 931 910 l 956 908 l 956 151 l 981 151 l 981 176 l 1056 176 l 1057 151 l 1082 151 l 1082 0 l 703 0 l 703 151 l 728 151 m 854 1211 l 854 1235 l 929 1235 l 931 1211 l 956 1210 l 956 1060 l 829 1060 l 829 1210 l 854 1211 z "},"ﬂ":{"ha":1794,"x_min":69,"x_max":1586,"o":"m 69 606 l 69 757 l 94 758 l 94 782 l 169 782 l 171 758 l 221 758 l 221 782 l 296 782 l 297 758 l 322 758 l 322 1211 l 347 1213 l 347 1236 l 422 1236 l 424 1213 l 449 1213 l 449 1363 l 474 1364 l 474 1389 l 549 1389 l 550 1364 l 600 1364 l 600 1389 l 675 1389 l 676 1364 l 726 1364 l 726 1389 l 803 1389 l 803 1364 l 828 1363 l 828 1213 l 575 1211 l 575 1061 l 449 1060 l 449 758 l 474 758 l 474 782 l 549 782 l 550 758 l 600 758 l 600 782 l 675 782 l 676 758 l 701 757 l 701 606 l 449 606 l 449 0 l 322 0 l 322 606 l 69 606 m 954 151 l 954 1211 l 828 1213 l 828 1363 l 853 1364 l 853 1389 l 928 1389 l 929 1364 l 979 1364 l 979 1389 l 1054 1389 l 1056 1364 l 1081 1363 l 1081 303 l 1106 303 l 1106 328 l 1181 328 l 1182 303 l 1207 303 l 1207 151 l 1232 151 l 1232 176 l 1307 176 l 1308 151 l 1358 151 l 1358 176 l 1433 176 l 1435 151 l 1485 151 l 1485 176 l 1561 176 l 1561 151 l 1586 151 l 1586 0 l 1081 0 l 1081 151 l 954 151 z "}}}
